{
.appVersion = "3151";
.formatVersion = 3;
DisplayStrings = (
"ɉ",
"ɨ",
"ł",
"ɬ",
"ɵ",
"ʉ",
"ᵾ",
"/jcrossedtail.dotless",
"/istroke.dotless",
"/hbar.sc",
"/lslash.sc",
"/tbar.sc",
"noʰno",
"ⁿᵘ",
"/zero.zero",
"ƶ",
"Ʝ",
"HƜH",
"Ǥ",
"Ɛ",
"ⱠⱢŁ",
"ȠH",
"PȠnp",
"Ꝁ",
"OꞶ",
"ƆC",
"Ⱦ",
"HHɌHHR",
"Ʌ",
"Ʋ",
"ƹ",
"ʒ",
"ľ",
"ꝁ",
"/diastroke.part ⱥɇø",
"Ʝʝ/jcrossedtail.dotless",
"ƠƠỠ/tildecomb.case ÃẼÑÕṌṎȬỮŨṸṼỸÑ",
e,
"oꞷn",
"OꞶHN",
"ɤ",
"ɛ",
"Ƞ",
"HƜȠpn"
);
axes = (
{
name = Weight;
tag = wght;
}
);
classes = (
{
automatic = 1;

glyphs = (
{
glyphname = A;
kernLeft = KO_A;
kernRight = KO_A;
layers = (
{
anchors = (
{
name = bottom;
pos = (273,0);
},
{
name = center;
pos = (288,374);
},
{
name = ogonek;
pos = (541,3);
},
{
name = top;
pos = (263,750);
}
);
background = {
shapes = (
{
closed = 1;
nodes = (
(143,0,l),
(279,679,l),
(251,679,l),
(390,0,l),
(541,0,l),
(370,750,l),
(170,750,l),
(15,0,l)
);
},
{
closed = 1;
nodes = (
(397,137,l),
(397,259,l),
(160,259,l),
(160,137,l)
);
}
);
};
layerId = "849A9C4C-BF7C-40C5-8614-1FD725A2A379";
shapes = (
{
closed = 1;
nodes = (
(523,0,l),
(349,762,l),
(168,741,l),
(15,0,l),
(160,0,l),
(197,220,l),
(189,224,l),
(250,554,l),
(258,603,l),
(267,555,l),
(325,259,l),
(134,259,l),
(134,137,l),
(344,137,l),
(376,-14,l)
);
}
);
userData = {
com.hugojourdan.ColorFlow = {
"0" = 0;
"1" = 0;
"10" = 0;
"11" = 0;
"2" = 0;
"3" = 0;
"4" = 0;
"5" = 0;
"6" = 0;
"7" = 0;
"8" = 0;
"9" = 0;
};
};
width = 538;
}
);
metricRight = "=|";
unicode = 65;
},
{
glyphname = "Alpha-latin";
layers = (
{
anchors = (
{
name = bottom;
pos = (283,0);
},
{
name = top;
pos = (283,750);
}
);
background = {
shapes = (
{
closed = 1;
nodes = (
(445,-14,o),
(446,138,o),
(446,375,cs),
(446,612,o),
(445,764,o),
(271,764,cs),
(98,764,o),
(26,612,o),
(26,375,cs),
(26,138,o),
(98,-14,o),
(271,-14,cs)
);
},
{
closed = 1;
nodes = (
(189,115,o),
(181,238,o),
(181,375,cs),
(181,512,o),
(189,635,o),
(271,635,cs),
(354,635,o),
(361,512,o),
(361,375,cs),
(361,238,o),
(354,115,o),
(271,115,cs)
);
},
{
closed = 1;
nodes = (
(361,0,l),
(508,0,l),
(507,342,o),
(506,609,o),
(508,756,c),
(459,750,o),
(409,746,o),
(361,744,c)
);
}
);
};
layerId = "849A9C4C-BF7C-40C5-8614-1FD725A2A379";
shapes = (
{
closed = 1;
nodes = (
(318,-13,o),
(373,76,o),
(373,197,c),
(345,318,l),
(345,183,o),
(327,106,o),
(268,106,cs),
(212,106,o),
(186,207,o),
(186,376,cs),
(186,544,o),
(212,645,o),
(271,645,cs),
(326,645,o),
(345,563,o),
(345,431,c),
(373,548,l),
(373,654,o),
(333,764,o),
(232,764,cs),
(98,764,o),
(36,593,o),
(36,375,cs),
(36,135,o),
(98,-13,o),
(223,-13,cs)
);
},
{
closed = 1;
nodes = (
(521,-13,o),
(542,-7,o),
(565,1,c),
(553,122,l),
(545,119,o),
(538,118,o),
(529,118,cs),
(503,118,o),
(492,135,o),
(492,173,cs),
(492,760,l),
(345,743,l),
(345,170,ls),
(345,72,o),
(388,-13,o),
(493,-13,cs)
);
}
);
userData = {
com.hugojourdan.ColorFlow = {
"0" = 0;
"1" = 0;
"10" = 0;
"11" = 0;
"2" = 0;
"3" = 0;
"4" = 0;
"5" = 0;
"6" = 0;
"7" = 0;
"8" = 0;
"9" = 0;
};
};
width = 565;
}
);
metricLeft = O;
unicode = 11373;
},
{
glyphname = Aringacute;
layers = (
{
background = {
shapes = (
{
closed = 1;
nodes = (
(502,1074,l),
(399,1169,l),
(305,1005,l),
(337,978,l)
);
}
);
};
layerId = "849A9C4C-BF7C-40C5-8614-1FD725A2A379";
shapes = (
{
ref = A;
},
{
pos = (263,0);
ref = ringcomb.case;
},
{
alignment = -1;
pos = (391,129);
ref = acutecomb.case;
}
);
userData = {
com.hugojourdan.ColorFlow = {
"0" = 0;
"1" = 0;
"10" = 0;
"11" = 0;
"2" = 0;
"3" = 0;
"4" = 0;
"5" = 0;
"6" = 0;
"7" = 0;
"8" = 0;
"9" = 0;
};
};
width = 538;
}
);
unicode = 506;
},
{
color = 4;
glyphname = Astroke;
layers = (
{
background = {
shapes = (
{
closed = 1;
nodes = (
(248,-90,l),
(382,832,l),
(314,840,l),
(180,-82,l)
);
}
);
};
layerId = "849A9C4C-BF7C-40C5-8614-1FD725A2A379";
shapes = (
{
ref = A;
},
{
pos = (42,91);
ref = diastrokecap.part;
}
);
userData = {
com.hugojourdan.ColorFlow = {
"0" = 0;
"1" = 0;
"10" = 0;
"11" = 0;
"2" = 0;
"3" = 0;
"4" = 0;
"5" = 0;
"6" = 0;
"7" = 0;
"8" = 0;
"9" = 0;
};
};
width = 538;
}
);
unicode = 570;
},
{
glyphname = AE;
kernLeft = KO_AE;
layers = (
{
anchors = (
{
name = bottom;
pos = (346,0);
},
{
name = top;
pos = (436,750);
}
);
background = {
shapes = (
{
closed = 1;
nodes = (
(165,0,l),
(213,161,l),
(352,161,l),
(351,0,l),
(727,0,l),
(742,122,l),
(499,122,l),
(499,315,l),
(659,315,l),
(674,433,l),
(499,433,l),
(499,633,l),
(721,633,l),
(735,750,l),
(265,750,l),
(15,0,l)
);
},
{
closed = 1;
nodes = (
(352,630,l),
(351,277,l),
(246,277,l)
);
}
);
};
guides = (
{
angle = 168;
pos = (174,0);
},
{
angle = 160;
pos = (191,-53);
}
);
layerId = "849A9C4C-BF7C-40C5-8614-1FD725A2A379";
shapes = (
{
closed = 1;
nodes = (
(165,0,l),
(213,161,l),
(352,161,l),
(352,0,l),
(727,0,l),
(742,122,l),
(499,122,l),
(499,315,l),
(659,315,l),
(674,433,l),
(499,433,l),
(499,633,l),
(721,633,l),
(735,750,l),
(265,750,l),
(15,0,l)
);
},
{
closed = 1;
nodes = (
(352,630,l),
(352,277,l),
(246,277,l)
);
}
);
userData = {
com.hugojourdan.ColorFlow = {
"0" = 0;
"1" = 0;
"10" = 0;
"11" = 0;
"2" = 0;
"3" = 0;
"4" = 0;
"5" = 0;
"6" = 0;
"7" = 0;
"8" = 0;
"9" = 0;
};
};
width = 772;
}
);
metricLeft = A;
metricRight = E;
unicode = 198;
},
{
glyphname = B;
kernLeft = KO_H;
kernRight = KO_B;
layers = (
{
anchors = (
{
name = bottom;
pos = (266,0);
},
{
name = center;
pos = (269,375);
},
{
name = top;
pos = (266,750);
}
);
background = {
shapes = (
{
closed = 1;
nodes = (
(246,0,ls),
(417,0,o),
(510,72,o),
(510,213,cs),
(510,311,o),
(475,356,o),
(398,382,c),
(463,412,o),
(493,478,o),
(493,548,cs),
(493,678,o),
(421,750,o),
(244,750,cs),
(60,750,l),
(60,0,l)
);
},
{
closed = 1;
nodes = (
(207,322,l),
(246,322,ls),
(316,322,o),
(360,297,o),
(360,223,cs),
(360,145,o),
(316,116,o),
(246,116,cs),
(207,116,l)
);
},
{
closed = 1;
nodes = (
(207,634,l),
(244,634,ls),
(309,634,o),
(349,607,o),
(349,537,cs),
(349,472,o),
(305,435,o),
(255,435,cs),
(207,435,l)
);
}
);
};
layerId = "849A9C4C-BF7C-40C5-8614-1FD725A2A379";
shapes = (
{
closed = 1;
nodes = (
(246,0,ls),
(419,0,o),
(510,74,o),
(510,203,cs),
(510,312,o),
(463,369,o),
(363,393,c),
(353,368,l),
(443,385,o),
(493,452,o),
(493,554,cs),
(493,684,o),
(400,750,o),
(244,750,cs),
(60,750,l),
(60,0,l)
);
},
{
closed = 1;
nodes = (
(207,322,l),
(246,322,ls),
(329,322,o),
(365,291,o),
(365,222,cs),
(365,151,o),
(326,116,o),
(246,116,cs),
(207,116,l)
);
},
{
closed = 1;
nodes = (
(207,634,l),
(244,634,ls),
(317,634,o),
(353,603,o),
(353,539,cs),
(353,475,o),
(315,434,o),
(255,434,cs),
(207,434,l)
);
}
);
userData = {
com.hugojourdan.ColorFlow = {
"0" = 0;
"1" = 0;
"10" = 0;
"11" = 0;
"2" = 0;
"3" = 0;
"4" = 0;
"5" = 0;
"6" = 0;
"7" = 0;
"8" = 0;
"9" = 0;
};
};
width = 538;
}
);
metricLeft = H;
unicode = 66;
},
{
glyphname = "Beta-latin";
layers = (
{
background = {
shapes = (
{
closed = 1;
nodes = (
(246,0,ls),
(417,0,o),
(510,72,o),
(510,213,cs),
(510,312,o),
(463,369,o),
(363,393,c),
(353,368,l),
(449,385,o),
(493,463,o),
(493,548,cs),
(493,678,o),
(421,750,o),
(244,750,cs),
(60,750,l),
(60,0,l)
);
},
{
closed = 1;
nodes = (
(199,322,l),
(246,322,ls),
(321,322,o),
(365,297,o),
(365,223,cs),
(365,145,o),
(321,116,o),
(246,116,cs),
(199,116,l)
);
},
{
closed = 1;
nodes = (
(199,634,l),
(244,634,ls),
(314,634,o),
(354,607,o),
(354,537,cs),
(354,472,o),
(310,435,o),
(255,435,cs),
(199,435,l)
);
},
{
closed = 1;
nodes = (
(60,-185,l),
(199,-167,l),
(199,47,l),
(60,47,l)
);
}
);
};
layerId = "849A9C4C-BF7C-40C5-8614-1FD725A2A379";
shapes = (
{
closed = 1;
nodes = (
(199,-167,l),
(199,0,l),
(246,0,ls),
(417,0,o),
(510,72,o),
(510,213,cs),
(510,316,o),
(459,374,o),
(351,395,c),
(355,368,l),
(449,385,o),
(493,463,o),
(493,548,cs),
(493,678,o),
(421,750,o),
(244,750,cs),
(60,750,l),
(60,-185,l)
);
},
{
closed = 1;
nodes = (
(199,322,l),
(246,322,ls),
(321,322,o),
(365,297,o),
(365,223,cs),
(365,145,o),
(321,116,o),
(246,116,cs),
(199,116,l)
);
},
{
closed = 1;
nodes = (
(199,634,l),
(244,634,ls),
(314,634,o),
(354,607,o),
(354,537,cs),
(354,472,o),
(310,435,o),
(255,435,cs),
(199,435,l)
);
}
);
userData = {
com.hugojourdan.ColorFlow = {
"0" = 0;
"1" = 0;
"10" = 0;
"11" = 0;
"2" = 0;
"3" = 0;
"4" = 0;
"5" = 0;
"6" = 0;
"7" = 0;
"8" = 0;
"9" = 0;
};
};
width = 538;
}
);
metricLeft = H;
metricRight = B;
unicode = 42932;
},
{
glyphname = Bhook;
kernRight = KO_B;
layers = (
{
layerId = "849A9C4C-BF7C-40C5-8614-1FD725A2A379";
shapes = (
{
closed = 1;
nodes = (
(382,0,ls),
(553,0,o),
(646,72,o),
(646,213,cs),
(646,316,o),
(595,374,o),
(487,395,c),
(491,368,l),
(585,385,o),
(629,463,o),
(629,548,cs),
(629,678,o),
(557,750,o),
(380,750,cs),
(186,750,ls),
(81,750,o),
(16,690,o),
(16,586,cs),
(16,530,o),
(32,487,o),
(52,461,c),
(151,498,l),
(134,520,o),
(124,541,o),
(124,574,cs),
(124,614,o),
(141,634,o),
(170,634,cs),
(196,634,l),
(196,0,l)
);
},
{
closed = 1;
nodes = (
(335,322,l),
(382,322,ls),
(457,322,o),
(501,297,o),
(501,223,cs),
(501,145,o),
(457,116,o),
(382,116,cs),
(335,116,l)
);
},
{
closed = 1;
nodes = (
(335,634,l),
(380,634,ls),
(450,634,o),
(490,607,o),
(490,537,cs),
(490,472,o),
(446,435,o),
(391,435,cs),
(335,435,l)
);
}
);
userData = {
com.hugojourdan.ColorFlow = {
"0" = 0;
"1" = 0;
"10" = 0;
"11" = 0;
"2" = 0;
"3" = 0;
"4" = 0;
"5" = 0;
"6" = 0;
"7" = 0;
"8" = 0;
"9" = 0;
};
};
width = 674;
}
);
metricRight = B;
unicode = 385;
},
{
glyphname = C;
kernLeft = KO_O;
kernRight = KO_C;
layers = (
{
anchors = (
{
name = bottom;
pos = (286,0);
},
{
name = top;
pos = (288,752);
}
);
background = {
shapes = (
{
closed = 1;
nodes = (
(407,-14,o),
(497,84,o),
(509,240,c),
(374,261,l),
(367,163,o),
(335,108,o),
(282,108,cs),
(217,108,o),
(188,191,o),
(188,374,cs),
(188,556,o),
(217,642,o),
(281,642,cs),
(334,642,o),
(367,583,o),
(374,489,c),
(509,510,l),
(501,665,o),
(411,764,o),
(279,764,cs),
(122,764,o),
(36,625,o),
(36,375,cs),
(36,124,o),
(122,-14,o),
(278,-14,cs)
);
}
);
};
layerId = "849A9C4C-BF7C-40C5-8614-1FD725A2A379";
shapes = (
{
closed = 1;
nodes = (
(432,-14,o),
(500,109,o),
(509,240,c),
(372,255,l),
(367,187,o),
(349,114,o),
(284,114,cs),
(215,114,o),
(190,183,o),
(190,375,cs),
(190,563,o),
(217,637,o),
(281,637,cs),
(348,637,o),
(368,549,o),
(372,481,c),
(509,510,l),
(502,646,o),
(427,765,o),
(286,765,cs),
(116,765,o),
(36,628,o),
(36,375,cs),
(36,144,o),
(111,-14,o),
(284,-14,cs)
);
}
);
userData = {
com.hugojourdan.ColorFlow = {
"0" = 0;
"1" = 0;
"10" = 0;
"11" = 0;
"2" = 0;
"3" = 0;
"4" = 0;
"5" = 0;
"6" = 0;
"7" = 0;
"8" = 0;
"9" = 0;
};
};
width = 539;
}
);
metricLeft = O;
unicode = 67;
},
{
glyphname = "Chi-latin";
layers = (
{
background = {
shapes = (
{
closed = 1;
nodes = (
(528,-153,o),
(577,-126,o),
(603,-79,c),
(537,3,l),
(525,-20,o),
(510,-33,o),
(492,-33,cs),
(474,-33,o),
(467,-23,o),
(459,2,cs),
(349,367,l),
(341,365,l),
(280,629,ls),
(259,719,o),
(211,760,o),
(133,760,cs),
(72,760,o),
(23,733,o),
(-3,686,c),
(63,604,l),
(75,627,o),
(90,640,o),
(108,640,cs),
(126,640,o),
(134,630,o),
(141,605,cs),
(241,255,l),
(245,257,l),
(319,-22,ls),
(343,-111,o),
(389,-153,o),
(467,-153,cs)
);
},
{
closed = 1;
nodes = (
(188,-143,l),
(320,241,l),
(368,241,l),
(554,748,l),
(421,748,l),
(280,342,l),
(237,342,l),
(55,-143,l)
);
}
);
};
layerId = "849A9C4C-BF7C-40C5-8614-1FD725A2A379";
shapes = (
{
closed = 1;
nodes = (
(525,-20,o),
(510,-33,o),
(492,-33,cs),
(474,-33,o),
(467,-23,o),
(459,2,cs),
(378,269,l),
(554,750,l),
(421,750,l),
(320,457,l),
(280,629,ls),
(259,719,o),
(211,760,o),
(133,760,cs),
(72,760,o),
(23,733,o),
(-3,686,c),
(63,604,l),
(75,627,o),
(90,640,o),
(108,640,cs),
(126,640,o),
(134,630,o),
(141,605,cs),
(225,310,l),
(55,-143,l),
(188,-143,l),
(280,125,l),
(319,-22,ls),
(343,-111,o),
(389,-153,o),
(467,-153,cs),
(528,-153,o),
(577,-126,o),
(603,-79,c),
(537,3,l)
);
}
);
userData = {
com.hugojourdan.ColorFlow = {
"0" = 0;
"1" = 0;
"10" = 0;
"11" = 0;
"2" = 0;
"3" = 0;
"4" = 0;
"5" = 0;
"6" = 0;
"7" = 0;
"8" = 0;
"9" = 0;
};
};
width = 579;
}
);
unicode = 42931;
},
{
glyphname = Chook;
layers = (
{
anchors = (
{
name = bottom;
pos = (278,0);
},
{
name = top;
pos = (278,750);
}
);
background = {
shapes = (
{
closed = 1;
nodes = (
(435,-15,o),
(500,109,o),
(509,240,c),
(372,255,l),
(367,187,o),
(349,108,o),
(287,108,cs),
(215,108,o),
(191,203,o),
(191,375,cs),
(191,543,o),
(217,642,o),
(288,642,cs),
(348,642,o),
(366,549,o),
(370,481,c),
(509,510,l),
(460,641,o),
(430,765,o),
(289,765,cs),
(116,765,o),
(36,628,o),
(36,375,cs),
(36,144,o),
(114,-15,o),
(287,-15,cs)
);
},
{
closed = 1;
nodes = (
(600,854,o),
(567,870,o),
(525,870,cs),
(437,870,o),
(389,805,o),
(389,730,cs),
(389,681,o),
(392,652,o),
(399,630,c),
(509,510,l),
(468,698,o),
(480,752,o),
(529,752,cs),
(549,752,o),
(561,744,o),
(578,725,c),
(615,834,l)
);
}
);
};
layerId = "849A9C4C-BF7C-40C5-8614-1FD725A2A379";
shapes = (
{
closed = 1;
nodes = (
(435,-15,o),
(500,109,o),
(509,240,c),
(372,255,l),
(367,187,o),
(349,108,o),
(287,108,cs),
(215,108,o),
(191,203,o),
(191,375,cs),
(191,543,o),
(217,642,o),
(288,642,cs),
(348,642,o),
(366,549,o),
(370,481,c),
(509,510,l),
(492,588,o),
(484,642,o),
(484,690,cs),
(484,753,o),
(500,772,o),
(529,772,cs),
(549,772,o),
(561,764,o),
(578,745,c),
(615,854,l),
(600,874,o),
(567,890,o),
(525,890,cs),
(437,890,o),
(389,825,o),
(389,729,cs),
(389,717,o),
(390,704,o),
(393,691,c),
(417,709,l),
(387,744,o),
(348,765,o),
(289,765,cs),
(116,765,o),
(36,628,o),
(36,375,cs),
(36,144,o),
(114,-15,o),
(287,-15,cs)
);
}
);
userData = {
com.hugojourdan.ColorFlow = {
"0" = 0;
"1" = 0;
"10" = 0;
"11" = 0;
"2" = 0;
"3" = 0;
"4" = 0;
"5" = 0;
"6" = 0;
"7" = 0;
"8" = 0;
"9" = 0;
};
};
width = 555;
}
);
metricLeft = O;
unicode = 391;
},
{
color = 0;
glyphname = Cstroke;
layers = (
{
layerId = "849A9C4C-BF7C-40C5-8614-1FD725A2A379";
shapes = (
{
closed = 1;
nodes = (
(379,832,l),
(311,840,l),
(177,-82,l),
(245,-90,l)
);
},
{
ref = C;
}
);
userData = {
com.hugojourdan.ColorFlow = {
"0" = 0;
"1" = 0;
"10" = 0;
"11" = 0;
"2" = 0;
"3" = 0;
"4" = 0;
"5" = 0;
"6" = 0;
"7" = 0;
"8" = 0;
"9" = 0;
};
};
width = 548;
}
);
unicode = 571;
},
{
glyphname = D;
kernLeft = KO_H;
kernRight = KO_D;
layers = (
{
anchors = (
{
name = bottom;
pos = (280,0);
},
{
name = center;
pos = (280,375);
},
{
name = top;
pos = (280,750);
}
);
background = {
shapes = (
{
closed = 1;
nodes = (
(219,0,ls),
(421,0,o),
(520,182,o),
(520,375,cs),
(520,627,o),
(415,750,o),
(219,750,cs),
(60,750,l),
(60,0,l)
);
},
{
closed = 1;
nodes = (
(202,633,l),
(219,633,ls),
(319,633,o),
(365,546,o),
(365,375,cs),
(365,227,o),
(330,120,o),
(223,120,cs),
(202,120,l)
);
}
);
};
layerId = "849A9C4C-BF7C-40C5-8614-1FD725A2A379";
shapes = (
{
closed = 1;
nodes = (
(241,0,ls),
(419,0,o),
(528,133,o),
(528,375,cs),
(528,617,o),
(419,750,o),
(241,750,cs),
(60,750,l),
(60,0,l)
);
},
{
closed = 1;
nodes = (
(207,628,l),
(241,628,ls),
(323,628,o),
(376,555,o),
(376,375,cs),
(376,195,o),
(323,122,o),
(241,122,cs),
(207,122,l)
);
}
);
userData = {
com.hugojourdan.ColorFlow = {
"0" = 0;
"1" = 0;
"10" = 0;
"11" = 0;
"2" = 0;
"3" = 0;
"4" = 0;
"5" = 0;
"6" = 0;
"7" = 0;
"8" = 0;
"9" = 0;
};
};
width = 564;
}
);
metricLeft = H;
metricRight = O;
unicode = 68;
},
{
glyphname = Dcroat;
kernRight = KO_D;
layers = (
{
layerId = "849A9C4C-BF7C-40C5-8614-1FD725A2A379";
shapes = (
{
closed = 1;
nodes = (
(227,0,ls),
(429,0,o),
(527,182,o),
(527,376,cs),
(527,627,o),
(423,750,o),
(227,750,cs),
(68,750,l),
(68,426,l),
(18,426,l),
(18,324,l),
(68,324,l),
(68,0,l)
);
},
{
closed = 1;
nodes = (
(211,324,l),
(301,324,l),
(301,426,l),
(211,426,l),
(211,633,l),
(229,633,ls),
(327,633,o),
(373,546,o),
(373,376,cs),
(373,227,o),
(338,120,o),
(233,120,cs),
(211,120,l)
);
}
);
userData = {
com.hugojourdan.ColorFlow = {
"0" = 0;
"1" = 0;
"10" = 0;
"11" = 0;
"2" = 0;
"3" = 0;
"4" = 0;
"5" = 0;
"6" = 0;
"7" = 0;
"8" = 0;
"9" = 0;
};
};
width = 563;
}
);
metricRight = O;
unicode = 272;
},
{
glyphname = Dhook;
kernRight = KO_D;
layers = (
{
anchors = (
{
name = bottom;
pos = (346,0);
},
{
name = top;
pos = (346,750);
}
);
background = {
shapes = (
{
closed = 1;
nodes = (
(151,531,l),
(134,553,o),
(124,574,o),
(124,597,cs),
(124,627,o),
(141,647,o),
(170,647,cs),
(199,647,l),
(199,750,l),
(186,750,ls),
(81,750,o),
(16,690,o),
(16,596,cs),
(16,550,o),
(32,520,o),
(52,494,c)
);
},
{
closed = 1;
nodes = (
(355,0,ls),
(557,0,o),
(656,182,o),
(656,375,cs),
(656,627,o),
(551,750,o),
(355,750,cs),
(196,750,l),
(196,0,l)
);
},
{
closed = 1;
nodes = (
(338,633,l),
(355,633,ls),
(455,633,o),
(501,546,o),
(501,375,cs),
(501,227,o),
(466,120,o),
(359,120,cs),
(338,120,l)
);
}
);
};
layerId = "849A9C4C-BF7C-40C5-8614-1FD725A2A379";
shapes = (
{
closed = 1;
nodes = (
(355,0,ls),
(557,0,o),
(656,182,o),
(656,375,cs),
(656,627,o),
(551,750,o),
(355,750,cs),
(186,750,ls),
(81,750,o),
(16,690,o),
(16,586,cs),
(16,530,o),
(32,487,o),
(52,461,c),
(151,498,l),
(134,520,o),
(124,540,o),
(124,573,cs),
(124,613,o),
(141,634,o),
(170,634,cs),
(196,634,l),
(196,0,l)
);
},
{
closed = 1;
nodes = (
(338,633,l),
(355,633,ls),
(455,633,o),
(501,546,o),
(501,375,cs),
(501,227,o),
(466,120,o),
(359,120,cs),
(338,120,l)
);
}
);
userData = {
com.hugojourdan.ColorFlow = {
"0" = 0;
"1" = 0;
"10" = 0;
"11" = 0;
"2" = 0;
"3" = 0;
"4" = 0;
"5" = 0;
"6" = 0;
"7" = 0;
"8" = 0;
"9" = 0;
};
};
width = 692;
}
);
metricLeft = Bhook;
metricRight = O;
unicode = 394;
},
{
glyphname = E;
kernLeft = KO_H;
kernRight = KO_E;
layers = (
{
anchors = (
{
name = bottom;
pos = (259,0);
},
{
name = ogonek;
pos = (470,0);
},
{
name = top;
pos = (259,750);
},
{
name = topleft;
pos = (0,750);
}
);
background = {
shapes = (
{
closed = 1;
nodes = (
(456,0,l),
(456,122,l),
(207,122,l),
(207,326,l),
(387,326,l),
(387,446,l),
(207,446,l),
(207,628,l),
(451,628,l),
(451,750,l),
(60,750,l),
(60,0,l)
);
}
);
};
layerId = "849A9C4C-BF7C-40C5-8614-1FD725A2A379";
shapes = (
{
closed = 1;
nodes = (
(449,0,l),
(463,122,l),
(207,122,l),
(207,326,l),
(382,326,l),
(397,446,l),
(207,446,l),
(207,628,l),
(443,628,l),
(458,750,l),
(60,750,l),
(60,0,l)
);
}
);
userData = {
com.hugojourdan.ColorFlow = {
"0" = 0;
"1" = 0;
"10" = 0;
"11" = 0;
"2" = 0;
"3" = 0;
"4" = 0;
"5" = 0;
"6" = 0;
"7" = 0;
"8" = 0;
"9" = 0;
};
};
width = 493;
}
);
metricLeft = H;
unicode = 69;
},
{
glyphname = Emacronacute;
kernLeft = KO_H;
layers = (
{
background = {
shapes = (
{
closed = 1;
nodes = (
(386,994,l),
(322,1118,l),
(132,978,l),
(164,913,l)
);
},
{
ref = E;
},
{
alignment = -1;
pos = (259,-42);
ref = macroncomb.case;
}
);
};
layerId = "849A9C4C-BF7C-40C5-8614-1FD725A2A379";
shapes = (
{
ref = E;
},
{
pos = (259,187);
ref = macroncomb_acutecomb;
}
);
userData = {
com.hugojourdan.ColorFlow = {
"0" = 0;
"1" = 0;
"10" = 0;
"11" = 0;
"2" = 0;
"3" = 0;
"4" = 0;
"5" = 0;
"6" = 0;
"7" = 0;
"8" = 0;
"9" = 0;
};
};
width = 493;
}
);
unicode = 7702;
},
{
glyphname = Emacrongrave;
layers = (
{
background = {
shapes = (
{
closed = 1;
nodes = (
(386,978,l),
(196,1118,l),
(132,994,l),
(354,913,l)
);
},
{
ref = E;
},
{
alignment = -1;
pos = (259,-42);
ref = macroncomb.case;
}
);
};
layerId = "849A9C4C-BF7C-40C5-8614-1FD725A2A379";
shapes = (
{
ref = E;
},
{
pos = (259,187);
ref = macroncomb_gravecomb;
}
);
userData = {
com.hugojourdan.ColorFlow = {
"0" = 0;
"1" = 0;
"10" = 0;
"11" = 0;
"2" = 0;
"3" = 0;
"4" = 0;
"5" = 0;
"6" = 0;
"7" = 0;
"8" = 0;
"9" = 0;
};
};
width = 493;
}
);
unicode = 7700;
},
{
color = 4;
glyphname = Eopen;
layers = (
{
anchors = (
{
name = bottom;
pos = (257,0);
},
{
name = top;
pos = (257,750);
}
);
background = {
shapes = (
{
closed = 1;
nodes = (
(385,-14,o),
(472,63,o),
(475,192,c),
(356,217,l),
(354,152,o),
(324,104,o),
(261,104,cs),
(186,104,o),
(165,155,o),
(165,210,cs),
(165,292,o),
(219,326,o),
(312,326,c),
(312,434,l),
(226,434,o),
(178,467,o),
(178,551,cs),
(178,611,o),
(208,647,o),
(261,647,cs),
(320,647,o),
(346,598,o),
(350,531,c),
(468,558,l),
(458,692,o),
(384,764,o),
(255,764,cs),
(129,764,o),
(38,696,o),
(38,555,cs),
(38,463,o),
(84,387,o),
(208,368,c),
(206,395,l),
(86,376,o),
(28,304,o),
(28,207,cs),
(28,86,o),
(110,-14,o),
(259,-14,cs)
);
}
);
};
layerId = "849A9C4C-BF7C-40C5-8614-1FD725A2A379";
shapes = (
{
closed = 1;
nodes = (
(385,-14,o),
(475,66,o),
(475,192,c),
(356,217,l),
(356,156,o),
(324,108,o),
(261,108,cs),
(186,108,o),
(165,159,o),
(165,210,cs),
(165,292,o),
(219,326,o),
(312,326,c),
(312,434,l),
(226,434,o),
(178,467,o),
(178,551,cs),
(178,611,o),
(208,647,o),
(261,647,cs),
(320,647,o),
(346,598,o),
(350,531,c),
(468,558,l),
(458,692,o),
(384,764,o),
(255,764,cs),
(129,764,o),
(38,696,o),
(38,555,cs),
(38,463,o),
(84,387,o),
(208,368,c),
(206,395,l),
(86,376,o),
(28,304,o),
(28,207,cs),
(28,86,o),
(110,-14,o),
(259,-14,cs)
);
}
);
userData = {
com.hugojourdan.ColorFlow = {
"0" = 0;
"1" = 0;
"10" = 0;
"11" = 0;
"2" = 0;
"3" = 0;
"4" = 0;
"5" = 0;
"6" = 0;
"7" = 0;
"8" = 0;
"9" = 0;
};
};
width = 505;
}
);
metricLeft = "=|B";
metricRight = C;
unicode = 400;
},
{
glyphname = Ereversed;
kernRight = KO_H;
layers = (
{
anchors = (
{
name = bottom;
pos = (247,0);
},
{
name = top;
pos = (247,750);
}
);
layerId = "849A9C4C-BF7C-40C5-8614-1FD725A2A379";
shapes = (
{
closed = 1;
nodes = (
(433,0,l),
(433,750,l),
(51,750,l),
(36,628,l),
(289,628,l),
(289,446,l),
(105,446,l),
(105,326,l),
(289,326,l),
(289,122,l),
(44,122,l),
(30,0,l)
);
}
);
userData = {
com.hugojourdan.ColorFlow = {
"0" = 0;
"1" = 0;
"10" = 0;
"11" = 0;
"2" = 0;
"3" = 0;
"4" = 0;
"5" = 0;
"6" = 0;
"7" = 0;
"8" = 0;
"9" = 0;
};
};
width = 493;
}
);
metricLeft = "=|E";
metricRight = "=|H";
unicode = 398;
},
{
color = 8;
glyphname = Esh;
layers = (
{
background = {
shapes = (
{
closed = 1;
nodes = (
(429,0,l),
(443,122,l),
(184,122,l),
(184,326,l),
(362,326,l),
(377,446,l),
(184,446,l),
(184,628,l),
(423,628,l),
(438,750,l),
(40,750,l),
(40,0,l)
);
}
);
};
layerId = "849A9C4C-BF7C-40C5-8614-1FD725A2A379";
shapes = (
{
closed = 1;
nodes = (
(429,0,l),
(443,122,l),
(132,122,l),
(172,67,l),
(353,375,l),
(172,683,l),
(132,628,l),
(423,628,l),
(438,750,l),
(40,750,l),
(40,638,l),
(195,375,l),
(40,112,l),
(40,0,l)
);
}
);
userData = {
com.hugojourdan.ColorFlow = {
"0" = 0;
"1" = 0;
"10" = 0;
"11" = 0;
"2" = 0;
"3" = 0;
"4" = 0;
"5" = 0;
"6" = 0;
"7" = 0;
"8" = 0;
"9" = 0;
};
};
width = 471;
}
);
unicode = 425;
},
{
color = 0;
glyphname = Estroke;
layers = (
{
layerId = "849A9C4C-BF7C-40C5-8614-1FD725A2A379";
shapes = (
{
closed = 1;
nodes = (
(449,0,l),
(463,122,l),
(204,122,l),
(204,326,l),
(409,326,l),
(424,446,l),
(204,446,l),
(204,628,l),
(443,628,l),
(458,750,l),
(60,750,l),
(60,0,l)
);
},
{
closed = 1;
nodes = (
(417,832,l),
(349,840,l),
(215,-82,l),
(283,-90,l)
);
}
);
userData = {
com.hugojourdan.ColorFlow = {
"0" = 0;
"1" = 0;
"10" = 0;
"11" = 0;
"2" = 0;
"3" = 0;
"4" = 0;
"5" = 0;
"6" = 0;
"7" = 0;
"8" = 0;
"9" = 0;
};
};
width = 493;
}
);
metricLeft = H;
metricRight = E;
unicode = 582;
},
{
glyphname = Schwa;
kernRight = KO_O;
layers = (
{
anchors = (
{
name = bottom;
pos = (267,0);
},
{
name = top;
pos = (267,750);
}
);
background = {
shapes = (
{
closed = 1;
nodes = (
(454,-16,o),
(498,190,o),
(498,383,cs),
(498,628,o),
(431,764,o),
(262,764,cs),
(138,764,o),
(65,688,o),
(42,553,c),
(176,523,l),
(184,590,o),
(209,641,o),
(262,641,cs),
(345,641,o),
(351,505,o),
(351,403,c),
(39,403,l),
(37,382,o),
(36,360,o),
(36,338,cs),
(36,139,o),
(82,-16,o),
(268,-16,cs)
);
},
{
closed = 1;
nodes = (
(197,109,o),
(182,183,o),
(184,296,c),
(349,296,l),
(347,187,o),
(327,109,o),
(268,109,cs)
);
}
);
};
guides = (
{
angle = -12;
pos = (41,557);
}
);
layerId = "849A9C4C-BF7C-40C5-8614-1FD725A2A379";
shapes = (
{
closed = 1;
nodes = (
(454,-16,o),
(498,190,o),
(498,383,cs),
(498,628,o),
(431,764,o),
(262,764,cs),
(138,764,o),
(65,688,o),
(42,553,c),
(176,523,l),
(184,590,o),
(209,641,o),
(262,641,cs),
(345,641,o),
(351,505,o),
(351,403,c),
(39,403,l),
(37,382,o),
(36,360,o),
(36,338,cs),
(36,139,o),
(82,-16,o),
(268,-16,cs)
);
},
{
closed = 1;
nodes = (
(197,109,o),
(184,183,o),
(184,296,c),
(349,296,l),
(349,187,o),
(327,109,o),
(265,109,cs)
);
}
);
userData = {
com.hugojourdan.ColorFlow = {
"0" = 0;
"1" = 0;
"10" = 0;
"11" = 0;
"2" = 0;
"3" = 0;
"4" = 0;
"5" = 0;
"6" = 0;
"7" = 0;
"8" = 0;
"9" = 0;
};
};
width = 534;
}
);
metricLeft = O;
metricRight = O;
unicode = 399;
},
{
glyphname = Ezh;
layers = (
{
anchors = (
{
name = bottom;
pos = (248,0);
},
{
name = top;
pos = (248,750);
}
);
background = {
shapes = (
{
closed = 1;
nodes = (
(369,-154,o),
(451,-54,o),
(451,117,cs),
(451,264,o),
(393,366,o),
(273,385,c),
(157,389,l),
(157,301,l),
(249,300,o),
(314,252,o),
(314,120,cs),
(314,15,o),
(293,-36,o),
(231,-36,cs),
(177,-36,o),
(151,12,o),
(149,117,c),
(20,92,l),
(23,-77,o),
(110,-154,o),
(228,-154,cs)
);
},
{
closed = 1;
nodes = (
(438,638,l),
(438,750,l),
(56,750,l),
(41,628,l),
(357,628,l),
(313,680,l),
(157,396,l),
(157,369,l),
(260,320,l)
);
}
);
};
layerId = "849A9C4C-BF7C-40C5-8614-1FD725A2A379";
shapes = (
{
closed = 1;
nodes = (
(369,-154,o),
(451,-54,o),
(451,117,cs),
(451,272,o),
(386,378,o),
(251,388,c),
(263,326,l),
(438,638,l),
(438,750,l),
(56,750,l),
(41,628,l),
(347,628,l),
(314,683,l),
(157,396,l),
(157,301,l),
(249,301,o),
(314,252,o),
(314,120,cs),
(314,15,o),
(293,-36,o),
(231,-36,cs),
(177,-36,o),
(151,12,o),
(151,117,c),
(20,92,l),
(20,-73,o),
(110,-154,o),
(228,-154,cs)
);
}
);
userData = {
com.hugojourdan.ColorFlow = {
"0" = 0;
"1" = 0;
"10" = 0;
"11" = 0;
"2" = 0;
"3" = 0;
"4" = 0;
"5" = 0;
"6" = 0;
"7" = 0;
"8" = 0;
"9" = 0;
};
};
width = 483;
}
);
unicode = 439;
},
{
glyphname = Ezhreversed;
layers = (
{
anchors = (
{
name = bottom;
pos = (242,0);
},
{
name = top;
pos = (242,750);
}
);
background = {
shapes = (
{
closed = 1;
nodes = (
(373,-154,o),
(460,-77,o),
(463,92,c),
(334,117,l),
(332,12,o),
(312,-36,o),
(257,-36,cs),
(200,-36,o),
(169,15,o),
(169,120,cs),
(169,252,o),
(234,300,o),
(326,301,c),
(326,389,l),
(210,385,l),
(90,366,o),
(32,264,o),
(32,117,cs),
(32,-54,o),
(114,-154,o),
(255,-154,cs)
);
},
{
closed = 1;
nodes = (
(326,369,l),
(326,396,l),
(170,680,l),
(126,628,l),
(429,628,l),
(443,750,l),
(45,750,l),
(45,638,l),
(223,320,l)
);
}
);
};
layerId = "849A9C4C-BF7C-40C5-8614-1FD725A2A379";
shapes = (
{
closed = 1;
nodes = (
(373,-154,o),
(463,-73,o),
(463,92,c),
(334,117,l),
(334,15,o),
(312,-36,o),
(257,-36,cs),
(200,-36,o),
(169,15,o),
(169,120,cs),
(169,252,o),
(234,301,o),
(326,301,c),
(326,396,l),
(169,683,l),
(136,628,l),
(429,628,l),
(443,750,l),
(45,750,l),
(45,638,l),
(220,326,l),
(232,388,l),
(97,378,o),
(32,272,o),
(32,117,cs),
(32,-54,o),
(114,-154,o),
(255,-154,cs)
);
}
);
userData = {
com.hugojourdan.ColorFlow = {
"0" = 0;
"1" = 0;
"10" = 0;
"11" = 0;
"2" = 0;
"3" = 0;
"4" = 0;
"5" = 0;
"6" = 0;
"7" = 0;
"8" = 0;
"9" = 0;
};
};
width = 483;
}
);
unicode = 440;
},
{
glyphname = F;
kernLeft = KO_H;
kernRight = KO_F;
layers = (
{
anchors = (
{
name = bottom;
pos = (220,0);
},
{
name = top;
pos = (260,750);
}
);
background = {
shapes = (
{
closed = 1;
nodes = (
(207,0,l),
(207,304,l),
(387,304,l),
(387,426,l),
(207,426,l),
(207,628,l),
(443,628,l),
(443,750,l),
(60,750,l),
(60,0,l)
);
}
);
};
guides = (
{
pos = (-3,438);
},
{
angle = 3;
pos = (207,0);
}
);
layerId = "849A9C4C-BF7C-40C5-8614-1FD725A2A379";
shapes = (
{
closed = 1;
nodes = (
(207,0,l),
(207,313,l),
(379,313,l),
(394,435,l),
(207,435,l),
(207,628,l),
(435,628,l),
(450,750,l),
(60,750,l),
(60,0,l)
);
}
);
userData = {
com.hugojourdan.ColorFlow = {
"0" = 0;
"1" = 0;
"10" = 0;
"11" = 0;
"2" = 0;
"3" = 0;
"4" = 0;
"5" = 0;
"6" = 0;
"7" = 0;
"8" = 0;
"9" = 0;
};
};
width = 474;
}
);
metricLeft = H;
unicode = 70;
},
{
glyphname = Fhook;
layers = (
{
layerId = "849A9C4C-BF7C-40C5-8614-1FD725A2A379";
shapes = (
{
closed = 1;
nodes = (
(148,-173,o),
(207,-114,o),
(207,0,cs),
(207,313,l),
(372,313,l),
(372,435,l),
(207,435,l),
(207,628,l),
(438,628,l),
(453,750,l),
(63,750,l),
(63,13,ls),
(63,-30,o),
(52,-47,o),
(26,-47,cs),
(17,-47,o),
(10,-46,o),
(2,-43,c),
(-10,-159,l),
(13,-167,o),
(34,-173,o),
(62,-173,cs)
);
}
);
userData = {
com.hugojourdan.ColorFlow = {
"0" = 0;
"1" = 0;
"10" = 0;
"11" = 0;
"2" = 0;
"3" = 0;
"4" = 0;
"5" = 0;
"6" = 0;
"7" = 0;
"8" = 0;
"9" = 0;
};
};
width = 477;
}
);
metricRight = F;
unicode = 401;
},
{
glyphname = G;
kernLeft = KO_O;
kernRight = KO_G;
layers = (
{
anchors = (
{
name = bottom;
pos = (294,0);
},
{
name = top;
pos = (295,750);
}
);
background = {
shapes = (
{
closed = 1;
nodes = (
(356,-14,o),
(418,44,o),
(437,114,c),
(421,142,l),
(421,0,l),
(511,0,l),
(511,380,l),
(284,380,l),
(284,262,l),
(369,262,l),
(369,229,ls),
(369,169,o),
(348,108,o),
(284,108,cs),
(209,108,o),
(188,191,o),
(188,358,cs),
(188,509,o),
(205,642,o),
(288,642,cs),
(350,642,o),
(365,569,o),
(370,489,c),
(505,510,l),
(496,665,o),
(428,764,o),
(288,764,cs),
(110,764,o),
(36,603,o),
(36,370,cs),
(36,113,o),
(126,-14,o),
(263,-14,cs)
);
}
);
};
layerId = "849A9C4C-BF7C-40C5-8614-1FD725A2A379";
shapes = (
{
closed = 1;
nodes = (
(342,-14,o),
(398,30,o),
(424,80,c),
(443,-9,l),
(511,0,l),
(511,380,l),
(301,380,l),
(287,268,l),
(379,268,l),
(379,228,ls),
(379,178,o),
(356,112,o),
(289,112,cs),
(198,112,o),
(188,238,o),
(188,361,cs),
(188,509,o),
(201,636,o),
(286,636,cs),
(349,636,o),
(363,569,o),
(368,492,c),
(505,521,l),
(497,662,o),
(428,764,o),
(291,764,cs),
(110,764,o),
(36,609,o),
(36,363,cs),
(36,114,o),
(125,-14,o),
(269,-14,cs)
);
}
);
userData = {
com.hugojourdan.ColorFlow = {
"0" = 0;
"1" = 0;
"10" = 0;
"11" = 0;
"2" = 0;
"3" = 0;
"4" = 0;
"5" = 0;
"6" = 0;
"7" = 0;
"8" = 0;
"9" = 0;
};
};
width = 569;
}
);
metricLeft = O;
unicode = 71;
},
{
glyphname = Ghook;
layers = (
{
anchors = (
{
name = bottom;
pos = (287,0);
},
{
name = top;
pos = (288,750);
}
);
background = {
shapes = (
{
closed = 1;
nodes = (
(342,-14,o),
(398,30,o),
(424,80,c),
(443,-17,l),
(511,-8,l),
(511,374,l),
(300,374,l),
(286,262,l),
(379,262,l),
(379,228,ls),
(379,178,o),
(356,107,o),
(289,107,cs),
(198,107,o),
(184,238,o),
(184,361,cs),
(184,509,o),
(201,641,o),
(286,641,cs),
(349,641,o),
(367,569,o),
(373,493,c),
(505,521,l),
(463,658,o),
(428,764,o),
(291,764,cs),
(110,764,o),
(36,609,o),
(36,363,cs),
(36,114,o),
(125,-14,o),
(269,-14,cs)
);
},
{
closed = 1;
nodes = (
(600,854,o),
(567,870,o),
(525,870,cs),
(437,870,o),
(389,805,o),
(389,730,cs),
(389,681,o),
(392,652,o),
(399,630,c),
(505,521,l),
(464,709,o),
(480,752,o),
(529,752,cs),
(549,752,o),
(561,744,o),
(578,725,c),
(615,834,l)
);
}
);
};
layerId = "849A9C4C-BF7C-40C5-8614-1FD725A2A379";
shapes = (
{
closed = 1;
nodes = (
(342,-14,o),
(398,30,o),
(424,80,c),
(443,-9,l),
(511,0,l),
(511,380,l),
(301,380,l),
(287,268,l),
(379,268,l),
(379,228,ls),
(379,178,o),
(356,112,o),
(289,112,cs),
(198,112,o),
(188,238,o),
(188,361,cs),
(188,509,o),
(201,636,o),
(286,636,cs),
(349,636,o),
(363,570,o),
(368,492,c),
(505,521,l),
(489,595,o),
(482,646,o),
(482,691,cs),
(482,756,o),
(499,772,o),
(529,772,cs),
(549,772,o),
(561,764,o),
(578,745,c),
(615,854,l),
(600,874,o),
(567,890,o),
(525,890,cs),
(437,890,o),
(389,825,o),
(389,732,cs),
(389,720,o),
(390,707,o),
(393,695,c),
(416,713,l),
(389,746,o),
(349,764,o),
(291,764,cs),
(110,764,o),
(36,609,o),
(36,363,cs),
(36,114,o),
(125,-14,o),
(269,-14,cs)
);
}
);
userData = {
com.hugojourdan.ColorFlow = {
"0" = 0;
"1" = 0;
"10" = 0;
"11" = 0;
"2" = 0;
"3" = 0;
"4" = 0;
"5" = 0;
"6" = 0;
"7" = 0;
"8" = 0;
"9" = 0;
};
};
width = 565;
}
);
metricLeft = O;
unicode = 403;
},
{
glyphname = Glottalstop;
layers = (
{
background = {
shapes = (
{
closed = 1;
nodes = (
(252,243,l),
(242,257,o),
(236,273,o),
(236,296,cs),
(236,346,o),
(272,380,o),
(311,417,cs),
(369,472,o),
(391,516,o),
(391,582,cs),
(391,691,o),
(304,764,o),
(199,764,cs),
(85,764,o),
(7,693,o),
(4,573,c),
(123,548,l),
(128,601,o),
(143,648,o),
(197,648,cs),
(228,648,o),
(255,620,o),
(255,572,cs),
(255,519,o),
(220,493,o),
(170,445,cs),
(132,408,o),
(104,367,o),
(104,308,cs),
(104,273,o),
(114,238,o),
(129,217,c)
);
}
);
};
layerId = "849A9C4C-BF7C-40C5-8614-1FD725A2A379";
shapes = (
{
closed = 1;
nodes = (
(297,12,l),
(283,32,o),
(272,54,o),
(272,97,cs),
(272,157,o),
(289,189,o),
(371,271,cs),
(449,349,o),
(498,431,o),
(498,524,cs),
(498,679,o),
(403,764,o),
(278,764,cs),
(141,764,o),
(24,678,o),
(24,518,c),
(156,488,l),
(164,593,o),
(202,641,o),
(269,641,cs),
(327,641,o),
(351,604,o),
(351,539,cs),
(351,454,o),
(310,389,o),
(232,311,cs),
(175,254,o),
(129,184,o),
(129,101,cs),
(129,51,o),
(142,12,o),
(163,-18,c)
);
}
);
userData = {
com.hugojourdan.ColorFlow = {
"0" = 0;
"1" = 0;
"10" = 0;
"11" = 0;
"2" = 0;
"3" = 0;
"4" = 0;
"5" = 0;
"6" = 0;
"7" = 0;
"8" = 0;
"9" = 0;
};
};
width = 532;
}
);
unicode = 577;
},
{
glyphname = Gstroke;
kernLeft = KO_O;
layers = (
{
layerId = "849A9C4C-BF7C-40C5-8614-1FD725A2A379";
shapes = (
{
closed = 1;
nodes = (
(342,-14,o),
(398,30,o),
(424,80,c),
(443,-9,l),
(511,0,l),
(511,426,l),
(300,426,l),
(286,314,l),
(379,314,l),
(379,208,ls),
(379,168,o),
(356,107,o),
(289,107,cs),
(198,107,o),
(188,238,o),
(188,361,cs),
(188,509,o),
(201,636,o),
(286,636,cs),
(349,636,o),
(363,568,o),
(368,492,c),
(505,521,l),
(497,662,o),
(428,764,o),
(291,764,cs),
(110,764,o),
(36,609,o),
(36,363,cs),
(36,114,o),
(125,-14,o),
(269,-14,cs)
);
},
{
closed = 1;
nodes = (
(563,193,l),
(569,258,l),
(291,258,l),
(291,193,l)
);
}
);
userData = {
com.hugojourdan.ColorFlow = {
"0" = 0;
"1" = 0;
"10" = 0;
"11" = 0;
"2" = 0;
"3" = 0;
"4" = 0;
"5" = 0;
"6" = 0;
"7" = 0;
"8" = 0;
"9" = 0;
};
};
width = 569;
}
);
metricLeft = O;
unicode = 484;
},
{
glyphname = H;
kernLeft = KO_H;
kernRight = KO_H;
layers = (
{
anchors = (
{
name = bottom;
pos = (282,0);
},
{
name = center;
pos = (282,595);
},
{
name = top;
pos = (282,750);
},
{
name = topleft;
pos = (5,750);
}
);
background = {
shapes = (
{
closed = 1;
nodes = (
(207,0,l),
(207,304,l),
(365,304,l),
(365,0,l),
(512,0,l),
(512,750,l),
(365,750,l),
(365,426,l),
(207,426,l),
(207,750,l),
(60,750,l),
(60,0,l)
);
}
);
};
layerId = "849A9C4C-BF7C-40C5-8614-1FD725A2A379";
shapes = (
{
closed = 1;
nodes = (
(207,0,l),
(207,304,l),
(365,304,l),
(365,0,l),
(512,0,l),
(512,750,l),
(365,750,l),
(365,426,l),
(207,426,l),
(207,750,l),
(60,750,l),
(60,0,l)
);
}
);
userData = {
com.hugojourdan.ColorFlow = {
"0" = 0;
"1" = 0;
"10" = 0;
"11" = 0;
"2" = 0;
"3" = 0;
"4" = 0;
"5" = 0;
"6" = 0;
"7" = 0;
"8" = 0;
"9" = 0;
};
};
width = 572;
}
);
metricRight = "=|";
unicode = 72;
},
{
glyphname = Hbar;
layers = (
{
background = {
shapes = (
{
closed = 1;
nodes = (
(560,550,l),
(571,639,l),
(13,639,l),
(13,550,l)
);
}
);
};
guides = (
{
angle = 83;
pos = (573,656);
}
);
layerId = "849A9C4C-BF7C-40C5-8614-1FD725A2A379";
shapes = (
{
ref = H;
},
{
pos = (282,-17);
ref = strokelongcomb.case;
}
);
userData = {
com.hugojourdan.ColorFlow = {
"0" = 0;
"1" = 0;
"10" = 0;
"11" = 0;
"2" = 0;
"3" = 0;
"4" = 0;
"5" = 0;
"6" = 0;
"7" = 0;
"8" = 0;
"9" = 0;
};
};
width = 572;
}
);
unicode = 294;
},
{
glyphname = Heng;
layers = (
{
background = {
shapes = (
{
closed = 1;
nodes = (
(479,-173,o),
(522,-88,o),
(522,10,cs),
(522,750,l),
(375,750,l),
(375,426,l),
(217,426,l),
(217,750,l),
(70,750,l),
(70,0,l),
(217,0,l),
(217,304,l),
(375,304,l),
(375,13,ls),
(375,-30,o),
(364,-47,o),
(338,-47,cs),
(329,-47,o),
(322,-46,o),
(314,-43,c),
(302,-159,l),
(325,-167,o),
(346,-173,o),
(377,-173,cs)
);
}
);
};
layerId = "849A9C4C-BF7C-40C5-8614-1FD725A2A379";
shapes = (
{
closed = 1;
nodes = (
(464,-168,o),
(522,-96,o),
(522,0,cs),
(522,750,l),
(375,750,l),
(375,426,l),
(217,426,l),
(217,750,l),
(70,750,l),
(70,0,l),
(217,0,l),
(217,304,l),
(375,304,l),
(375,19,ls),
(375,-29,o),
(364,-52,o),
(323,-52,cs),
(309,-52,o),
(299,-50,o),
(288,-46,c),
(275,-154,l),
(306,-164,o),
(334,-168,o),
(364,-168,cs)
);
}
);
userData = {
com.hugojourdan.ColorFlow = {
"0" = 0;
"1" = 0;
"10" = 0;
"11" = 0;
"2" = 0;
"3" = 0;
"4" = 0;
"5" = 0;
"6" = 0;
"7" = 0;
"8" = 0;
"9" = 0;
};
};
width = 592;
}
);
unicode = 42790;
},
{
glyphname = Hhook;
layers = (
{
layerId = "849A9C4C-BF7C-40C5-8614-1FD725A2A379";
shapes = (
{
closed = 1;
nodes = (
(343,0,l),
(343,304,l),
(501,304,l),
(501,0,l),
(648,0,l),
(648,750,l),
(501,750,l),
(501,426,l),
(343,426,l),
(343,750,l),
(186,750,ls),
(81,750,o),
(16,690,o),
(16,586,cs),
(16,530,o),
(32,487,o),
(52,461,c),
(151,498,l),
(134,520,o),
(124,544,o),
(124,575,cs),
(124,617,o),
(141,634,o),
(170,634,cs),
(196,634,l),
(196,0,l)
);
}
);
userData = {
com.hugojourdan.ColorFlow = {
"0" = 0;
"1" = 0;
"10" = 0;
"11" = 0;
"2" = 0;
"3" = 0;
"4" = 0;
"5" = 0;
"6" = 0;
"7" = 0;
"8" = 0;
"9" = 0;
};
};
width = 708;
}
);
metricLeft = Bhook;
metricRight = H;
unicode = 42922;
},
{
glyphname = Hturned;
layers = (
{
anchors = (
{
name = bottom;
pos = (278,0);
},
{
name = top;
pos = (278,750);
}
);
layerId = "849A9C4C-BF7C-40C5-8614-1FD725A2A379";
shapes = (
{
closed = 1;
nodes = (
(502,0,l),
(502,750,l),
(355,750,l),
(355,426,l),
(197,426,l),
(197,750,l),
(50,750,l),
(50,304,l),
(355,304,l),
(355,0,l)
);
}
);
userData = {
com.hugojourdan.ColorFlow = {
"0" = 0;
"1" = 0;
"10" = 0;
"11" = 0;
"2" = 0;
"3" = 0;
"4" = 0;
"5" = 0;
"6" = 0;
"7" = 0;
"8" = 0;
"9" = 0;
};
};
width = 562;
}
);
metricRight = H;
unicode = 42893;
},
{
glyphname = I;
kernLeft = KO_H;
kernRight = KO_H;
layers = (
{
anchors = (
{
name = bottom;
pos = (134,0);
},
{
name = ogonek;
pos = (262,5);
},
{
name = top;
pos = (134,750);
},
{
name = topleft;
pos = (0,750);
}
);
background = {
shapes = (
{
closed = 1;
nodes = (
(207,0,l),
(207,750,l),
(60,750,l),
(60,0,l)
);
}
);
};
layerId = "849A9C4C-BF7C-40C5-8614-1FD725A2A379";
shapes = (
{
closed = 1;
nodes = (
(207,0,l),
(207,750,l),
(60,750,l),
(60,0,l)
);
}
);
userData = {
com.hugojourdan.ColorFlow = {
"0" = 0;
"1" = 0;
"10" = 0;
"11" = 0;
"2" = 0;
"3" = 0;
"4" = 0;
"5" = 0;
"6" = 0;
"7" = 0;
"8" = 0;
"9" = 0;
};
};
width = 267;
}
);
metricLeft = H;
metricRight = H;
unicode = 73;
},
{
glyphname = IJ;
kernRight = KO_U;
layers = (
{
background = {
shapes = (
{
closed = 1;
nodes = (
(210,247,l),
(210,750,l),
(63,750,l),
(63,247,l)
);
},
{
closed = 1;
nodes = (
(413,-14,o),
(496,83,o),
(496,235,cs),
(496,750,l),
(349,750,l),
(349,262,ls),
(349,169,o),
(314,117,o),
(228,117,cs),
(172,117,o),
(120,130,o),
(77,150,c),
(50,23,l),
(109,-3,o),
(162,-14,o),
(243,-14,cs)
);
}
);
};
layerId = "849A9C4C-BF7C-40C5-8614-1FD725A2A379";
shapes = (
{
closed = 1;
nodes = (
(403,-14,o),
(496,75,o),
(496,235,cs),
(496,750,l),
(349,750,l),
(349,246,ls),
(349,151,o),
(304,117,o),
(223,117,cs),
(172,117,o),
(130,130,o),
(87,150,c),
(60,23,l),
(119,-3,o),
(162,-14,o),
(238,-14,cs)
);
},
{
closed = 1;
nodes = (
(220,247,l),
(220,750,l),
(73,750,l),
(73,247,l)
);
}
);
userData = {
com.hugojourdan.ColorFlow = {
"0" = 0;
"1" = 0;
"10" = 0;
"11" = 0;
"2" = 0;
"3" = 0;
"4" = 0;
"5" = 0;
"6" = 0;
"7" = 0;
"8" = 0;
"9" = 0;
};
};
width = 552;
}
);
metricLeft = H;
metricRight = U;
unicode = 306;
},
{
glyphname = Iotaafrican;
layers = (
{
anchors = (
{
name = bottom;
pos = (199,0);
},
{
name = top;
pos = (129,750);
}
);
background = {
shapes = (
{
closed = 1;
nodes = (
(277,-13,o),
(298,-8,o),
(321,3,c),
(309,124,l),
(301,120,o),
(292,118,o),
(279,118,cs),
(258,118,o),
(246,130,o),
(246,162,cs),
(246,750,l),
(99,750,l),
(99,160,ls),
(99,62,o),
(145,-13,o),
(243,-13,cs)
);
}
);
};
layerId = "849A9C4C-BF7C-40C5-8614-1FD725A2A379";
shapes = (
{
closed = 1;
nodes = (
(267,-14,o),
(295,-10,o),
(329,5,c),
(314,124,l),
(295,114,o),
(280,110,o),
(258,110,cs),
(211,110,o),
(202,138,o),
(202,180,cs),
(202,750,l),
(55,750,l),
(55,176,ls),
(55,60,o),
(110,-14,o),
(227,-14,cs)
);
}
);
userData = {
com.hugojourdan.ColorFlow = {
"0" = 0;
"1" = 0;
"10" = 0;
"11" = 0;
"2" = 0;
"3" = 0;
"4" = 0;
"5" = 0;
"6" = 0;
"7" = 0;
"8" = 0;
"9" = 0;
};
};
width = 343;
}
);
metricLeft = "=|J";
metricRight = "=|J";
unicode = 406;
},
{
glyphname = J;
kernLeft = KO_J;
kernRight = KO_U;
layers = (
{
anchors = (
{
name = bottom;
pos = (189,0);
},
{
name = top;
pos = (220,750);
}
);
background = {
shapes = (
{
closed = 1;
nodes = (
(224,-14,o),
(289,55,o),
(289,176,cs),
(289,750,l),
(142,750,l),
(142,175,ls),
(142,128,o),
(117,110,o),
(75,110,cs),
(58,110,o),
(41,112,o),
(22,118,c),
(4,2,l),
(37,-11,o),
(67,-14,o),
(107,-14,cs)
);
}
);
};
layerId = "849A9C4C-BF7C-40C5-8614-1FD725A2A379";
shapes = (
{
closed = 1;
nodes = (
(233,-14,o),
(288,60,o),
(288,176,cs),
(288,750,l),
(141,750,l),
(141,180,ls),
(141,138,o),
(132,110,o),
(85,110,cs),
(63,110,o),
(48,114,o),
(29,124,c),
(14,5,l),
(48,-10,o),
(76,-14,o),
(116,-14,cs)
);
}
);
userData = {
com.hugojourdan.ColorFlow = {
"0" = 0;
"1" = 0;
"10" = 0;
"11" = 0;
"2" = 0;
"3" = 0;
"4" = 0;
"5" = 0;
"6" = 0;
"7" = 0;
"8" = 0;
"9" = 0;
};
};
width = 343;
}
);
unicode = 74;
},
{
color = 0;
glyphname = Jcrossedtail;
layers = (
{
background = {
shapes = (
{
closed = 1;
nodes = (
(353,-14,o),
(408,60,o),
(408,176,cs),
(408,750,l),
(262,750,l),
(262,192,ls),
(262,140,o),
(253,110,o),
(219,110,c),
(220,-14,l)
);
},
{
closed = 1;
nodes = (
(219,110,l),
(185,110,o),
(168,139,o),
(168,201,cs),
(168,271,o),
(215,322,o),
(279,322,c),
(280,446,l),
(127,446,o),
(32,341,o),
(32,201,cs),
(32,69,o),
(87,-14,o),
(220,-14,c)
);
},
{
closed = 1;
nodes = (
(478,423,l),
(444,438,o),
(416,442,o),
(376,442,c),
(407,318,l),
(429,318,o),
(444,314,o),
(463,304,c)
);
}
);
};
layerId = "849A9C4C-BF7C-40C5-8614-1FD725A2A379";
shapes = (
{
closed = 1;
nodes = (
(343,-14,o),
(409,70,o),
(409,186,cs),
(409,750,l),
(262,750,l),
(262,192,ls),
(262,140,o),
(253,110,o),
(219,110,cs),
(185,110,o),
(168,139,o),
(168,201,cs),
(168,271,o),
(215,322,o),
(280,322,c),
(280,446,l),
(127,446,o),
(32,341,o),
(32,201,cs),
(32,69,o),
(87,-14,o),
(220,-14,cs)
);
},
{
closed = 1;
nodes = (
(479,423,l),
(445,438,o),
(417,442,o),
(377,442,c),
(408,318,l),
(430,318,o),
(445,314,o),
(464,304,c)
);
}
);
userData = {
com.hugojourdan.ColorFlow = {
"0" = 0;
"1" = 0;
"10" = 0;
"11" = 0;
"2" = 0;
"3" = 0;
"4" = 0;
"5" = 0;
"6" = 0;
"7" = 0;
"8" = 0;
"9" = 0;
};
};
width = 489;
}
);
unicode = 42930;
},
{
glyphname = K;
kernLeft = KO_H;
kernRight = KO_K;
layers = (
{
anchors = (
{
name = bottom;
pos = (281,0);
},
{
name = top;
pos = (271,750);
}
);
background = {
shapes = (
{
closed = 1;
nodes = (
(207,0,l),
(207,280,l),
(180,137,l),
(271,315,l),
(299,300,l),
(529,750,l),
(391,750,l),
(182,336,l),
(207,329,l),
(207,750,l),
(60,750,l),
(60,0,l)
);
},
{
closed = 1;
nodes = (
(545,0,l),
(344,444,l),
(254,330,l),
(390,0,l)
);
}
);
};
layerId = "849A9C4C-BF7C-40C5-8614-1FD725A2A379";
shapes = (
{
closed = 1;
nodes = (
(514,716,l),
(392,765,l),
(179,336,l),
(207,329,l),
(207,750,l),
(60,750,l),
(60,0,l),
(207,0,l),
(207,196,l),
(263,305,l),
(301,300,l)
);
},
{
closed = 1;
nodes = (
(396,-16,l),
(531,33,l),
(342,444,l),
(245,328,l)
);
}
);
userData = {
com.hugojourdan.ColorFlow = {
"0" = 0;
"1" = 0;
"10" = 0;
"11" = 0;
"2" = 0;
"3" = 0;
"4" = 0;
"5" = 0;
"6" = 0;
"7" = 0;
"8" = 0;
"9" = 0;
};
};
width = 546;
}
);
metricLeft = H;
unicode = 75;
},
{
glyphname = Khook;
kernLeft = KO_H;
layers = (
{
anchors = (
{
name = bottom;
pos = (281,0);
},
{
name = top;
pos = (281,750);
}
);
layerId = "849A9C4C-BF7C-40C5-8614-1FD725A2A379";
shapes = (
{
closed = 1;
nodes = (
(207,0,l),
(207,196,l),
(263,305,l),
(301,300,l),
(442,615,ls),
(449,630,o),
(460,640,o),
(479,640,cs),
(497,640,o),
(509,632,o),
(523,615,c),
(581,717,l),
(550,747,o),
(518,763,o),
(471,763,cs),
(387,763,o),
(342,721,o),
(304,629,cs),
(207,392,l),
(207,750,l),
(60,750,l),
(60,0,l)
);
},
{
closed = 1;
nodes = (
(531,33,l),
(342,444,l),
(245,328,l),
(396,-16,l)
);
}
);
userData = {
com.hugojourdan.ColorFlow = {
"0" = 0;
"1" = 0;
"10" = 0;
"11" = 0;
"2" = 0;
"3" = 0;
"4" = 0;
"5" = 0;
"6" = 0;
"7" = 0;
"8" = 0;
"9" = 0;
};
};
width = 561;
}
);
unicode = 408;
},
{
glyphname = Kstroke;
layers = (
{
background = {
shapes = (
{
closed = 1;
nodes = (
(273,589,l),
(273,679,l),
(5,679,l),
(5,589,l)
);
}
);
};
layerId = "849A9C4C-BF7C-40C5-8614-1FD725A2A379";
shapes = (
{
ref = K;
},
{
pos = (139,338);
ref = strokeshortcomb;
scale = (0.86,1);
}
);
userData = {
com.hugojourdan.ColorFlow = {
"0" = 0;
"1" = 0;
"10" = 0;
"11" = 0;
"2" = 0;
"3" = 0;
"4" = 0;
"5" = 0;
"6" = 0;
"7" = 0;
"8" = 0;
"9" = 0;
};
};
width = 546;
}
);
unicode = 42816;
},
{
glyphname = L;
kernLeft = KO_H;
kernRight = KO_L;
layers = (
{
anchors = (
{
name = bottom;
pos = (264,0);
},
{
name = center;
pos = (146,405);
},
{
name = top;
pos = (133,750);
},
{
name = topright;
pos = (279,521);
}
);
background = {
shapes = (
{
closed = 1;
nodes = (
(442,0,l),
(442,122,l),
(207,122,l),
(207,750,l),
(60,750,l),
(60,0,l)
);
}
);
};
layerId = "849A9C4C-BF7C-40C5-8614-1FD725A2A379";
shapes = (
{
closed = 1;
nodes = (
(434,0,l),
(449,123,l),
(206,123,l),
(206,750,l),
(60,750,l),
(60,0,l)
);
}
);
userData = {
com.hugojourdan.ColorFlow = {
"0" = 0;
"1" = 0;
"10" = 0;
"11" = 0;
"2" = 0;
"3" = 0;
"4" = 0;
"5" = 0;
"6" = 0;
"7" = 0;
"8" = 0;
"9" = 0;
};
};
width = 469;
}
);
metricLeft = H;
unicode = 76;
},
{
glyphname = Lbelt;
layers = (
{
layerId = "849A9C4C-BF7C-40C5-8614-1FD725A2A379";
shapes = (
{
closed = 1;
nodes = (
(498,0,l),
(513,123,l),
(270,123,l),
(270,750,l),
(124,750,l),
(124,0,l)
);
},
{
closed = 1;
nodes = (
(369,263,l),
(379,353,l),
(124,353,ls),
(90,353,o),
(79,371,o),
(79,393,cs),
(79,414,o),
(90,433,o),
(124,433,cs),
(193,433,l),
(193,523,l),
(122,523,ls),
(51,523,o),
(-10,472,o),
(-10,392,cs),
(-10,315,o),
(51,263,o),
(122,263,cs)
);
}
);
userData = {
com.hugojourdan.ColorFlow = {
"0" = 0;
"1" = 0;
"10" = 0;
"11" = 0;
"2" = 0;
"3" = 0;
"4" = 0;
"5" = 0;
"6" = 0;
"7" = 0;
"8" = 0;
"9" = 0;
};
};
width = 533;
}
);
metricRight = L;
unicode = 42925;
},
{
glyphname = Ldot;
kernLeft = KO_H;
layers = (
{
layerId = "849A9C4C-BF7C-40C5-8614-1FD725A2A379";
shapes = (
{
closed = 1;
nodes = (
(443,346,l),
(443,487,l),
(303,487,l),
(303,346,l)
);
},
{
alignment = -1;
ref = L;
}
);
userData = {
com.hugojourdan.ColorFlow = {
"0" = 0;
"1" = 0;
"10" = 0;
"11" = 0;
"2" = 0;
"3" = 0;
"4" = 0;
"5" = 0;
"6" = 0;
"7" = 0;
"8" = 0;
"9" = 0;
};
};
width = 466;
}
);
unicode = 319;
},
{
glyphname = Lslash;
kernRight = KO_L;
layers = (
{
background = {
shapes = (
{
closed = 1;
nodes = (
(353,433,l),
(334,546,l),
(0,319,l),
(19,206,l)
);
},
{
pos = (8,0);
ref = L;
}
);
};
layerId = "849A9C4C-BF7C-40C5-8614-1FD725A2A379";
shapes = (
{
closed = 1;
nodes = (
(452,0,l),
(467,123,l),
(224,123,l),
(224,750,l),
(78,750,l),
(78,0,l)
);
},
{
closed = 1;
nodes = (
(328,429,l),
(309,529,l),
(0,319,l),
(19,219,l)
);
}
);
userData = {
com.hugojourdan.ColorFlow = {
"0" = 0;
"1" = 0;
"10" = 0;
"11" = 0;
"2" = 0;
"3" = 0;
"4" = 0;
"5" = 0;
"6" = 0;
"7" = 0;
"8" = 0;
"9" = 0;
};
};
width = 487;
}
);
metricRight = L;
unicode = 321;
},
{
glyphname = M;
kernLeft = KO_H;
kernRight = KO_H;
layers = (
{
anchors = (
{
name = bottom;
pos = (402,0);
},
{
name = top;
pos = (402,750);
}
);
background = {
shapes = (
{
closed = 1;
nodes = (
(702,0,l),
(702,750,l),
(507,750,l),
(368,182,l),
(409,182,l),
(259,762,l),
(60,739,l),
(60,0,l),
(192,0,l),
(192,516,l),
(190,628,l),
(170,626,l),
(332,-4,l),
(432,8,l),
(584,627,l),
(567,629,l),
(562,520,l),
(562,0,l)
);
}
);
};
layerId = "849A9C4C-BF7C-40C5-8614-1FD725A2A379";
shapes = (
{
closed = 1;
nodes = (
(702,0,l),
(702,750,l),
(507,750,l),
(368,182,l),
(409,182,l),
(259,762,l),
(60,739,l),
(60,0,l),
(188,0,l),
(188,516,l),
(186,628,l),
(170,626,l),
(332,-4,l),
(432,8,l),
(584,627,l),
(571,629,l),
(566,520,l),
(566,0,l)
);
}
);
userData = {
com.hugojourdan.ColorFlow = {
"0" = 0;
"1" = 0;
"10" = 0;
"11" = 0;
"2" = 0;
"3" = 0;
"4" = 0;
"5" = 0;
"6" = 0;
"7" = 0;
"8" = 0;
"9" = 0;
};
};
width = 762;
}
);
metricLeft = H;
metricRight = H;
unicode = 77;
},
{
color = 4;
glyphname = Mturned;
layers = (
{
anchors = (
{
name = bottom;
pos = (390,0);
},
{
name = top;
pos = (390,750);
}
);
layerId = "849A9C4C-BF7C-40C5-8614-1FD725A2A379";
shapes = (
{
closed = 1;
nodes = (
(259,-6,o),
(303,37,o),
(327,102,c),
(338,44,o),
(375,-6,o),
(441,-6,cs),
(510,-6,o),
(578,47,o),
(598,127,c),
(598,0,l),
(739,17,l),
(739,750,l),
(592,750,l),
(592,241,ls),
(592,190,o),
(563,117,o),
(514,117,cs),
(483,117,o),
(470,146,o),
(470,198,cs),
(470,750,l),
(323,750,l),
(323,230,ls),
(323,171,o),
(296,117,o),
(251,117,cs),
(214,117,o),
(201,150,o),
(201,197,cs),
(201,750,l),
(54,750,l),
(54,154,ls),
(54,61,o),
(96,-6,o),
(185,-6,cs)
);
}
);
userData = {
com.hugojourdan.ColorFlow = {
"0" = 0;
"1" = 0;
"10" = 0;
"11" = 0;
"2" = 0;
"3" = 0;
"4" = 0;
"5" = 0;
"6" = 0;
"7" = 0;
"8" = 0;
"9" = 0;
};
};
width = 799;
}
);
metricRight = H;
unicode = 412;
},
{
glyphname = N;
kernLeft = KO_H;
kernRight = KO_H;
layers = (
{
anchors = (
{
name = bottom;
pos = (293,0);
},
{
name = top;
pos = (293,750);
}
);
background = {
shapes = (
{
closed = 1;
nodes = (
(200,0,l),
(200,533,l),
(162,527,l),
(396,0,l),
(523,0,l),
(523,750,l),
(383,750,l),
(383,240,l),
(421,246,l),
(198,750,l),
(60,750,l),
(60,0,l)
);
}
);
};
guides = (
{
angle = 24.653;
pos = (257,372);
showMeasurement = 1;
}
);
layerId = "849A9C4C-BF7C-40C5-8614-1FD725A2A379";
shapes = (
{
closed = 1;
nodes = (
(523,7,l),
(523,750,l),
(385,750,l),
(385,313,l),
(393,227,l),
(419,223,l),
(193,760,l),
(60,744,l),
(60,0,l),
(198,0,l),
(198,455,l),
(190,546,l),
(164,540,l),
(400,-9,l)
);
}
);
userData = {
com.hugojourdan.ColorFlow = {
"0" = 0;
"1" = 0;
"10" = 0;
"11" = 0;
"2" = 0;
"3" = 0;
"4" = 0;
"5" = 0;
"6" = 0;
"7" = 0;
"8" = 0;
"9" = 0;
};
};
width = 583;
}
);
metricLeft = H;
metricRight = H;
unicode = 78;
},
{
glyphname = Nhookleft;
kernRight = KO_H;
layers = (
{
anchors = (
{
name = bottom;
pos = (296,0);
},
{
name = top;
pos = (296,750);
}
);
background = {
shapes = (
{
closed = 1;
nodes = (
(155,-168,o),
(213,-96,o),
(213,0,cs),
(213,455,l),
(208,546,l),
(162,540,l),
(408,-9,l),
(531,7,l),
(531,750,l),
(386,750,l),
(386,313,l),
(391,227,l),
(427,233,l),
(201,760,l),
(68,744,l),
(68,19,ls),
(68,-29,o),
(57,-52,o),
(16,-52,cs),
(2,-52,o),
(-8,-50,o),
(-19,-46,c),
(-32,-154,l),
(-1,-164,o),
(27,-168,o),
(57,-168,cs)
);
}
);
};
layerId = "849A9C4C-BF7C-40C5-8614-1FD725A2A379";
shapes = (
{
closed = 1;
nodes = (
(155,-168,o),
(206,-96,o),
(206,0,cs),
(206,455,l),
(201,546,l),
(172,540,l),
(408,-9,l),
(531,7,l),
(531,750,l),
(393,750,l),
(393,313,l),
(398,227,l),
(427,223,l),
(201,760,l),
(68,744,l),
(68,19,ls),
(68,-29,o),
(57,-52,o),
(16,-52,cs),
(2,-52,o),
(-8,-50,o),
(-19,-46,c),
(-32,-154,l),
(-1,-164,o),
(27,-168,o),
(57,-168,cs)
);
}
);
userData = {
com.hugojourdan.ColorFlow = {
"0" = 0;
"1" = 0;
"10" = 0;
"11" = 0;
"2" = 0;
"3" = 0;
"4" = 0;
"5" = 0;
"6" = 0;
"7" = 0;
"8" = 0;
"9" = 0;
};
};
width = 591;
}
);
unicode = 413;
},
{
color = 4;
glyphname = Nlongrightleg;
layers = (
{
background = {
shapes = (
{
pos = (-12,0);
ref = N;
},
{
closed = 1;
nodes = (
(522,-154,l),
(522,528,ls),
(522,704,o),
(463,762,o),
(373,762,cs),
(284,762,o),
(214,716,o),
(177,545,c),
(207,424,l),
(207,528,o),
(244,632,o),
(310,632,cs),
(355,632,o),
(375,611,o),
(375,509,cs),
(375,-174,l)
);
},
{
closed = 1;
nodes = (
(207,0,l),
(207,538,l),
(191,538,l),
(191,762,l),
(60,744,l),
(60,0,l)
);
}
);
};
layerId = "849A9C4C-BF7C-40C5-8614-1FD725A2A379";
shapes = (
{
closed = 1;
nodes = (
(522,-154,l),
(522,528,ls),
(522,704,o),
(463,762,o),
(373,762,cs),
(284,762,o),
(214,716,o),
(177,545,c),
(207,424,l),
(207,528,o),
(244,632,o),
(310,632,cs),
(355,632,o),
(375,611,o),
(375,509,cs),
(375,-174,l)
);
},
{
closed = 1;
nodes = (
(207,0,l),
(207,538,l),
(191,538,l),
(191,762,l),
(60,744,l),
(60,0,l)
);
}
);
userData = {
com.hugojourdan.ColorFlow = {
"0" = 0;
"1" = 0;
"10" = 0;
"11" = 0;
"2" = 0;
"3" = 0;
"4" = 0;
"5" = 0;
"6" = 0;
"7" = 0;
"8" = 0;
"9" = 0;
};
};
width = 582;
}
);
metricLeft = H;
metricRight = H;
unicode = 544;
},
{
color = 8;
glyphname = Eng;
kernLeft = KO_H;
kernRight = KO_H;
layers = (
{
anchors = (
{
name = bottom;
pos = (292,0);
},
{
name = top;
pos = (292,750);
}
);
background = {
shapes = (
{
closed = 1;
nodes = (
(200,0,l),
(200,533,l),
(173,527,l),
(413,20,l),
(413,-28,o),
(396,-52,o),
(361,-52,cs),
(347,-52,o),
(337,-50,o),
(326,-46,c),
(313,-151,l),
(341,-161,o),
(369,-166,o),
(407,-166,cs),
(503,-166,o),
(543,-90,o),
(543,23,cs),
(543,750,l),
(413,750,l),
(413,239,l),
(439,245,l),
(203,760,l),
(70,744,l),
(70,0,l)
);
}
);
};
layerId = "849A9C4C-BF7C-40C5-8614-1FD725A2A379";
shapes = (
{
closed = 1;
nodes = (
(465,-168,o),
(523,-96,o),
(523,0,cs),
(523,750,l),
(385,750,l),
(385,313,l),
(390,227,l),
(419,223,l),
(193,760,l),
(60,744,l),
(60,0,l),
(198,0,l),
(198,455,l),
(185,546,l),
(164,540,l),
(386,22,l),
(386,-29,o),
(367,-52,o),
(326,-52,cs),
(312,-52,o),
(302,-50,o),
(291,-46,c),
(278,-154,l),
(309,-164,o),
(337,-168,o),
(367,-168,cs)
);
}
);
userData = {
com.hugojourdan.ColorFlow = {
"0" = 0;
"1" = 0;
"10" = 0;
"11" = 0;
"2" = 0;
"3" = 0;
"4" = 0;
"5" = 0;
"6" = 0;
"7" = 0;
"8" = 0;
"9" = 0;
};
};
width = 583;
}
);
unicode = 330;
},
{
glyphname = O;
kernLeft = KO_O;
kernRight = KO_O;
layers = (
{
anchors = (
{
name = bottom;
pos = (281,0);
},
{
name = center;
pos = (282,375);
},
{
name = ogonek;
pos = (448,5);
},
{
name = top;
pos = (281,752);
},
{
name = topleft;
pos = (17,750);
},
{
name = topright;
pos = (453,515);
}
);
background = {
shapes = (
{
closed = 1;
nodes = (
(439,-14,o),
(526,119,o),
(526,375,cs),
(526,631,o),
(439,764,o),
(281,764,cs),
(124,764,o),
(36,630,o),
(36,375,cs),
(36,120,o),
(124,-14,o),
(281,-14,cs)
);
},
{
closed = 1;
nodes = (
(219,108,o),
(188,182,o),
(188,375,cs),
(188,568,o),
(219,642,o),
(281,642,cs),
(343,642,o),
(374,569,o),
(374,375,cs),
(374,181,o),
(343,108,o),
(281,108,cs)
);
}
);
};
layerId = "849A9C4C-BF7C-40C5-8614-1FD725A2A379";
shapes = (
{
closed = 1;
nodes = (
(455,-14,o),
(526,138,o),
(526,375,cs),
(526,612,o),
(455,764,o),
(281,764,cs),
(108,764,o),
(36,612,o),
(36,375,cs),
(36,138,o),
(108,-14,o),
(281,-14,cs)
);
},
{
closed = 1;
nodes = (
(199,114,o),
(190,238,o),
(190,375,cs),
(190,512,o),
(199,636,o),
(281,636,cs),
(364,636,o),
(372,512,o),
(372,375,cs),
(372,238,o),
(364,114,o),
(281,114,cs)
);
}
);
userData = {
com.hugojourdan.ColorFlow = {
"0" = 0;
"1" = 0;
"10" = 0;
"11" = 0;
"2" = 0;
"3" = 0;
"4" = 0;
"5" = 0;
"6" = 0;
"7" = 0;
"8" = 0;
"9" = 0;
};
};
width = 562;
}
);
unicode = 79;
},
{
glyphname = OU;
layers = (
{
layerId = "849A9C4C-BF7C-40C5-8614-1FD725A2A379";
shapes = (
{
closed = 1;
nodes = (
(461,-14,o),
(532,138,o),
(532,245,cs),
(532,352,o),
(461,489,o),
(287,489,cs),
(114,489,o),
(42,352,o),
(42,245,cs),
(42,138,o),
(114,-14,o),
(287,-14,cs)
);
},
{
closed = 1;
nodes = (
(205,115,o),
(197,208,o),
(197,245,cs),
(197,282,o),
(205,375,o),
(287,375,cs),
(370,375,o),
(377,282,o),
(377,245,cs),
(377,208,o),
(370,115,o),
(287,115,cs)
);
},
{
closed = 1;
nodes = (
(440,375,o),
(510,477,o),
(510,623,cs),
(510,750,l),
(373,750,l),
(373,610,ls),
(373,537,o),
(345,489,o),
(289,489,cs),
(233,489,o),
(205,537,o),
(205,610,cs),
(205,750,l),
(58,750,l),
(58,623,ls),
(58,456,o),
(128,375,o),
(287,375,cs)
);
}
);
userData = {
com.hugojourdan.ColorFlow = {
"0" = 0;
"1" = 0;
"10" = 0;
"11" = 0;
"2" = 0;
"3" = 0;
"4" = 0;
"5" = 0;
"6" = 0;
"7" = 0;
"8" = 0;
"9" = 0;
};
};
width = 574;
}
);
metricRight = "=|";
unicode = 546;
},
{
color = 4;
glyphname = Ohorn;
kernLeft = KO_O;
layers = (
{
anchors = (
{
name = bottom;
pos = (275,0);
},
{
name = center;
pos = (277,375);
},
{
name = ogonek;
pos = (443,5);
},
{
name = top;
pos = (275,750);
},
{
name = topleft;
pos = (12,750);
},
{
name = topright;
pos = (448,515);
}
);
background = {
shapes = (
{
closed = 1;
nodes = (
(448,-14,o),
(519,138,o),
(519,375,cs),
(519,439,o),
(514,497,o),
(503,547,c),
(567,560,o),
(623,616,o),
(623,691,cs),
(623,744,o),
(605,780,o),
(595,793,c),
(488,753,l),
(501,731,o),
(515,699,o),
(515,673,cs),
(515,650,o),
(501,633,o),
(476,630,c),
(438,715,o),
(373,764,o),
(274,764,cs),
(101,764,o),
(29,612,o),
(29,375,cs),
(29,138,o),
(101,-14,o),
(274,-14,cs)
);
},
{
closed = 1;
nodes = (
(192,115,o),
(184,238,o),
(184,375,cs),
(184,512,o),
(192,635,o),
(274,635,cs),
(357,635,o),
(364,512,o),
(364,375,cs),
(364,238,o),
(357,115,o),
(274,115,cs)
);
}
);
};
layerId = "849A9C4C-BF7C-40C5-8614-1FD725A2A379";
shapes = (
{
closed = 1;
nodes = (
(445,-14,o),
(516,138,o),
(516,375,cs),
(516,612,o),
(445,764,o),
(296,764,cs),
(108,764,o),
(36,612,o),
(36,375,cs),
(36,138,o),
(108,-14,o),
(276,-14,cs)
);
},
{
closed = 1;
nodes = (
(199,115,o),
(191,238,o),
(191,375,cs),
(191,512,o),
(199,635,o),
(276,635,cs),
(354,635,o),
(361,512,o),
(361,375,cs),
(361,238,o),
(354,115,o),
(276,115,cs)
);
},
{
closed = 1;
nodes = (
(531,673,o),
(596,733,o),
(596,820,cs),
(596,867,o),
(584,901,o),
(568,922,c),
(454,879,l),
(468,862,o),
(478,838,o),
(478,812,cs),
(478,786,o),
(467,758,o),
(420,758,cs),
(400,758,o),
(354,764,o),
(296,764,c),
(416,676,l),
(425,674,o),
(434,673,o),
(443,673,cs)
);
}
);
userData = {
com.hugojourdan.ColorFlow = {
"0" = 0;
"1" = 0;
"10" = 0;
"11" = 0;
"2" = 0;
"3" = 0;
"4" = 0;
"5" = 0;
"6" = 0;
"7" = 0;
"8" = 0;
"9" = 0;
};
};
width = 565;
}
);
metricLeft = O;
unicode = 416;
},
{
color = 4;
glyphname = "Omega-latin";
layers = (
{
anchors = (
{
name = bottom;
pos = (382,0);
},
{
name = top;
pos = (382,750);
}
);
background = {
shapes = (
{
pos = (2,0);
ref = M;
}
);
};
layerId = "849A9C4C-BF7C-40C5-8614-1FD725A2A379";
shapes = (
{
closed = 1;
nodes = (
(315,-14,o),
(373,40,o),
(401,143,c),
(365,143,l),
(393,40,o),
(451,-14,o),
(536,-14,cs),
(660,-14,o),
(730,104,o),
(730,337,cs),
(730,494,o),
(694,625,o),
(633,750,c),
(486,750,l),
(550,617,o),
(576,492,o),
(576,312,cs),
(576,163,o),
(558,109,o),
(508,109,cs),
(472,109,o),
(453,138,o),
(453,195,cs),
(453,429,l),
(313,429,l),
(313,195,ls),
(313,138,o),
(294,109,o),
(258,109,cs),
(208,109,o),
(190,163,o),
(190,312,cs),
(190,492,o),
(216,617,o),
(280,750,c),
(133,750,l),
(72,625,o),
(36,494,o),
(36,337,cs),
(36,104,o),
(106,-14,o),
(230,-14,cs)
);
}
);
userData = {
com.hugojourdan.ColorFlow = {
"0" = 0;
"1" = 0;
"10" = 0;
"11" = 0;
"2" = 0;
"3" = 0;
"4" = 0;
"5" = 0;
"6" = 0;
"7" = 0;
"8" = 0;
"9" = 0;
};
};
width = 766;
}
);
metricLeft = O;
metricRight = O;
unicode = 42934;
},
{
color = 4;
glyphname = Oopen;
kernRight = KO_O;
layers = (
{
anchors = (
{
name = bottom;
pos = (270,0);
},
{
name = top;
pos = (270,750);
}
);
layerId = "849A9C4C-BF7C-40C5-8614-1FD725A2A379";
shapes = (
{
closed = 1;
nodes = (
(109,765,o),
(37,646,o),
(30,510,c),
(169,481,l),
(173,549,o),
(191,642,o),
(251,642,cs),
(322,642,o),
(348,543,o),
(348,375,cs),
(348,203,o),
(324,108,o),
(252,108,cs),
(190,108,o),
(172,187,o),
(167,255,c),
(30,240,l),
(39,109,o),
(104,-15,o),
(252,-15,cs),
(425,-15,o),
(503,144,o),
(503,375,cs),
(503,628,o),
(423,765,o),
(250,765,cs)
);
}
);
userData = {
com.hugojourdan.ColorFlow = {
"0" = 0;
"1" = 0;
"10" = 0;
"11" = 0;
"2" = 0;
"3" = 0;
"4" = 0;
"5" = 0;
"6" = 0;
"7" = 0;
"8" = 0;
"9" = 0;
};
};
width = 539;
}
);
metricLeft = "=|C";
metricRight = O;
unicode = 390;
},
{
color = 0;
glyphname = Oslash;
layers = (
{
anchors = (
{
name = bottom;
pos = (290,0);
},
{
name = top;
pos = (290,750);
}
);
background = {
shapes = (
{
closed = 1;
nodes = (
(477,-16,o),
(518,190,o),
(518,400,cs),
(518,464,o),
(511,521,o),
(499,572,c),
(562,648,l),
(515,693,l),
(474,643,l),
(437,721,o),
(375,766,o),
(284,766,cs),
(122,766,o),
(52,621,o),
(52,400,cs),
(52,315,o),
(59,233,o),
(79,163,c),
(24,97,l),
(71,52,l),
(106,94,l),
(141,27,o),
(196,-16,o),
(284,-16,cs)
);
},
{
closed = 1;
nodes = (
(238,109,o),
(217,148,o),
(207,217,c),
(371,417,l),
(371,400,ls),
(371,221,o),
(363,109,o),
(284,109,cs)
);
},
{
closed = 1;
nodes = (
(198,337,o),
(198,367,o),
(198,400,cs),
(198,494,o),
(204,649,o),
(284,649,cs),
(337,649,o),
(358,583,o),
(366,512,c),
(199,310,l)
);
}
);
};
layerId = "849A9C4C-BF7C-40C5-8614-1FD725A2A379";
shapes = (
{
closed = 1;
nodes = (
(455,-14,o),
(526,138,o),
(526,375,cs),
(526,612,o),
(455,764,o),
(281,764,cs),
(108,764,o),
(36,612,o),
(36,375,cs),
(36,138,o),
(108,-14,o),
(281,-14,cs)
);
},
{
closed = 1;
nodes = (
(199,101,o),
(190,225,o),
(190,375,cs),
(190,525,o),
(199,649,o),
(281,649,cs),
(364,649,o),
(372,525,o),
(372,375,cs),
(372,225,o),
(364,101,o),
(281,101,cs)
);
},
{
closed = 1;
nodes = (
(171,129,l),
(163,134,l),
(489,570,l),
(492,568,l),
(580,678,l),
(506,740,l),
(418,631,l),
(425,627,l),
(99,189,l),
(97,191,l),
(0,69,l),
(75,7,l)
);
}
);
userData = {
com.hugojourdan.ColorFlow = {
"0" = 0;
"1" = 0;
"10" = 0;
"11" = 0;
"2" = 0;
"3" = 0;
"4" = 0;
"5" = 0;
"6" = 0;
"7" = 0;
"8" = 0;
"9" = 0;
};
};
width = 580;
}
);
metricRight = "=|";
unicode = 216;
},
{
color = 1;
glyphname = Otildeacute;
layers = (
{
background = {
shapes = (
{
closed = 1;
nodes = (
(409,1045,l),
(345,1169,l),
(155,1029,l),
(187,964,l)
);
},
{
ref = O;
},
{
alignment = -1;
pos = (282,-29);
ref = tildecomb.case;
}
);
};
layerId = "849A9C4C-BF7C-40C5-8614-1FD725A2A379";
shapes = (
{
ref = O;
},
{
alignment = -1;
pos = (282,-29);
ref = tildecomb.case;
},
{
alignment = -1;
angle = -20.00004;
pos = (-59,210);
ref = acutecomb.case;
}
);
userData = {
com.hugojourdan.ColorFlow = {
"0" = 0;
"1" = 0;
"10" = 0;
"11" = 0;
"2" = 0;
"3" = 0;
"4" = 0;
"5" = 0;
"6" = 0;
"7" = 0;
"8" = 0;
"9" = 0;
};
};
width = 562;
}
);
unicode = 7756;
},
{
glyphname = OE;
kernLeft = KO_O;
layers = (
{
anchors = (
{
name = bottom;
pos = (394,0);
},
{
name = top;
pos = (394,750);
}
);
background = {
shapes = (
{
closed = 1;
nodes = (
(745,0,l),
(759,122,l),
(516,122,l),
(516,315,l),
(684,315,l),
(684,433,l),
(516,433,l),
(516,628,l),
(737,628,l),
(753,750,l),
(327,750,ls),
(144,750,o),
(36,620,o),
(36,375,cs),
(36,146,o),
(148,0,o),
(331,0,cs)
);
},
{
closed = 1;
nodes = (
(232,120,o),
(190,220,o),
(190,375,cs),
(190,536,o),
(232,633,o),
(339,633,cs),
(369,633,l),
(369,120,l),
(339,120,ls)
);
}
);
};
layerId = "849A9C4C-BF7C-40C5-8614-1FD725A2A379";
shapes = (
{
closed = 1;
nodes = (
(320,-14,o),
(359,7,o),
(391,46,c),
(391,0,l),
(757,0,l),
(757,122,l),
(505,122,l),
(505,326,l),
(678,326,l),
(678,446,l),
(505,446,l),
(505,628,l),
(752,628,l),
(752,750,l),
(391,750,l),
(391,704,l),
(359,743,o),
(320,764,o),
(276,764,cs),
(108,764,o),
(36,612,o),
(36,375,cs),
(36,138,o),
(108,-14,o),
(276,-14,cs)
);
},
{
closed = 1;
nodes = (
(199,115,o),
(191,238,o),
(191,375,cs),
(191,512,o),
(199,635,o),
(276,635,cs),
(348,635,o),
(361,529,o),
(361,405,cs),
(361,338,ls),
(361,217,o),
(347,115,o),
(276,115,cs)
);
}
);
userData = {
com.hugojourdan.ColorFlow = {
"0" = 0;
"1" = 0;
"10" = 0;
"11" = 0;
"2" = 0;
"3" = 0;
"4" = 0;
"5" = 0;
"6" = 0;
"7" = 0;
"8" = 0;
"9" = 0;
};
};
width = 787;
}
);
metricLeft = O;
metricRight = E;
unicode = 338;
},
{
glyphname = P;
kernLeft = KO_H;
kernRight = KO_P;
layers = (
{
anchors = (
{
name = bottom;
pos = (257,0);
},
{
name = top;
pos = (257,750);
}
);
background = {
shapes = (
{
closed = 1;
nodes = (
(204,0,l),
(204,631,l),
(239,631,ls),
(312,631,o),
(352,599,o),
(352,512,cs),
(352,428,o),
(312,391,o),
(239,391,cs),
(168,391,l),
(168,273,l),
(228,273,ls),
(394,273,o),
(498,347,o),
(498,512,cs),
(498,684,o),
(394,750,o),
(228,750,cs),
(60,750,l),
(60,0,l)
);
}
);
};
layerId = "849A9C4C-BF7C-40C5-8614-1FD725A2A379";
shapes = (
{
closed = 1;
nodes = (
(207,0,l),
(207,628,l),
(249,628,ls),
(323,628,o),
(361,589,o),
(361,512,cs),
(361,437,o),
(321,395,o),
(249,395,cs),
(168,395,l),
(168,273,l),
(238,273,ls),
(412,273,o),
(508,359,o),
(508,515,cs),
(508,669,o),
(415,750,o),
(238,750,cs),
(60,750,l),
(60,0,l)
);
}
);
userData = {
com.hugojourdan.ColorFlow = {
"0" = 0;
"1" = 0;
"10" = 0;
"11" = 0;
"2" = 0;
"3" = 0;
"4" = 0;
"5" = 0;
"6" = 0;
"7" = 0;
"8" = 0;
"9" = 0;
};
};
width = 536;
}
);
metricLeft = H;
unicode = 80;
userData = {
KernOnName = P;
};
},
{
glyphname = Phook;
layers = (
{
layerId = "849A9C4C-BF7C-40C5-8614-1FD725A2A379";
shapes = (
{
closed = 1;
nodes = (
(340,0,l),
(340,631,l),
(375,631,ls),
(448,631,o),
(488,599,o),
(488,512,cs),
(488,428,o),
(448,391,o),
(375,391,cs),
(324,391,l),
(324,273,l),
(364,273,ls),
(530,273,o),
(634,347,o),
(634,512,cs),
(634,684,o),
(530,750,o),
(364,750,cs),
(185,750,ls),
(80,750,o),
(16,690,o),
(16,586,cs),
(16,533,o),
(32,487,o),
(52,461,c),
(151,498,l),
(134,520,o),
(124,541,o),
(124,571,cs),
(124,611,o),
(140,631,o),
(169,631,cs),
(196,631,l),
(196,0,l)
);
}
);
userData = {
com.hugojourdan.ColorFlow = {
"0" = 0;
"1" = 0;
"10" = 0;
"11" = 0;
"2" = 0;
"3" = 0;
"4" = 0;
"5" = 0;
"6" = 0;
"7" = 0;
"8" = 0;
"9" = 0;
};
};
width = 662;
}
);
metricLeft = Bhook;
metricRight = P;
unicode = 420;
},
{
glyphname = Thorn;
kernLeft = KO_H;
kernRight = KO_D;
layers = (
{
anchors = (
{
name = bottom;
pos = (269,0);
},
{
name = top;
pos = (269,750);
}
);
layerId = "849A9C4C-BF7C-40C5-8614-1FD725A2A379";
shapes = (
{
closed = 1;
nodes = (
(239,151,ls),
(405,151,o),
(509,225,o),
(509,390,cs),
(509,562,o),
(405,628,o),
(239,628,cs),
(187,628,l),
(187,509,l),
(250,509,ls),
(323,509,o),
(363,477,o),
(363,390,cs),
(363,306,o),
(323,269,o),
(250,269,cs),
(187,269,l),
(187,151,l)
);
},
{
closed = 1;
nodes = (
(207,-2,l),
(207,752,l),
(60,752,l),
(60,-2,l)
);
}
);
userData = {
com.hugojourdan.ColorFlow = {
"0" = 0;
"1" = 0;
"10" = 0;
"11" = 0;
"2" = 0;
"3" = 0;
"4" = 0;
"5" = 0;
"6" = 0;
"7" = 0;
"8" = 0;
"9" = 0;
};
};
width = 537;
}
);
metricLeft = H;
metricRight = P;
unicode = 222;
},
{
glyphname = Pstroke;
layers = (
{
background = {
shapes = (
{
closed = 1;
nodes = (
(285,469,l),
(285,559,l),
(7,559,l),
(7,469,l)
);
},
{
ref = P;
}
);
};
layerId = "849A9C4C-BF7C-40C5-8614-1FD725A2A379";
shapes = (
{
ref = P;
},
{
pos = (147,218);
ref = strokeshortcomb;
scale = (0.9,1);
}
);
userData = {
com.hugojourdan.ColorFlow = {
"0" = 0;
"1" = 0;
"10" = 0;
"11" = 0;
"2" = 0;
"3" = 0;
"4" = 0;
"5" = 0;
"6" = 0;
"7" = 0;
"8" = 0;
"9" = 0;
};
};
width = 536;
}
);
unicode = 11363;
},
{
glyphname = Q;
kernLeft = KO_O;
kernRight = KO_O;
layers = (
{
background = {
shapes = (
{
closed = 1;
nodes = (
(442,-14,o),
(530,142,o),
(530,375,cs),
(530,612,o),
(454,764,o),
(286,764,cs),
(119,764,o),
(42,612,o),
(42,375,cs),
(42,138,o),
(116,-14,o),
(277,-14,cs)
);
},
{
closed = 1;
nodes = (
(208,109,o),
(195,224,o),
(195,375,cs),
(195,525,o),
(208,642,o),
(286,642,cs),
(365,642,o),
(377,525,o),
(377,375,cs),
(377,224,o),
(371,109,o),
(286,109,cs)
);
},
{
closed = 1;
nodes = (
(313,-51,o),
(380,-118,o),
(455,-153,c),
(526,-68,l),
(453,-22,o),
(403,16,o),
(349,71,c),
(295,44,l)
);
}
);
};
layerId = "849A9C4C-BF7C-40C5-8614-1FD725A2A379";
shapes = (
{
closed = 1;
nodes = (
(313,-51,o),
(372,-128,o),
(441,-170,c),
(526,-68,l),
(453,-27,o),
(403,14,o),
(349,71,c),
(295,44,l)
);
},
{
ref = O;
}
);
userData = {
com.hugojourdan.ColorFlow = {
"0" = 0;
"1" = 0;
"10" = 0;
"11" = 0;
"2" = 0;
"3" = 0;
"4" = 0;
"5" = 0;
"6" = 0;
"7" = 0;
"8" = 0;
"9" = 0;
};
};
width = 562;
}
);
metricLeft = O;
metricRight = O;
unicode = 81;
},
{
glyphname = Qhooktail;
layers = (
{
anchors = (
{
name = bottom;
pos = (274,0);
},
{
name = top;
pos = (274,750);
}
);
background = {
shapes = (
{
closed = 1;
nodes = (
(333,645,o),
(352,563,o),
(352,431,c),
(380,548,l),
(380,654,o),
(340,764,o),
(234,764,cs),
(95,764,o),
(33,593,o),
(33,375,cs),
(33,135,o),
(95,-13,o),
(225,-13,cs),
(325,-13,o),
(380,76,o),
(380,197,c),
(352,318,l),
(352,183,o),
(334,106,o),
(271,106,cs),
(211,106,o),
(185,207,o),
(185,376,cs),
(185,544,o),
(211,645,o),
(274,645,cs)
);
},
{
closed = 1;
nodes = (
(499,760,l),
(352,743,l),
(352,-2,ls),
(352,-100,o),
(395,-185,o),
(500,-185,cs),
(528,-185,o),
(549,-179,o),
(572,-171,c),
(560,-50,l),
(552,-53,o),
(545,-54,o),
(536,-54,cs),
(510,-54,o),
(499,-37,o),
(499,1,cs)
);
}
);
};
layerId = "849A9C4C-BF7C-40C5-8614-1FD725A2A379";
shapes = (
{
closed = 1;
nodes = (
(318,-13,o),
(373,76,o),
(373,197,c),
(345,318,l),
(345,183,o),
(327,106,o),
(268,106,cs),
(212,106,o),
(186,207,o),
(186,376,cs),
(186,544,o),
(212,645,o),
(271,645,cs),
(326,645,o),
(345,563,o),
(345,431,c),
(373,548,l),
(373,654,o),
(333,764,o),
(232,764,cs),
(98,764,o),
(36,593,o),
(36,375,cs),
(36,135,o),
(98,-13,o),
(223,-13,cs)
);
},
{
closed = 1;
nodes = (
(521,-185,o),
(542,-179,o),
(565,-171,c),
(553,-50,l),
(545,-53,o),
(538,-54,o),
(529,-54,cs),
(503,-54,o),
(492,-37,o),
(492,1,cs),
(492,760,l),
(345,743,l),
(345,-2,ls),
(345,-100,o),
(388,-185,o),
(493,-185,cs)
);
}
);
userData = {
com.hugojourdan.ColorFlow = {
"0" = 0;
"1" = 0;
"10" = 0;
"11" = 0;
"2" = 0;
"3" = 0;
"4" = 0;
"5" = 0;
"6" = 0;
"7" = 0;
"8" = 0;
"9" = 0;
};
};
width = 547;
}
);
metricLeft = O;
unicode = 586;
},
{
glyphname = R;
kernLeft = KO_H;
kernRight = KO_R;
layers = (
{
anchors = (
{
name = bottom;
pos = (287,0);
},
{
name = top;
pos = (273,750);
}
);
background = {
shapes = (
{
closed = 1;
nodes = (
(207,0,l),
(207,296,l),
(270,296,ls),
(411,296,o),
(506,400,o),
(506,524,cs),
(506,679,o),
(411,750,o),
(248,750,cs),
(60,750,l),
(60,0,l)
);
},
{
closed = 1;
nodes = (
(207,633,l),
(245,633,ls),
(314,633,o),
(361,605,o),
(361,523,cs),
(361,449,o),
(308,407,o),
(245,407,cs),
(207,407,l)
);
},
{
closed = 1;
nodes = (
(545,0,l),
(376,372,l),
(261,321,l),
(390,0,l)
);
}
);
};
layerId = "849A9C4C-BF7C-40C5-8614-1FD725A2A379";
shapes = (
{
closed = 1;
nodes = (
(232,286,o),
(252,286,o),
(280,288,cs),
(295,289,l),
(427,310,o),
(506,394,o),
(506,519,cs),
(506,679,o),
(411,750,o),
(248,750,cs),
(60,750,l),
(60,0,l),
(207,0,l),
(207,286,l)
);
},
{
closed = 1;
nodes = (
(207,633,l),
(241,633,ls),
(311,633,o),
(358,605,o),
(358,518,cs),
(358,439,o),
(305,403,o),
(241,403,cs),
(207,403,l)
);
},
{
closed = 1;
nodes = (
(401,-16,l),
(536,33,l),
(392,352,l),
(266,291,l)
);
}
);
userData = {
com.hugojourdan.ColorFlow = {
"0" = 0;
"1" = 0;
"10" = 0;
"11" = 0;
"2" = 0;
"3" = 0;
"4" = 0;
"5" = 0;
"6" = 0;
"7" = 0;
"8" = 0;
"9" = 0;
};
};
width = 546;
}
);
metricLeft = H;
unicode = 82;
userData = {
KernOnName = R;
};
},
{
color = 4;
glyphname = Rstroke;
kernRight = KO_R;
layers = (
{
anchors = (
{
name = bottom;
pos = (297,0);
},
{
name = top;
pos = (297,750);
}
);
background = {
shapes = (
{
closed = 1;
nodes = (
(320,312,l),
(320,414,l),
(25,414,l),
(25,312,l)
);
},
{
closed = 1;
nodes = (
(249,6,l),
(249,306,l),
(325,308,l),
(456,317,o),
(551,410,o),
(551,529,cs),
(551,679,o),
(456,750,o),
(293,750,cs),
(105,750,l),
(105,-6,l)
);
},
{
closed = 1;
nodes = (
(249,633,l),
(290,633,ls),
(359,633,o),
(406,605,o),
(406,528,cs),
(406,459,o),
(353,417,o),
(290,417,cs),
(249,417,l)
);
},
{
closed = 1;
nodes = (
(581,33,l),
(427,372,l),
(311,321,l),
(446,-16,l)
);
}
);
};
layerId = "849A9C4C-BF7C-40C5-8614-1FD725A2A379";
shapes = (
{
closed = 1;
nodes = (
(257,286,o),
(277,286,o),
(305,288,cs),
(320,289,l),
(452,310,o),
(531,394,o),
(531,519,cs),
(531,679,o),
(436,750,o),
(273,750,cs),
(85,750,l),
(85,0,l),
(232,0,l),
(232,286,l)
);
},
{
closed = 1;
nodes = (
(232,633,l),
(266,633,ls),
(336,633,o),
(383,605,o),
(383,518,cs),
(383,439,o),
(330,403,o),
(266,403,cs),
(232,403,l)
);
},
{
closed = 1;
nodes = (
(426,-16,l),
(561,33,l),
(417,352,l),
(291,291,l)
);
},
{
closed = 1;
nodes = (
(207,286,l),
(207,403,l),
(5,403,l),
(5,286,l)
);
}
);
userData = {
com.hugojourdan.ColorFlow = {
"0" = 0;
"1" = 0;
"10" = 0;
"11" = 0;
"2" = 0;
"3" = 0;
"4" = 0;
"5" = 0;
"6" = 0;
"7" = 0;
"8" = 0;
"9" = 0;
};
};
width = 571;
}
);
metricRight = R;
unicode = 588;
},
{
glyphname = Rtail;
kernRight = KO_R;
layers = (
{
background = {
shapes = (
{
closed = 1;
nodes = (
(236,-173,o),
(257,-167,o),
(280,-159,c),
(268,-43,l),
(260,-46,o),
(253,-47,o),
(244,-47,cs),
(218,-47,o),
(204,-30,o),
(204,13,cs),
(204,286,l),
(280,288,l),
(411,297,o),
(506,390,o),
(506,519,cs),
(506,679,o),
(411,750,o),
(248,750,cs),
(60,750,l),
(60,10,ls),
(60,-88,o),
(103,-173,o),
(205,-173,cs)
);
},
{
closed = 1;
nodes = (
(204,633,l),
(245,633,ls),
(314,633,o),
(361,605,o),
(361,518,cs),
(361,439,o),
(308,397,o),
(245,397,cs),
(204,397,l)
);
},
{
closed = 1;
nodes = (
(536,33,l),
(382,352,l),
(266,301,l),
(401,-16,l)
);
}
);
};
layerId = "849A9C4C-BF7C-40C5-8614-1FD725A2A379";
shapes = (
{
closed = 1;
nodes = (
(248,-168,o),
(276,-164,o),
(307,-154,c),
(294,-46,l),
(283,-50,o),
(273,-52,o),
(259,-52,cs),
(218,-52,o),
(207,-29,o),
(207,19,cs),
(207,286,l),
(232,286,o),
(252,286,o),
(280,288,cs),
(295,289,l),
(427,310,o),
(506,394,o),
(506,519,cs),
(506,679,o),
(411,750,o),
(248,750,cs),
(60,750,l),
(60,0,ls),
(60,-96,o),
(118,-168,o),
(218,-168,cs)
);
},
{
closed = 1;
nodes = (
(536,33,l),
(392,352,l),
(266,291,l),
(401,-16,l)
);
},
{
closed = 1;
nodes = (
(207,633,l),
(241,633,ls),
(311,633,o),
(358,605,o),
(358,518,cs),
(358,439,o),
(305,403,o),
(241,403,cs),
(207,403,l)
);
}
);
userData = {
com.hugojourdan.ColorFlow = {
"0" = 0;
"1" = 0;
"10" = 0;
"11" = 0;
"2" = 0;
"3" = 0;
"4" = 0;
"5" = 0;
"6" = 0;
"7" = 0;
"8" = 0;
"9" = 0;
};
};
width = 546;
}
);
metricLeft = H;
metricRight = R;
unicode = 11364;
},
{
glyphname = S;
kernLeft = KO_S;
kernRight = KO_S;
layers = (
{
anchors = (
{
name = bottom;
pos = (266,-10);
},
{
name = top;
pos = (268,752);
}
);
background = {
shapes = (
{
closed = 1;
nodes = (
(389,-16,o),
(483,69,o),
(483,203,cs),
(483,300,o),
(435,363,o),
(351,413,cs),
(261,467,ls),
(216,493,o),
(183,521,o),
(183,568,cs),
(183,613,o),
(215,646,o),
(257,646,cs),
(318,646,o),
(345,601,o),
(348,520,c),
(476,548,l),
(470,699,o),
(390,764,o),
(257,764,cs),
(129,764,o),
(41,673,o),
(41,554,cs),
(41,451,o),
(88,388,o),
(166,342,cs),
(257,289,ls),
(301,263,o),
(338,237,o),
(338,187,cs),
(338,136,o),
(308,102,o),
(257,102,cs),
(190,102,o),
(163,153,o),
(159,226,c),
(30,212,l),
(35,55,o),
(125,-16,o),
(256,-16,cs)
);
}
);
};
layerId = "849A9C4C-BF7C-40C5-8614-1FD725A2A379";
shapes = (
{
closed = 1;
nodes = (
(389,-16,o),
(483,62,o),
(483,197,cs),
(483,295,o),
(433,359,o),
(350,409,cs),
(260,463,ls),
(215,490,o),
(189,517,o),
(189,565,cs),
(189,614,o),
(216,644,o),
(262,644,cs),
(317,644,o),
(344,601,o),
(344,519,c),
(476,548,l),
(473,692,o),
(390,764,o),
(265,764,cs),
(124,764,o),
(41,673,o),
(41,553,cs),
(41,456,o),
(96,387,o),
(167,346,cs),
(258,293,ls),
(302,267,o),
(333,242,o),
(333,187,cs),
(333,136,o),
(307,104,o),
(257,104,cs),
(195,104,o),
(162,154,o),
(162,227,c),
(30,212,l),
(30,55,o),
(125,-16,o),
(254,-16,cs)
);
}
);
userData = {
com.hugojourdan.ColorFlow = {
"0" = 0;
"1" = 0;
"10" = 0;
"11" = 0;
"2" = 0;
"3" = 0;
"4" = 0;
"5" = 0;
"6" = 0;
"7" = 0;
"8" = 0;
"9" = 0;
};
};
width = 515;
}
);
unicode = 83;
userData = {
KernOnName = S;
};
},
{
glyphname = Sacutedotaccent;
layers = (
{
background = {
shapes = (
{
closed = 1;
nodes = (
(399,879,l),
(335,1003,l),
(145,863,l),
(177,798,l)
);
},
{
ref = S;
},
{
pos = (257,177);
ref = dotaccentcomb.case;
}
);
};
layerId = "849A9C4C-BF7C-40C5-8614-1FD725A2A379";
shapes = (
{
ref = S;
},
{
alignment = -1;
angle = -20.00004;
pos = (-69,44);
ref = acutecomb.case;
},
{
alignment = -1;
pos = (258,177);
ref = dotaccentcomb.case;
}
);
userData = {
com.hugojourdan.ColorFlow = {
"0" = 0;
"1" = 0;
"10" = 0;
"11" = 0;
"2" = 0;
"3" = 0;
"4" = 0;
"5" = 0;
"6" = 0;
"7" = 0;
"8" = 0;
"9" = 0;
};
};
width = 515;
}
);
unicode = 7780;
},
{
glyphname = Saltillo;
layers = (
{
layerId = "849A9C4C-BF7C-40C5-8614-1FD725A2A379";
shapes = (
{
closed = 1;
nodes = (
(168,441,l),
(196,666,l),
(196,950,l),
(60,950,l),
(60,649,l),
(73,429,l)
);
}
);
userData = {
com.hugojourdan.ColorFlow = {
"0" = 0;
"1" = 0;
"10" = 0;
"11" = 0;
"2" = 0;
"3" = 0;
"4" = 0;
"5" = 0;
"6" = 0;
"7" = 0;
"8" = 0;
"9" = 0;
};
};
width = 256;
}
);
unicode = 42891;
},
{
glyphname = Germandbls;
layers = (
{
anchors = (
{
name = bottom;
pos = (324,0);
},
{
name = top;
pos = (324,750);
}
);
background = {
shapes = (
{
closed = 1;
nodes = (
(203,0,l),
(203,497,ls),
(203,600,o),
(234,651,o),
(322,651,cs),
(370,651,o),
(399,649,o),
(443,645,c),
(442,653,l),
(347,646,o),
(295,566,o),
(295,502,cs),
(295,421,o),
(328,384,o),
(376,332,cs),
(423,281,ls),
(453,248,o),
(483,209,o),
(483,164,cs),
(483,124,o),
(465,102,o),
(436,102,cs),
(403,102,o),
(376,140,o),
(372,212,c),
(262,197,l),
(268,54,o),
(333,-14,o),
(439,-14,cs),
(539,-14,o),
(616,55,o),
(616,170,cs),
(616,260,o),
(576,331,o),
(523,384,cs),
(480,427,ls),
(443,464,o),
(430,482,o),
(430,525,cs),
(430,592,o),
(491,626,o),
(562,626,c),
(576,737,l),
(511,755,o),
(400,768,o),
(305,768,cs),
(162,768,o),
(58,703,o),
(58,492,cs),
(58,0,l)
);
}
);
};
layerId = "849A9C4C-BF7C-40C5-8614-1FD725A2A379";
shapes = (
{
closed = 1;
nodes = (
(205,0,l),
(205,501,ls),
(205,594,o),
(236,645,o),
(332,645,cs),
(381,645,o),
(405,643,o),
(443,639,c),
(442,650,l),
(353,643,o),
(295,567,o),
(295,493,cs),
(295,425,o),
(320,384,o),
(372,332,cs),
(413,291,ls),
(450,254,o),
(471,215,o),
(471,164,cs),
(471,124,o),
(455,106,o),
(427,106,cs),
(390,106,o),
(366,140,o),
(362,212,c),
(252,199,l),
(258,54,o),
(322,-14,o),
(434,-14,cs),
(538,-14,o),
(616,55,o),
(616,160,cs),
(616,260,o),
(586,321,o),
(518,389,cs),
(480,427,ls),
(443,464,o),
(430,488,o),
(430,520,cs),
(430,592,o),
(485,623,o),
(562,623,c),
(576,734,l),
(511,753,o),
(433,765,o),
(335,765,cs),
(155,765,o),
(58,686,o),
(58,489,cs),
(58,0,l)
);
}
);
userData = {
com.hugojourdan.ColorFlow = {
"0" = 0;
"1" = 0;
"10" = 0;
"11" = 0;
"2" = 0;
"3" = 0;
"4" = 0;
"5" = 0;
"6" = 0;
"7" = 0;
"8" = 0;
"9" = 0;
};
};
width = 648;
}
);
metricRight = S;
unicode = 7838;
},
{
color = 4;
glyphname = Sobliquestroke;
layers = (
{
background = {
shapes = (
{
closed = 1;
nodes = (
(389,-16,o),
(483,69,o),
(483,203,cs),
(483,295,o),
(435,360,o),
(351,410,cs),
(261,464,ls),
(216,491,o),
(183,516,o),
(183,568,cs),
(183,613,o),
(215,646,o),
(257,646,cs),
(318,646,o),
(345,601,o),
(348,520,c),
(476,548,l),
(470,699,o),
(390,764,o),
(257,764,cs),
(129,764,o),
(41,673,o),
(41,554,cs),
(41,456,o),
(88,391,o),
(166,345,cs),
(257,292,ls),
(301,266,o),
(338,242,o),
(338,187,cs),
(338,136,o),
(308,102,o),
(257,102,cs),
(190,102,o),
(163,153,o),
(159,226,c),
(30,212,l),
(30,65,o),
(125,-16,o),
(256,-16,cs)
);
},
{
closed = 1;
nodes = (
(490,404,l),
(471,501,l),
(22,349,l),
(41,252,l)
);
}
);
};
layerId = "849A9C4C-BF7C-40C5-8614-1FD725A2A379";
shapes = (
{
closed = 1;
nodes = (
(389,-16,o),
(483,62,o),
(483,197,cs),
(483,295,o),
(433,354,o),
(350,404,cs),
(260,458,ls),
(215,485,o),
(189,517,o),
(189,565,cs),
(189,614,o),
(217,644,o),
(265,644,cs),
(318,644,o),
(344,605,o),
(344,539,c),
(476,568,l),
(473,692,o),
(390,764,o),
(265,764,cs),
(124,764,o),
(41,673,o),
(41,553,cs),
(41,456,o),
(96,393,o),
(167,352,cs),
(258,299,ls),
(302,273,o),
(333,242,o),
(333,187,cs),
(333,136,o),
(302,104,o),
(252,104,cs),
(190,104,o),
(162,144,o),
(162,207,c),
(30,192,l),
(30,55,o),
(125,-16,o),
(254,-16,cs)
);
},
{
closed = 1;
nodes = (
(466,424,l),
(453,491,l),
(44,339,l),
(57,272,l)
);
}
);
userData = {
com.hugojourdan.ColorFlow = {
"0" = 0;
"1" = 0;
"10" = 0;
"11" = 0;
"2" = 0;
"3" = 0;
"4" = 0;
"5" = 0;
"6" = 0;
"7" = 0;
"8" = 0;
"9" = 0;
};
};
width = 513;
}
);
unicode = 42920;
},
{
glyphname = T;
kernLeft = KO_T;
kernRight = KO_T;
layers = (
{
anchors = (
{
name = bottom;
pos = (237,0);
},
{
name = center;
pos = (237,375);
},
{
name = top;
pos = (237,750);
}
);
background = {
shapes = (
{
closed = 1;
nodes = (
(309,0,l),
(309,628,l),
(461,628,l),
(461,750,l),
(13,750,l),
(13,628,l),
(165,628,l),
(165,0,l)
);
}
);
};
layerId = "849A9C4C-BF7C-40C5-8614-1FD725A2A379";
shapes = (
{
closed = 1;
nodes = (
(310,0,l),
(310,628,l),
(445,628,l),
(459,750,l),
(18,750,l),
(18,628,l),
(164,628,l),
(164,0,l)
);
}
);
userData = {
com.hugojourdan.ColorFlow = {
"0" = 0;
"1" = 0;
"10" = 0;
"11" = 0;
"2" = 0;
"3" = 0;
"4" = 0;
"5" = 0;
"6" = 0;
"7" = 0;
"8" = 0;
"9" = 0;
};
};
width = 473;
}
);
unicode = 84;
userData = {
KernOnName = T;
};
},
{
glyphname = Tbar;
layers = (
{
background = {
shapes = (
{
closed = 1;
nodes = (
(383,295,l),
(394,389,l),
(92,389,l),
(92,295,l)
);
}
);
};
guides = (
{
angle = 83;
pos = (376,393);
}
);
layerId = "849A9C4C-BF7C-40C5-8614-1FD725A2A379";
shapes = (
{
ref = T;
},
{
pos = (237,82);
ref = strokeshortcomb;
}
);
userData = {
com.hugojourdan.ColorFlow = {
"0" = 0;
"1" = 0;
"10" = 0;
"11" = 0;
"2" = 0;
"3" = 0;
"4" = 0;
"5" = 0;
"6" = 0;
"7" = 0;
"8" = 0;
"9" = 0;
};
};
width = 473;
}
);
metricLeft = T;
metricRight = T;
unicode = 358;
},
{
color = 0;
glyphname = Tdiagonalstroke;
layers = (
{
layerId = "849A9C4C-BF7C-40C5-8614-1FD725A2A379";
shapes = (
{
closed = 1;
nodes = (
(284,436,l),
(237,503,l),
(25,-82,l),
(93,-90,l)
);
},
{
closed = 1;
nodes = (
(365,661,l),
(427,832,l),
(359,840,l),
(294,661,l)
);
},
{
ref = T;
}
);
userData = {
com.hugojourdan.ColorFlow = {
"0" = 0;
"1" = 0;
"10" = 0;
"11" = 0;
"2" = 0;
"3" = 0;
"4" = 0;
"5" = 0;
"6" = 0;
"7" = 0;
"8" = 0;
"9" = 0;
};
};
width = 457;
}
);
unicode = 574;
},
{
glyphname = Thook;
layers = (
{
anchors = (
{
name = bottom;
pos = (270,0);
},
{
name = top;
pos = (270,750);
}
);
background = {
shapes = (
{
closed = 1;
nodes = (
(161,521,l),
(142,542,o),
(134,559,o),
(134,582,cs),
(134,606,o),
(151,628,o),
(186,628,cs),
(241,628,l),
(241,750,l),
(196,750,ls),
(91,750,o),
(16,690,o),
(16,596,cs),
(16,550,o),
(32,510,o),
(52,484,c)
);
},
{
closed = 1;
nodes = (
(375,0,l),
(375,628,l),
(511,628,l),
(525,750,l),
(231,750,l),
(231,0,l)
);
}
);
};
layerId = "849A9C4C-BF7C-40C5-8614-1FD725A2A379";
shapes = (
{
closed = 1;
nodes = (
(375,0,l),
(375,628,l),
(511,628,l),
(525,750,l),
(188,750,ls),
(83,750,o),
(16,690,o),
(16,586,cs),
(16,530,o),
(32,490,o),
(52,461,c),
(159,501,l),
(142,522,o),
(134,539,o),
(134,572,cs),
(134,606,o),
(151,628,o),
(186,628,cs),
(231,628,l),
(231,0,l)
);
}
);
userData = {
com.hugojourdan.ColorFlow = {
"0" = 0;
"1" = 0;
"10" = 0;
"11" = 0;
"2" = 0;
"3" = 0;
"4" = 0;
"5" = 0;
"6" = 0;
"7" = 0;
"8" = 0;
"9" = 0;
};
};
width = 539;
}
);
metricLeft = Bhook;
metricRight = T;
unicode = 428;
},
{
glyphname = Tretroflexhook;
layers = (
{
anchors = (
{
name = bottom;
pos = (237,0);
},
{
name = center;
pos = (237,375);
},
{
name = top;
pos = (237,750);
}
);
background = {
shapes = (
{
closed = 1;
nodes = (
(353,-173,o),
(374,-167,o),
(397,-159,c),
(385,-43,l),
(377,-46,o),
(370,-47,o),
(361,-47,cs),
(335,-47,o),
(321,-30,o),
(321,13,cs),
(321,628,l),
(457,628,l),
(471,750,l),
(34,750,l),
(22,628,l),
(177,628,l),
(177,10,ls),
(177,-88,o),
(220,-173,o),
(322,-173,cs)
);
}
);
};
layerId = "849A9C4C-BF7C-40C5-8614-1FD725A2A379";
shapes = (
{
closed = 1;
nodes = (
(351,-168,o),
(379,-164,o),
(410,-154,c),
(397,-46,l),
(386,-50,o),
(376,-52,o),
(362,-52,cs),
(321,-52,o),
(310,-29,o),
(310,19,cs),
(310,628,l),
(445,628,l),
(459,750,l),
(18,750,l),
(18,628,l),
(163,628,l),
(163,0,ls),
(163,-96,o),
(221,-168,o),
(321,-168,cs)
);
}
);
userData = {
com.hugojourdan.ColorFlow = {
"0" = 0;
"1" = 0;
"10" = 0;
"11" = 0;
"2" = 0;
"3" = 0;
"4" = 0;
"5" = 0;
"6" = 0;
"7" = 0;
"8" = 0;
"9" = 0;
};
};
width = 473;
}
);
metricLeft = T;
metricRight = T;
unicode = 430;
},
{
glyphname = U;
kernLeft = KO_U;
kernRight = KO_U;
layers = (
{
anchors = (
{
name = bottom;
pos = (282,0);
},
{
name = center;
pos = (280,389);
},
{
name = ogonek;
pos = (468,10);
},
{
name = top;
pos = (282,750);
},
{
name = topright;
pos = (543,750);
}
);
background = {
shapes = (
{
closed = 1;
nodes = (
(438,-14,o),
(508,97,o),
(508,243,cs),
(508,750,l),
(371,750,l),
(371,230,ls),
(371,157,o),
(343,109,o),
(287,109,cs),
(231,109,o),
(203,157,o),
(203,230,cs),
(203,750,l),
(56,750,l),
(56,243,ls),
(56,76,o),
(126,-14,o),
(285,-14,cs)
);
}
);
};
layerId = "849A9C4C-BF7C-40C5-8614-1FD725A2A379";
shapes = (
{
closed = 1;
nodes = (
(445,-14,o),
(508,97,o),
(508,243,cs),
(508,750,l),
(371,750,l),
(371,222,ls),
(371,157,o),
(343,114,o),
(287,114,cs),
(231,114,o),
(203,157,o),
(203,222,cs),
(203,750,l),
(56,750,l),
(56,243,ls),
(56,75,o),
(133,-14,o),
(280,-14,cs)
);
}
);
userData = {
com.hugojourdan.ColorFlow = {
"0" = 0;
"1" = 0;
"10" = 0;
"11" = 0;
"2" = 0;
"3" = 0;
"4" = 0;
"5" = 0;
"6" = 0;
"7" = 0;
"8" = 0;
"9" = 0;
};
};
width = 564;
}
);
metricRight = "=|";
unicode = 85;
userData = {
KernOnName = U;
};
},
{
glyphname = Ubar;
layers = (
{
background = {
shapes = (
{
closed = 1;
nodes = (
(552,397,l),
(563,486,l),
(5,486,l),
(5,397,l)
);
}
);
};
layerId = "849A9C4C-BF7C-40C5-8614-1FD725A2A379";
shapes = (
{
ref = U;
},
{
pos = (280,-223);
ref = strokelongcomb.case;
}
);
userData = {
com.hugojourdan.ColorFlow = {
"0" = 0;
"1" = 0;
"10" = 0;
"11" = 0;
"2" = 0;
"3" = 0;
"4" = 0;
"5" = 0;
"6" = 0;
"7" = 0;
"8" = 0;
"9" = 0;
};
};
width = 564;
}
);
unicode = 580;
},
{
glyphname = Udieresisacute;
kernLeft = KO_U;
kernRight = KO_U;
layers = (
{
layerId = "849A9C4C-BF7C-40C5-8614-1FD725A2A379";
shapes = (
{
closed = 1;
nodes = (
(399,1045,l),
(335,1169,l),
(145,1029,l),
(177,964,l)
);
},
{
ref = U;
},
{
pos = (281,-42);
ref = dieresiscomb.case;
}
);
userData = {
com.hugojourdan.ColorFlow = {
"0" = 0;
"1" = 0;
"10" = 0;
"11" = 0;
"2" = 0;
"3" = 0;
"4" = 0;
"5" = 0;
"6" = 0;
"7" = 0;
"8" = 0;
"9" = 0;
};
};
width = 562;
}
);
unicode = 471;
},
{
glyphname = Udieresisgrave;
kernLeft = KO_U;
kernRight = KO_U;
layers = (
{
layerId = "849A9C4C-BF7C-40C5-8614-1FD725A2A379";
shapes = (
{
closed = 1;
nodes = (
(399,1029,l),
(209,1169,l),
(145,1045,l),
(367,964,l)
);
},
{
ref = U;
},
{
alignment = -1;
pos = (281,-42);
ref = dieresiscomb.case;
}
);
userData = {
com.hugojourdan.ColorFlow = {
"0" = 0;
"1" = 0;
"10" = 0;
"11" = 0;
"2" = 0;
"3" = 0;
"4" = 0;
"5" = 0;
"6" = 0;
"7" = 0;
"8" = 0;
"9" = 0;
};
};
width = 562;
}
);
unicode = 475;
},
{
glyphname = Uhorn;
kernLeft = KO_U;
layers = (
{
anchors = (
{
name = bottom;
pos = (282,0);
},
{
name = top;
pos = (282,750);
}
);
background = {
shapes = (
{
closed = 1;
nodes = (
(438,-14,o),
(508,97,o),
(508,243,cs),
(508,665,l),
(514,664,o),
(523,663,o),
(531,663,cs),
(606,663,o),
(681,723,o),
(681,810,cs),
(681,863,o),
(663,899,o),
(653,912,c),
(546,872,l),
(559,850,o),
(573,818,o),
(573,792,cs),
(573,766,o),
(555,750,o),
(525,750,c),
(371,750,l),
(371,230,ls),
(371,157,o),
(343,109,o),
(287,109,cs),
(231,109,o),
(203,157,o),
(203,230,cs),
(203,750,l),
(56,750,l),
(56,243,ls),
(56,76,o),
(126,-14,o),
(285,-14,cs)
);
}
);
};
layerId = "849A9C4C-BF7C-40C5-8614-1FD725A2A379";
shapes = (
{
closed = 1;
nodes = (
(445,-14,o),
(508,97,o),
(508,243,cs),
(508,723,l),
(433,666,l),
(568,639,o),
(654,711,o),
(654,810,cs),
(654,862,o),
(641,895,o),
(626,914,c),
(512,871,l),
(528,850,o),
(536,831,o),
(536,805,cs),
(536,771,o),
(518,750,o),
(480,750,cs),
(371,750,l),
(371,222,ls),
(371,157,o),
(343,114,o),
(287,114,cs),
(231,114,o),
(203,157,o),
(203,222,cs),
(203,750,l),
(56,750,l),
(56,243,ls),
(56,75,o),
(133,-14,o),
(280,-14,cs)
);
}
);
userData = {
com.hugojourdan.ColorFlow = {
"0" = 0;
"1" = 0;
"10" = 0;
"11" = 0;
"2" = 0;
"3" = 0;
"4" = 0;
"5" = 0;
"6" = 0;
"7" = 0;
"8" = 0;
"9" = 0;
};
};
width = 624;
}
);
metricLeft = U;
unicode = 431;
},
{
glyphname = Upsilonafrican;
layers = (
{
anchors = (
{
name = bottom;
pos = (281,0);
},
{
name = top;
pos = (281,750);
}
);
background = {
shapes = (
{
pos = (-10,747);
ref = Omega;
scale = (1,-1);
}
);
};
layerId = "849A9C4C-BF7C-40C5-8614-1FD725A2A379";
shapes = (
{
closed = 1;
nodes = (
(434,-14,o),
(526,103,o),
(526,320,cs),
(526,512,o),
(386,702,o),
(312,716,c),
(309,628,l),
(336,610,o),
(371,475,o),
(371,341,cs),
(371,188,o),
(345,114,o),
(281,114,cs),
(219,114,o),
(191,188,o),
(191,341,cs),
(191,474,o),
(227,608,o),
(249,628,c),
(246,716,l),
(156,680,o),
(36,511,o),
(36,320,cs),
(36,103,o),
(128,-14,o),
(281,-14,cs)
);
},
{
closed = 1;
nodes = (
(249,628,l),
(249,750,l),
(46,750,l),
(30,628,l)
);
},
{
closed = 1;
nodes = (
(532,628,l),
(516,750,l),
(309,750,l),
(309,628,l)
);
}
);
userData = {
com.hugojourdan.ColorFlow = {
"0" = 0;
"1" = 0;
"10" = 0;
"11" = 0;
"2" = 0;
"3" = 0;
"4" = 0;
"5" = 0;
"6" = 0;
"7" = 0;
"8" = 0;
"9" = 0;
};
};
width = 562;
}
);
unicode = 433;
},
{
glyphname = Utildeacute;
layers = (
{
layerId = "849A9C4C-BF7C-40C5-8614-1FD725A2A379";
shapes = (
{
closed = 1;
nodes = (
(412,1045,l),
(348,1169,l),
(158,1029,l),
(190,964,l)
);
},
{
ref = U;
},
{
alignment = -1;
pos = (285,-30);
ref = tildecomb.case;
}
);
userData = {
com.hugojourdan.ColorFlow = {
"0" = 0;
"1" = 0;
"10" = 0;
"11" = 0;
"2" = 0;
"3" = 0;
"4" = 0;
"5" = 0;
"6" = 0;
"7" = 0;
"8" = 0;
"9" = 0;
};
};
width = 571;
}
);
unicode = 7800;
},
{
glyphname = V;
kernLeft = KO_V;
kernRight = KO_V;
layers = (
{
anchors = (
{
name = bottom;
pos = (264,0);
},
{
name = top;
pos = (264,750);
}
);
background = {
shapes = (
{
closed = 1;
nodes = (
(349,8,l),
(507,750,l),
(383,750,l),
(277,207,l),
(255,92,l),
(280,92,l),
(265,207,l),
(162,760,l),
(15,742,l),
(180,-13,l)
);
}
);
};
layerId = "849A9C4C-BF7C-40C5-8614-1FD725A2A379";
shapes = (
{
closed = 1;
nodes = (
(360,9,l),
(513,750,l),
(386,750,l),
(285,196,ls),
(278,158,o),
(274,122,o),
(268,88,c),
(294,88,l),
(289,121,o),
(282,158,o),
(275,195,cs),
(163,764,l),
(15,750,l),
(189,-12,l)
);
}
);
userData = {
com.hugojourdan.ColorFlow = {
"0" = 0;
"1" = 0;
"10" = 0;
"11" = 0;
"2" = 0;
"3" = 0;
"4" = 0;
"5" = 0;
"6" = 0;
"7" = 0;
"8" = 0;
"9" = 0;
};
};
width = 528;
}
);
metricLeft = A;
metricRight = "=|";
unicode = 86;
userData = {
KernOnName = V;
};
},
{
color = 0;
glyphname = Gammaafrican;
layers = (
{
anchors = (
{
name = bottom;
pos = (254,0);
},
{
name = top;
pos = (254,750);
}
);
background = {
shapes = (
{
closed = 1;
nodes = (
(342,208,l),
(500,750,l),
(371,750,l),
(257,356,l),
(151,760,l),
(8,742,l),
(173,187,l)
);
}
);
};
layerId = "849A9C4C-BF7C-40C5-8614-1FD725A2A379";
shapes = (
{
closed = 1;
nodes = (
(254,-59,l),
(212,-59,o),
(189,-26,o),
(189,10,cs),
(189,43,o),
(197,71,o),
(223,130,cs),
(502,750,l),
(353,750,l),
(107,163,ls),
(80,99,o),
(60,51,o),
(60,-8,cs),
(60,-98,o),
(129,-185,o),
(254,-185,c)
);
},
{
closed = 1;
nodes = (
(379,-185,o),
(448,-98,o),
(448,-8,cs),
(448,51,o),
(428,99,o),
(401,163,cs),
(151,760,l),
(8,742,l),
(283,130,ls),
(309,71,o),
(319,43,o),
(319,11,cs),
(319,-26,o),
(296,-59,o),
(254,-59,c),
(254,-185,l)
);
}
);
userData = {
com.hugojourdan.ColorFlow = {
"0" = 0;
"1" = 0;
"10" = 0;
"11" = 0;
"2" = 0;
"3" = 0;
"4" = 0;
"5" = 0;
"6" = 0;
"7" = 0;
"8" = 0;
"9" = 0;
};
};
width = 508;
}
);
unicode = 404;
},
{
color = 8;
glyphname = Vhook;
kernLeft = KO_U;
layers = (
{
anchors = (
{
name = bottom;
pos = (272,0);
},
{
name = top;
pos = (272,750);
}
);
background = {
shapes = (
{
closed = 1;
nodes = (
(407,-14,o),
(508,138,o),
(508,385,cs),
(508,636,o),
(425,778,o),
(319,778,c),
(269,653,l),
(316,653,o),
(361,573,o),
(361,386,cs),
(361,173,o),
(318,109,o),
(261,109,cs),
(225,109,o),
(203,137,o),
(203,200,cs),
(203,750,l),
(56,750,l),
(56,213,ls),
(56,56,o),
(126,-14,o),
(244,-14,cs)
);
}
);
};
layerId = "849A9C4C-BF7C-40C5-8614-1FD725A2A379";
shapes = (
{
closed = 1;
nodes = (
(408,-14,o),
(508,108,o),
(508,438,cs),
(508,680,o),
(454,760,o),
(345,760,cs),
(309,760,o),
(283,751,o),
(259,738,c),
(288,625,l),
(296,633,o),
(308,638,o),
(320,638,cs),
(347,638,o),
(361,612,o),
(361,448,cs),
(361,178,o),
(323,114,o),
(264,114,cs),
(225,114,o),
(203,141,o),
(203,205,cs),
(203,750,l),
(56,750,l),
(56,213,ls),
(56,56,o),
(125,-14,o),
(247,-14,cs)
);
}
);
userData = {
com.hugojourdan.ColorFlow = {
"0" = 0;
"1" = 0;
"10" = 0;
"11" = 0;
"2" = 0;
"3" = 0;
"4" = 0;
"5" = 0;
"6" = 0;
"7" = 0;
"8" = 0;
"9" = 0;
};
};
width = 544;
}
);
metricLeft = U;
metricRight = O;
unicode = 434;
},
{
glyphname = Vturned;
layers = (
{
anchors = (
{
name = bottom;
pos = (260,0);
},
{
name = top;
pos = (264,750);
}
);
layerId = "849A9C4C-BF7C-40C5-8614-1FD725A2A379";
shapes = (
{
closed = 1;
nodes = (
(144,0,l),
(270,656,l),
(245,656,l),
(362,-10,l),
(525,8,l),
(360,763,l),
(165,742,l),
(7,0,l)
);
}
);
userData = {
com.hugojourdan.ColorFlow = {
"0" = 0;
"1" = 0;
"10" = 0;
"11" = 0;
"2" = 0;
"3" = 0;
"4" = 0;
"5" = 0;
"6" = 0;
"7" = 0;
"8" = 0;
"9" = 0;
};
};
width = 533;
}
);
unicode = 581;
},
{
glyphname = W;
kernLeft = KO_W;
kernRight = KO_V;
layers = (
{
anchors = (
{
name = bottom;
pos = (403,0);
},
{
name = top;
pos = (407,750);
}
);
background = {
shapes = (
{
closed = 1;
nodes = (
(325,0,l),
(414,573,l),
(393,573,l),
(476,0,l),
(645,0,l),
(777,750,l),
(661,750,l),
(560,144,l),
(573,144,l),
(486,750,l),
(342,750,l),
(248,144,l),
(261,144,l),
(167,750,l),
(22,750,l),
(153,0,l)
);
}
);
};
guides = (
{
pos = (552,-8);
}
);
layerId = "849A9C4C-BF7C-40C5-8614-1FD725A2A379";
shapes = (
{
closed = 1;
nodes = (
(316,0,l),
(399,577,l),
(387,577,l),
(465,0,l),
(615,0,l),
(762,750,l),
(639,750,l),
(531,140,l),
(551,139,l),
(537,251,l),
(471,746,l),
(326,746,l),
(254,254,l),
(239,140,l),
(261,140,l),
(166,761,l),
(18,742,l),
(159,0,l)
);
}
);
userData = {
com.hugojourdan.ColorFlow = {
"0" = 0;
"1" = 0;
"10" = 0;
"11" = 0;
"2" = 0;
"3" = 0;
"4" = 0;
"5" = 0;
"6" = 0;
"7" = 0;
"8" = 0;
"9" = 0;
};
};
width = 780;
}
);
metricRight = "=|";
unicode = 87;
},
{
glyphname = Whook;
layers = (
{
anchors = (
{
name = bottom;
pos = (405,0);
},
{
name = top;
pos = (405,750);
}
);
background = {
shapes = (
{
closed = 1;
nodes = (
(309,0,l),
(398,573,l),
(379,573,l),
(462,0,l),
(610,0,l),
(718,604,ls),
(723,630,o),
(738,639,o),
(757,639,cs),
(774,639,o),
(783,634,o),
(796,624,c),
(825,738,l),
(800,752,o),
(776,760,o),
(749,760,cs),
(648,760,o),
(606,696,o),
(591,582,cs),
(535,144,l),
(552,144,l),
(466,746,l),
(321,746,l),
(228,144,l),
(246,144,l),
(165,761,l),
(13,742,l),
(154,0,l)
);
}
);
};
layerId = "849A9C4C-BF7C-40C5-8614-1FD725A2A379";
shapes = (
{
closed = 1;
nodes = (
(316,0,l),
(403,600,l),
(384,600,l),
(465,0,l),
(615,0,l),
(723,604,ls),
(728,630,o),
(743,639,o),
(762,639,cs),
(779,639,o),
(788,634,o),
(801,624,c),
(830,738,l),
(805,752,o),
(781,760,o),
(754,760,cs),
(653,760,o),
(614,710,o),
(599,602,cs),
(534,144,l),
(551,144,l),
(471,746,l),
(326,746,l),
(239,144,l),
(260,144,l),
(166,761,l),
(18,742,l),
(159,0,l)
);
}
);
userData = {
com.hugojourdan.ColorFlow = {
"0" = 0;
"1" = 0;
"10" = 0;
"11" = 0;
"2" = 0;
"3" = 0;
"4" = 0;
"5" = 0;
"6" = 0;
"7" = 0;
"8" = 0;
"9" = 0;
};
};
width = 810;
}
);
unicode = 11378;
},
{
glyphname = X;
kernLeft = KO_X;
kernRight = KO_K;
layers = (
{
anchors = (
{
name = bottom;
pos = (257,0);
},
{
name = top;
pos = (257,750);
}
);
background = {
shapes = (
{
closed = 1;
nodes = (
(511,0,l),
(323,438,l),
(286,438,l),
(161,750,l),
(0,750,l),
(187,327,l),
(219,327,l),
(352,0,l)
);
},
{
closed = 1;
nodes = (
(129,0,l),
(265,315,l),
(309,315,l),
(499,750,l),
(366,750,l),
(221,417,l),
(182,417,l),
(-5,0,l)
);
}
);
};
layerId = "849A9C4C-BF7C-40C5-8614-1FD725A2A379";
shapes = (
{
closed = 1;
nodes = (
(484,750,l),
(354,750,l),
(232,417,l),
(184,417,l),
(20,0,l),
(151,0,l),
(264,315,l),
(317,315,l)
);
},
{
closed = 1;
nodes = (
(164,762,l),
(24,725,l),
(180,327,l),
(223,327,l),
(355,-22,l),
(493,18,l),
(323,438,l),
(274,438,l)
);
}
);
userData = {
com.hugojourdan.ColorFlow = {
"0" = 0;
"1" = 0;
"10" = 0;
"11" = 0;
"2" = 0;
"3" = 0;
"4" = 0;
"5" = 0;
"6" = 0;
"7" = 0;
"8" = 0;
"9" = 0;
};
};
width = 513;
}
);
metricRight = "=|";
unicode = 88;
userData = {
KernOnName = X;
};
},
{
glyphname = Y;
kernLeft = KO_Y;
kernRight = KO_Y;
layers = (
{
anchors = (
{
name = bottom;
pos = (250,0);
},
{
name = top;
pos = (250,750);
},
{
name = topleft;
pos = (9,750);
}
);
background = {
shapes = (
{
closed = 1;
nodes = (
(321,0,l),
(321,276,l),
(500,750,l),
(369,750,l),
(228,358,l),
(286,358,l),
(150,750,l),
(-5,750,l),
(174,268,l),
(174,0,l)
);
}
);
};
layerId = "849A9C4C-BF7C-40C5-8614-1FD725A2A379";
shapes = (
{
closed = 1;
nodes = (
(321,0,l),
(321,266,l),
(487,750,l),
(359,750,l),
(262,439,l),
(239,336,l),
(272,336,l),
(249,439,l),
(154,761,l),
(8,739,l),
(174,248,l),
(174,0,l)
);
}
);
userData = {
com.hugojourdan.ColorFlow = {
"0" = 0;
"1" = 0;
"10" = 0;
"11" = 0;
"2" = 0;
"3" = 0;
"4" = 0;
"5" = 0;
"6" = 0;
"7" = 0;
"8" = 0;
"9" = 0;
};
};
width = 495;
}
);
metricRight = "=|";
unicode = 89;
userData = {
KernOnName = Y;
};
},
{
glyphname = Yhook;
kernLeft = KO_Y;
layers = (
{
anchors = (
{
name = bottom;
pos = (258,0);
},
{
name = top;
pos = (258,750);
}
);
background = {
shapes = (
{
closed = 1;
nodes = (
(321,0,l),
(321,266,l),
(437,604,ls),
(445,628,o),
(457,639,o),
(476,639,cs),
(493,639,o),
(502,634,o),
(515,624,c),
(544,738,l),
(519,752,o),
(495,760,o),
(468,760,cs),
(372,760,o),
(333,697,o),
(302,582,cs),
(252,398,l),
(148,761,l),
(8,739,l),
(174,248,l),
(174,0,l)
);
}
);
};
layerId = "849A9C4C-BF7C-40C5-8614-1FD725A2A379";
shapes = (
{
closed = 1;
nodes = (
(321,0,l),
(321,266,l),
(427,604,ls),
(436,631,o),
(450,639,o),
(469,639,cs),
(486,639,o),
(494,634,o),
(505,624,c),
(534,738,l),
(511,752,o),
(485,760,o),
(458,760,cs),
(372,760,o),
(325,706,o),
(305,627,cs),
(257,439,l),
(239,336,l),
(272,336,l),
(249,439,l),
(154,761,l),
(8,739,l),
(174,248,l),
(174,0,l)
);
}
);
userData = {
com.hugojourdan.ColorFlow = {
"0" = 0;
"1" = 0;
"10" = 0;
"11" = 0;
"2" = 0;
"3" = 0;
"4" = 0;
"5" = 0;
"6" = 0;
"7" = 0;
"8" = 0;
"9" = 0;
};
};
width = 516;
}
);
metricLeft = Y;
unicode = 435;
},
{
glyphname = Ystroke;
layers = (
{
layerId = "849A9C4C-BF7C-40C5-8614-1FD725A2A379";
shapes = (
{
alignment = -1;
pos = (11,0);
ref = Y;
},
{
closed = 1;
nodes = (
(511,567,l),
(521,636,l),
(7,636,l),
(7,567,l)
);
}
);
userData = {
com.hugojourdan.ColorFlow = {
"0" = 0;
"1" = 0;
"10" = 0;
"11" = 0;
"2" = 0;
"3" = 0;
"4" = 0;
"5" = 0;
"6" = 0;
"7" = 0;
"8" = 0;
"9" = 0;
};
};
width = 535;
}
);
unicode = 590;
},
{
glyphname = Z;
kernLeft = KO_Z;
kernRight = KO_Z;
layers = (
{
anchors = (
{
name = bottom;
pos = (233,0);
},
{
name = center;
pos = (237,383);
},
{
name = top;
pos = (251,750);
}
);
background = {
shapes = (
{
closed = 1;
nodes = (
(438,0,l),
(453,122,l),
(189,122,l),
(450,651,l),
(438,750,l),
(43,750,l),
(43,632,l),
(289,632,l),
(28,103,l),
(40,0,l)
);
}
);
};
layerId = "849A9C4C-BF7C-40C5-8614-1FD725A2A379";
shapes = (
{
closed = 1;
nodes = (
(438,0,l),
(453,122,l),
(132,122,l),
(168,65,l),
(450,650,l),
(440,750,l),
(43,750,l),
(43,628,l),
(346,628,l),
(310,689,l),
(28,103,l),
(38,0,l)
);
}
);
userData = {
com.hugojourdan.ColorFlow = {
"0" = 0;
"1" = 0;
"10" = 0;
"11" = 0;
"2" = 0;
"3" = 0;
"4" = 0;
"5" = 0;
"6" = 0;
"7" = 0;
"8" = 0;
"9" = 0;
};
};
width = 481;
}
);
metricRight = "=|";
unicode = 90;
},
{
glyphname = Zstroke;
layers = (
{
background = {
shapes = (
{
closed = 1;
nodes = (
(406,341,l),
(416,431,l),
(55,431,l),
(55,341,l)
);
}
);
};
layerId = "849A9C4C-BF7C-40C5-8614-1FD725A2A379";
shapes = (
{
ref = Z;
},
{
pos = (237,90);
ref = strokeshortcomb;
scale = (1.17,1);
}
);
userData = {
com.hugojourdan.ColorFlow = {
"0" = 0;
"1" = 0;
"10" = 0;
"11" = 0;
"2" = 0;
"3" = 0;
"4" = 0;
"5" = 0;
"6" = 0;
"7" = 0;
"8" = 0;
"9" = 0;
};
};
width = 481;
}
);
unicode = 437;
},
{
glyphname = T_h;
kernLeft = KO_T;
kernRight = KO_T_h;
layers = (
{
background = {
shapes = (
{
closed = 1;
nodes = (
(651,0,l),
(651,750,l),
(511,750,l),
(511,0,l)
);
},
{
closed = 1;
nodes = (
(313,0,l),
(313,628,l),
(449,628,l),
(463,750,l),
(22,750,l),
(22,628,l),
(169,628,l),
(169,0,l)
);
},
{
closed = 1;
nodes = (
(651,287,l),
(651,382,o),
(683,454,o),
(730,454,cs),
(779,454,o),
(785,408,o),
(785,348,cs),
(785,0,l),
(925,0,l),
(925,404,ls),
(925,521,o),
(874,573,o),
(795,573,cs),
(718,573,o),
(657,526,o),
(641,418,c)
);
}
);
};
layerId = "849A9C4C-BF7C-40C5-8614-1FD725A2A379";
shapes = (
{
ref = T;
},
{
alignment = -1;
pos = (447,0);
ref = h;
}
);
userData = {
com.hugojourdan.ColorFlow = {
"0" = 0;
"1" = 0;
"10" = 0;
"11" = 0;
"2" = 0;
"3" = 0;
"4" = 0;
"5" = 0;
"6" = 0;
"7" = 0;
"8" = 0;
"9" = 0;
};
};
width = 979;
}
);
metricLeft = T;
},
{
glyphname = Ismall;
layers = (
{
anchors = (
{
name = bottom;
pos = (183,0);
},
{
name = top;
pos = (183,564);
}
);
layerId = "849A9C4C-BF7C-40C5-8614-1FD725A2A379";
shapes = (
{
closed = 1;
nodes = (
(254,54,l),
(254,525,l),
(113,525,l),
(113,54,l)
);
},
{
closed = 1;
nodes = (
(342,0,l),
(342,105,l),
(37,105,l),
(24,0,l)
);
},
{
closed = 1;
nodes = (
(329,458,l),
(342,563,l),
(24,563,l),
(24,458,l)
);
}
);
userData = {
com.hugojourdan.ColorFlow = {
"0" = 0;
"1" = 0;
"10" = 0;
"11" = 0;
"2" = 0;
"3" = 0;
"4" = 0;
"5" = 0;
"6" = 0;
"7" = 0;
"8" = 0;
"9" = 0;
};
};
width = 366;
}
);
unicode = 618;
},
{
glyphname = a;
kernLeft = KO_a;
kernRight = KO_a;
layers = (
{
anchors = (
{
name = bottom;
pos = (232,0);
},
{
name = center;
pos = (234,287);
},
{
name = ogonek;
pos = (497,-5);
},
{
name = top;
pos = (237,563);
}
);
background = {
shapes = (
{
closed = 1;
nodes = (
(437,0,l),
(422,45,o),
(417,94,o),
(417,148,cs),
(417,372,ls),
(417,498,o),
(355,573,o),
(234,573,cs),
(134,573,o),
(60,521,o),
(43,406,c),
(171,386,l),
(176,428,o),
(192,461,o),
(227,461,cs),
(264,461,o),
(277,418,o),
(277,367,cs),
(277,86,l),
(290,86,l),
(290,54,o),
(295,28,o),
(305,0,c)
);
},
{
closed = 1;
nodes = (
(234,-12,o),
(276,35,o),
(293,92,c),
(277,175,l),
(277,129,o),
(255,102,o),
(222,102,cs),
(187,102,o),
(169,127,o),
(169,157,cs),
(169,210,o),
(208,256,o),
(277,256,cs),
(289,256,l),
(289,351,l),
(277,351,ls),
(135,351,o),
(29,268,o),
(29,138,cs),
(29,48,o),
(81,-12,o),
(161,-12,cs)
);
}
);
};
layerId = "849A9C4C-BF7C-40C5-8614-1FD725A2A379";
shapes = (
{
closed = 1;
nodes = (
(432,0,l),
(417,45,o),
(412,94,o),
(412,148,cs),
(412,372,ls),
(412,498,o),
(353,573,o),
(222,573,cs),
(129,573,o),
(55,521,o),
(38,414,c),
(162,387,l),
(167,428,o),
(183,463,o),
(218,463,cs),
(259,463,o),
(272,428,o),
(272,387,cs),
(272,86,l),
(281,86,l),
(281,54,o),
(286,28,o),
(296,0,c)
);
},
{
closed = 1;
nodes = (
(229,-12,o),
(271,35,o),
(288,92,c),
(272,160,l),
(272,124,o),
(250,99,o),
(217,99,cs),
(181,99,o),
(163,126,o),
(163,168,cs),
(163,222,o),
(203,261,o),
(272,261,cs),
(284,261,l),
(284,336,l),
(272,336,ls),
(130,336,o),
(24,280,o),
(24,148,cs),
(24,48,o),
(76,-12,o),
(156,-12,cs)
);
}
);
userData = {
com.hugojourdan.ColorFlow = {
"0" = 0;
"1" = 0;
"10" = 0;
"11" = 0;
"2" = 0;
"3" = 0;
"4" = 0;
"5" = 0;
"6" = 0;
"7" = 0;
"8" = 0;
"9" = 0;
};
};
width = 460;
}
);
unicode = 97;
userData = {
KernOnName = a;
};
},
{
glyphname = "alpha-latin";
kernLeft = KO_e;
layers = (
{
anchors = (
{
name = bottom;
pos = (258,0);
},
{
name = top;
pos = (258,564);
}
);
layerId = "849A9C4C-BF7C-40C5-8614-1FD725A2A379";
shapes = (
{
closed = 1;
nodes = (
(476,-13,o),
(496,-7,o),
(516,0,c),
(505,104,l),
(498,102,o),
(492,101,o),
(483,101,cs),
(466,101,o),
(455,113,o),
(455,138,cs),
(455,572,l),
(321,556,l),
(321,478,l),
(315,478,l),
(315,152,l),
(326,152,l),
(326,43,o),
(365,-13,o),
(448,-13,cs)
);
},
{
closed = 1;
nodes = (
(292,-13,o),
(338,54,o),
(338,145,c),
(315,235,l),
(315,149,o),
(299,95,o),
(248,95,cs),
(198,95,o),
(178,167,o),
(178,279,cs),
(178,390,o),
(198,465,o),
(251,465,cs),
(299,465,o),
(315,404,o),
(315,320,c),
(338,408,l),
(338,488,o),
(304,573,o),
(209,573,cs),
(87,573,o),
(35,442,o),
(35,278,cs),
(35,98,o),
(87,-13,o),
(202,-13,cs)
);
}
);
userData = {
com.hugojourdan.ColorFlow = {
"0" = 0;
"1" = 0;
"10" = 0;
"11" = 0;
"2" = 0;
"3" = 0;
"4" = 0;
"5" = 0;
"6" = 0;
"7" = 0;
"8" = 0;
"9" = 0;
};
};
width = 516;
}
);
metricLeft = d;
unicode = 593;
},
{
glyphname = aringacute;
layers = (
{
background = {
shapes = (
{
alignment = -1;
pos = (227,165);
ref = acutecomb;
}
);
};
layerId = "849A9C4C-BF7C-40C5-8614-1FD725A2A379";
shapes = (
{
closed = 1;
nodes = (
(450,889,l),
(347,984,l),
(247,795,l),
(279,768,l)
);
},
{
ref = a;
},
{
pos = (220,0);
ref = ringcomb;
}
);
userData = {
com.hugojourdan.ColorFlow = {
"0" = 0;
"1" = 0;
"10" = 0;
"11" = 0;
"2" = 0;
"3" = 0;
"4" = 0;
"5" = 0;
"6" = 0;
"7" = 0;
"8" = 0;
"9" = 0;
};
};
width = 480;
}
);
unicode = 507;
},
{
glyphname = ae;
kernLeft = KO_a;
kernRight = KO_e;
layers = (
{
anchors = (
{
name = bottom;
pos = (354,0);
},
{
name = top;
pos = (354,563);
}
);
background = {
shapes = (
{
closed = 1;
nodes = (
(266,-13,o),
(326,50,o),
(336,134,c),
(308,134,l),
(343,24,o),
(397,-13,o),
(487,-13,cs),
(587,-13,o),
(651,61,o),
(668,154,c),
(548,179,l),
(542,138,o),
(526,93,o),
(484,93,cs),
(413,93,o),
(409,194,o),
(409,279,c),
(387,245,l),
(669,245,l),
(671,274,o),
(672,305,o),
(672,332,cs),
(672,466,o),
(614,570,o),
(484,570,cs),
(413,570,o),
(357,535,o),
(350,494,c),
(364,494,l),
(354,545,o),
(299,570,o),
(238,570,cs),
(164,570,o),
(69,538,o),
(53,418,c),
(177,391,l),
(183,433,o),
(201,463,o),
(234,463,cs),
(274,463,o),
(284,421,o),
(284,383,cs),
(284,336,l),
(150,336,o),
(24,285,o),
(24,150,cs),
(24,45,o),
(89,-13,o),
(191,-13,cs)
);
},
{
closed = 1;
nodes = (
(184,98,o),
(163,120,o),
(163,164,cs),
(163,231,o),
(215,261,o),
(282,261,c),
(282,172,ls),
(282,127,o),
(251,98,o),
(218,98,cs)
);
},
{
closed = 1;
nodes = (
(408,393,o),
(430,466,o),
(480,466,cs),
(534,466,o),
(546,398,o),
(543,290,c),
(565,324,l),
(387,324,l),
(409,290,l)
);
}
);
};
layerId = "849A9C4C-BF7C-40C5-8614-1FD725A2A379";
shapes = (
{
closed = 1;
nodes = (
(266,-13,o),
(326,50,o),
(336,134,c),
(308,134,l),
(343,24,o),
(390,-13,o),
(480,-13,cs),
(587,-13,o),
(651,61,o),
(668,154,c),
(544,180,l),
(538,136,o),
(526,93,o),
(481,93,cs),
(413,93,o),
(409,194,o),
(409,279,c),
(387,239,l),
(669,239,l),
(671,274,o),
(672,305,o),
(672,332,cs),
(672,466,o),
(614,573,o),
(482,573,cs),
(408,573,o),
(357,535,o),
(340,494,c),
(364,494,l),
(354,545,o),
(287,573,o),
(226,573,cs),
(143,573,o),
(57,534,o),
(38,414,c),
(162,387,l),
(168,432,o),
(184,463,o),
(220,463,cs),
(257,463,o),
(272,430,o),
(272,387,cs),
(272,336,l),
(138,336,o),
(24,285,o),
(24,150,cs),
(24,45,o),
(89,-13,o),
(191,-13,cs)
);
},
{
closed = 1;
nodes = (
(184,99,o),
(163,122,o),
(163,168,cs),
(163,224,o),
(205,261,o),
(272,261,c),
(272,160,ls),
(272,124,o),
(251,99,o),
(218,99,cs)
);
},
{
closed = 1;
nodes = (
(534,469,o),
(547,398,o),
(543,290,c),
(565,328,l),
(387,328,l),
(408,290,l),
(410,402,o),
(430,469,o),
(480,469,cs)
);
}
);
userData = {
com.hugojourdan.ColorFlow = {
"0" = 0;
"1" = 0;
"10" = 0;
"11" = 0;
"2" = 0;
"3" = 0;
"4" = 0;
"5" = 0;
"6" = 0;
"7" = 0;
"8" = 0;
"9" = 0;
};
};
width = 702;
}
);
metricLeft = a;
metricRight = e;
unicode = 230;
},
{
glyphname = b;
kernLeft = KO_l;
kernRight = KO_o;
layers = (
{
anchors = (
{
name = bottom;
pos = (258,0);
},
{
name = center;
pos = (253,282);
},
{
name = top;
pos = (356,563);
}
);
background = {
shapes = (
{
closed = 1;
nodes = (
(192,0,l),
(192,111,l),
(200,111,l),
(200,750,l),
(60,750,l),
(60,0,l)
);
},
{
closed = 1;
nodes = (
(437,-13,o),
(493,115,o),
(493,279,cs),
(493,459,o),
(437,573,o),
(320,573,cs),
(228,573,o),
(177,493,o),
(177,392,c),
(200,322,l),
(200,395,o),
(222,455,o),
(275,455,cs),
(327,455,o),
(350,377,o),
(350,278,cs),
(350,181,o),
(327,105,o),
(272,105,cs),
(222,105,o),
(200,167,o),
(200,237,c),
(177,169,l),
(177,79,o),
(216,-13,o),
(313,-13,cs)
);
}
);
};
layerId = "849A9C4C-BF7C-40C5-8614-1FD725A2A379";
shapes = (
{
closed = 1;
nodes = (
(418,-13,o),
(470,115,o),
(470,279,cs),
(470,459,o),
(418,573,o),
(303,573,cs),
(213,573,o),
(167,503,o),
(167,412,c),
(190,322,l),
(190,408,o),
(206,465,o),
(254,465,cs),
(307,465,o),
(327,390,o),
(327,278,cs),
(327,167,o),
(307,95,o),
(254,95,cs),
(206,95,o),
(190,153,o),
(190,237,c),
(167,149,l),
(167,69,o),
(201,-13,o),
(296,-13,cs)
);
},
{
closed = 1;
nodes = (
(178,0,l),
(178,84,l),
(190,138,l),
(190,760,l),
(50,743,l),
(50,0,l)
);
}
);
userData = {
com.hugojourdan.ColorFlow = {
"0" = 0;
"1" = 0;
"10" = 0;
"11" = 0;
"2" = 0;
"3" = 0;
"4" = 0;
"5" = 0;
"6" = 0;
"7" = 0;
"8" = 0;
"9" = 0;
};
};
width = 505;
}
);
metricLeft = n;
unicode = 98;
},
{
glyphname = "beta-latin";
layers = (
{
layerId = "849A9C4C-BF7C-40C5-8614-1FD725A2A379";
shapes = (
{
closed = 1;
nodes = (
(190,-156,l),
(190,548,ls),
(190,608,o),
(212,651,o),
(263,651,cs),
(307,651,o),
(336,610,o),
(336,552,cs),
(336,489,o),
(307,435,o),
(239,428,c),
(239,336,l),
(314,318,o),
(365,269,o),
(365,188,cs),
(365,123,o),
(330,87,o),
(279,87,cs),
(228,87,o),
(190,123,o),
(190,215,c),
(154,215,l),
(154,82,o),
(203,-15,o),
(326,-15,cs),
(425,-15,o),
(505,63,o),
(505,193,cs),
(505,289,o),
(462,348,o),
(386,384,c),
(447,422,o),
(474,489,o),
(474,560,cs),
(474,679,o),
(394,760,o),
(270,760,cs),
(120,760,o),
(50,665,o),
(50,531,cs),
(50,-173,l)
);
}
);
userData = {
com.hugojourdan.ColorFlow = {
"0" = 0;
"1" = 0;
"10" = 0;
"11" = 0;
"2" = 0;
"3" = 0;
"4" = 0;
"5" = 0;
"6" = 0;
"7" = 0;
"8" = 0;
"9" = 0;
};
};
width = 531;
}
);
metricRight = s;
unicode = 42933;
},
{
glyphname = bhook;
kernLeft = KO_l;
kernRight = KO_o;
layers = (
{
anchors = (
{
name = bottom;
pos = (253,0);
},
{
name = top;
pos = (253,564);
}
);
background = {
shapes = (
{
closed = 1;
nodes = (
(189,0,l),
(189,84,l),
(201,138,l),
(201,583,ls),
(201,624,o),
(218,644,o),
(253,644,cs),
(267,644,o),
(277,642,o),
(288,638,c),
(301,748,l),
(278,757,o),
(257,760,o),
(234,760,cs),
(127,760,o),
(61,685,o),
(61,587,cs),
(61,0,l)
);
},
{
closed = 1;
nodes = (
(429,-13,o),
(481,115,o),
(481,279,cs),
(481,459,o),
(429,570,o),
(314,570,cs),
(224,570,o),
(178,503,o),
(178,412,c),
(201,322,l),
(201,408,o),
(217,466,o),
(268,466,cs),
(318,466,o),
(338,390,o),
(338,278,cs),
(338,167,o),
(318,91,o),
(265,91,cs),
(217,91,o),
(201,153,o),
(201,237,c),
(178,149,l),
(178,69,o),
(212,-13,o),
(307,-13,cs)
);
}
);
};
layerId = "849A9C4C-BF7C-40C5-8614-1FD725A2A379";
shapes = (
{
closed = 1;
nodes = (
(178,0,l),
(178,84,l),
(190,138,l),
(190,586,ls),
(190,626,o),
(207,644,o),
(242,644,cs),
(256,644,o),
(266,642,o),
(277,638,c),
(290,748,l),
(267,757,o),
(246,760,o),
(223,760,cs),
(108,760,o),
(50,693,o),
(50,577,cs),
(50,0,l)
);
},
{
closed = 1;
nodes = (
(418,-13,o),
(470,115,o),
(470,279,cs),
(470,459,o),
(418,573,o),
(303,573,cs),
(213,573,o),
(167,503,o),
(167,412,c),
(190,322,l),
(190,408,o),
(206,465,o),
(254,465,cs),
(307,465,o),
(327,390,o),
(327,278,cs),
(327,167,o),
(307,95,o),
(254,95,cs),
(206,95,o),
(190,153,o),
(190,237,c),
(167,149,l),
(167,69,o),
(201,-13,o),
(296,-13,cs)
);
}
);
userData = {
com.hugojourdan.ColorFlow = {
"0" = 0;
"1" = 0;
"10" = 0;
"11" = 0;
"2" = 0;
"3" = 0;
"4" = 0;
"5" = 0;
"6" = 0;
"7" = 0;
"8" = 0;
"9" = 0;
};
};
width = 505;
}
);
metricRight = b;
unicode = 595;
},
{
glyphname = bilabialclick;
layers = (
{
layerId = "849A9C4C-BF7C-40C5-8614-1FD725A2A379";
shapes = (
{
closed = 1;
nodes = (
(447,-14,o),
(521,138,o),
(521,375,cs),
(521,612,o),
(447,764,o),
(278,764,cs),
(110,764,o),
(35,612,o),
(35,375,cs),
(35,138,o),
(110,-14,o),
(278,-14,cs)
);
},
{
closed = 1;
nodes = (
(201,94,o),
(178,197,o),
(178,375,cs),
(178,553,o),
(201,656,o),
(278,656,cs),
(356,656,o),
(378,553,o),
(378,375,cs),
(378,197,o),
(356,94,o),
(278,94,cs)
);
},
{
closed = 1;
nodes = (
(328,326,l),
(328,429,l),
(225,429,l),
(225,326,l)
);
}
);
userData = {
com.hugojourdan.ColorFlow = {
"0" = 0;
"1" = 0;
"10" = 0;
"11" = 0;
"2" = 0;
"3" = 0;
"4" = 0;
"5" = 0;
"6" = 0;
"7" = 0;
"8" = 0;
"9" = 0;
};
};
width = 556;
}
);
metricRight = "=|";
unicode = 664;
},
{
color = 0;
glyphname = bstroke;
layers = (
{
background = {
shapes = (
{
closed = 1;
nodes = (
(301,603,l),
(311,693,l),
(-17,693,l),
(-17,603,l)
);
}
);
};
layerId = "849A9C4C-BF7C-40C5-8614-1FD725A2A379";
shapes = (
{
ref = b;
},
{
alignment = -1;
pos = (154,354);
ref = strokeshortcomb;
}
);
userData = {
com.hugojourdan.ColorFlow = {
"0" = 0;
"1" = 0;
"10" = 0;
"11" = 0;
"2" = 0;
"3" = 0;
"4" = 0;
"5" = 0;
"6" = 0;
"7" = 0;
"8" = 0;
"9" = 0;
};
};
width = 505;
}
);
unicode = 384;
},
{
glyphname = c;
kernLeft = KO_e;
kernRight = KO_c;
layers = (
{
anchors = (
{
name = bottom;
pos = (272,0);
},
{
name = top;
pos = (237,563);
}
);
background = {
shapes = (
{
closed = 1;
nodes = (
(359,-13,o),
(428,76,o),
(440,182,c),
(312,202,l),
(310,154,o),
(296,99,o),
(246,99,cs),
(198,99,o),
(177,163,o),
(177,278,cs),
(177,381,o),
(192,461,o),
(246,461,cs),
(294,461,o),
(306,408,o),
(310,358,c),
(440,378,l),
(431,500,o),
(359,573,o),
(246,573,cs),
(123,573,o),
(32,460,o),
(32,278,cs),
(32,101,o),
(112,-13,o),
(246,-13,cs)
);
}
);
};
layerId = "849A9C4C-BF7C-40C5-8614-1FD725A2A379";
shapes = (
{
closed = 1;
nodes = (
(348,-13,o),
(422,76,o),
(434,182,c),
(306,196,l),
(304,156,o),
(290,95,o),
(242,95,cs),
(191,95,o),
(173,165,o),
(173,278,cs),
(173,376,o),
(185,465,o),
(242,465,cs),
(288,465,o),
(300,403,o),
(304,353,c),
(434,379,l),
(425,497,o),
(353,573,o),
(242,573,cs),
(111,573,o),
(30,457,o),
(30,278,cs),
(30,101,o),
(95,-13,o),
(237,-13,cs)
);
}
);
userData = {
com.hugojourdan.ColorFlow = {
"0" = 0;
"1" = 0;
"10" = 0;
"11" = 0;
"2" = 0;
"3" = 0;
"4" = 0;
"5" = 0;
"6" = 0;
"7" = 0;
"8" = 0;
"9" = 0;
};
};
width = 462;
}
);
metricLeft = o;
unicode = 99;
},
{
glyphname = "chi-latin";
layers = (
{
layerId = "849A9C4C-BF7C-40C5-8614-1FD725A2A379";
shapes = (
{
closed = 1;
nodes = (
(437,-168,o),
(470,-155,o),
(491,-136,c),
(457,-37,l),
(451,-41,o),
(443,-46,o),
(430,-46,cs),
(418,-46,o),
(410,-40,o),
(404,-24,cs),
(292,275,l),
(256,275,l),
(206,452,ls),
(183,534,o),
(149,573,o),
(88,573,cs),
(52,573,o),
(22,560,o),
(-10,541,c),
(24,442,l),
(30,446,o),
(38,451,o),
(51,451,cs),
(63,451,o),
(71,445,o),
(77,429,cs),
(178,159,l),
(216,159,l),
(277,-47,ls),
(301,-128,o),
(334,-168,o),
(405,-168,cs)
);
},
{
closed = 1;
nodes = (
(166,-158,l),
(254,162,l),
(298,162,l),
(446,564,l),
(312,564,l),
(225,259,l),
(183,259,l),
(33,-158,l)
);
}
);
userData = {
com.hugojourdan.ColorFlow = {
"0" = 0;
"1" = 0;
"10" = 0;
"11" = 0;
"2" = 0;
"3" = 0;
"4" = 0;
"5" = 0;
"6" = 0;
"7" = 0;
"8" = 0;
"9" = 0;
};
};
width = 469;
}
);
unicode = 43859;
},
{
glyphname = chook;
layers = (
{
anchors = (
{
name = bottom;
pos = (272,0);
},
{
name = top;
pos = (237,563);
}
);
background = {
shapes = (
{
closed = 1;
nodes = (
(357,-13,o),
(426,76,o),
(438,182,c),
(310,196,l),
(308,154,o),
(294,90,o),
(246,90,cs),
(195,90,o),
(177,163,o),
(177,278,cs),
(177,378,o),
(189,467,o),
(246,467,cs),
(292,467,o),
(304,405,o),
(308,353,c),
(438,379,l),
(426,432,o),
(413,491,o),
(413,543,cs),
(413,602,o),
(423,632,o),
(452,632,cs),
(464,632,o),
(478,627,o),
(492,613,c),
(529,714,l),
(510,734,o),
(483,750,o),
(444,750,cs),
(366,750,o),
(308,685,o),
(308,609,cs),
(308,567,o),
(315,535,o),
(332,514,c),
(356,538,l),
(324,558,o),
(291,570,o),
(246,570,cs),
(115,570,o),
(34,457,o),
(34,278,cs),
(34,101,o),
(104,-13,o),
(246,-13,cs)
);
}
);
};
layerId = "849A9C4C-BF7C-40C5-8614-1FD725A2A379";
shapes = (
{
closed = 1;
nodes = (
(356,538,l),
(325,561,o),
(287,573,o),
(242,573,cs),
(111,573,o),
(30,457,o),
(30,278,cs),
(30,101,o),
(100,-13,o),
(242,-13,cs),
(353,-13,o),
(422,76,o),
(434,182,c),
(306,196,l),
(304,156,o),
(290,95,o),
(242,95,cs),
(191,95,o),
(173,165,o),
(173,278,cs),
(173,376,o),
(185,465,o),
(242,465,cs),
(288,465,o),
(300,403,o),
(304,353,c),
(434,379,l),
(420,432,o),
(409,501,o),
(409,553,cs),
(409,607,o),
(419,632,o),
(448,632,cs),
(460,632,o),
(474,627,o),
(488,613,c),
(525,714,l),
(506,734,o),
(479,750,o),
(440,750,cs),
(352,750,o),
(304,685,o),
(304,599,cs),
(304,557,o),
(311,535,o),
(328,514,c)
);
}
);
userData = {
com.hugojourdan.ColorFlow = {
"0" = 0;
"1" = 0;
"10" = 0;
"11" = 0;
"2" = 0;
"3" = 0;
"4" = 0;
"5" = 0;
"6" = 0;
"7" = 0;
"8" = 0;
"9" = 0;
};
};
width = 465;
}
);
unicode = 392;
},
{
glyphname = cstroke;
layers = (
{
anchors = (
{
name = bottom;
pos = (282,0);
},
{
name = top;
pos = (247,563);
}
);
background = {
shapes = (
{
closed = 1;
nodes = (
(367,-13,o),
(436,76,o),
(448,182,c),
(320,196,l),
(318,154,o),
(304,90,o),
(253,90,cs),
(195,90,o),
(177,163,o),
(177,278,cs),
(177,388,o),
(199,467,o),
(256,467,cs),
(302,467,o),
(323,417,o),
(328,355,c),
(448,379,l),
(439,497,o),
(367,570,o),
(256,570,cs),
(125,570,o),
(44,457,o),
(44,278,cs),
(44,101,o),
(114,-13,o),
(256,-13,cs)
);
},
{
closed = 1;
nodes = (
(342,675,l),
(278,683,l),
(162,-112,l),
(226,-120,l)
);
}
);
};
layerId = "849A9C4C-BF7C-40C5-8614-1FD725A2A379";
shapes = (
{
closed = 1;
nodes = (
(363,-13,o),
(429,68,o),
(444,182,c),
(336,194,l),
(333,140,o),
(310,85,o),
(250,85,cs),
(181,85,o),
(163,157,o),
(163,281,cs),
(163,382,o),
(175,475,o),
(250,475,cs),
(309,475,o),
(330,417,o),
(334,357,c),
(444,379,l),
(435,497,o),
(364,573,o),
(251,573,cs),
(111,573,o),
(30,457,o),
(30,275,cs),
(30,100,o),
(105,-13,o),
(245,-13,cs)
);
},
{
closed = 1;
nodes = (
(333,675,l),
(269,683,l),
(153,-112,l),
(217,-120,l)
);
}
);
userData = {
com.hugojourdan.ColorFlow = {
"0" = 0;
"1" = 0;
"10" = 0;
"11" = 0;
"2" = 0;
"3" = 0;
"4" = 0;
"5" = 0;
"6" = 0;
"7" = 0;
"8" = 0;
"9" = 0;
};
};
width = 472;
}
);
metricLeft = o;
metricRight = c;
unicode = 572;
},
{
glyphname = d;
kernLeft = KO_e;
kernRight = KO_i;
layers = (
{
anchors = (
{
name = bottom;
pos = (290,0);
},
{
name = center;
pos = (374,654);
},
{
name = top;
pos = (215,524);
},
{
name = topright;
pos = (523,750);
}
);
background = {
shapes = (
{
closed = 1;
nodes = (
(299,-13,o),
(350,67,o),
(350,168,c),
(327,238,l),
(327,165,o),
(305,105,o),
(252,105,cs),
(200,105,o),
(177,183,o),
(177,282,cs),
(177,379,o),
(200,455,o),
(255,455,cs),
(305,455,o),
(327,393,o),
(327,323,c),
(350,391,l),
(350,481,o),
(311,573,o),
(214,573,cs),
(90,573,o),
(34,445,o),
(34,281,cs),
(34,101,o),
(90,-13,o),
(207,-13,cs)
);
},
{
closed = 1;
nodes = (
(467,0,l),
(467,750,l),
(327,750,l),
(327,111,l),
(335,111,l),
(335,0,l)
);
}
);
};
layerId = "849A9C4C-BF7C-40C5-8614-1FD725A2A379";
shapes = (
{
closed = 1;
nodes = (
(292,-13,o),
(338,54,o),
(338,145,c),
(315,235,l),
(315,149,o),
(299,95,o),
(248,95,cs),
(198,95,o),
(178,167,o),
(178,279,cs),
(178,390,o),
(198,465,o),
(251,465,cs),
(299,465,o),
(315,404,o),
(315,320,c),
(338,408,l),
(338,488,o),
(304,573,o),
(209,573,cs),
(87,573,o),
(35,442,o),
(35,278,cs),
(35,98,o),
(87,-13,o),
(202,-13,cs)
);
},
{
closed = 1;
nodes = (
(455,8,l),
(455,760,l),
(315,743,l),
(315,138,l),
(327,137,l),
(327,-8,l)
);
}
);
userData = {
com.hugojourdan.ColorFlow = {
"0" = 0;
"1" = 0;
"10" = 0;
"11" = 0;
"2" = 0;
"3" = 0;
"4" = 0;
"5" = 0;
"6" = 0;
"7" = 0;
"8" = 0;
"9" = 0;
};
};
width = 505;
}
);
metricLeft = "=|b";
metricRight = "=|b";
unicode = 100;
},
{
glyphname = eth;
kernRight = KO_e;
layers = (
{
anchors = (
{
name = bottom;
pos = (246,0);
},
{
name = top;
pos = (246,1050);
}
);
background = {
shapes = (
{
closed = 1;
nodes = (
(407,-13,o),
(461,129,o),
(461,311,cs),
(461,518,o),
(391,667,o),
(246,778,c),
(116,730,l),
(246,640,o),
(311,530,o),
(323,451,c),
(335,430,l),
(315,522,o),
(276,573,o),
(208,573,cs),
(90,573,o),
(35,420,o),
(35,273,cs),
(35,114,o),
(99,-13,o),
(249,-13,cs)
);
},
{
closed = 1;
nodes = (
(186,95,o),
(178,200,o),
(178,275,cs),
(178,378,o),
(193,465,o),
(251,465,cs),
(281,465,o),
(299,441,o),
(310,417,c),
(317,381,o),
(318,344,o),
(318,306,cs),
(318,192,o),
(309,95,o),
(249,95,cs)
);
},
{
closed = 1;
nodes = (
(412,693,l),
(387,758,l),
(89,644,l),
(114,578,l)
);
}
);
};
guides = (
{
angle = 20;
pos = (262,798);
},
{
pos = (130,842);
showMeasurement = 1;
}
);
layerId = "849A9C4C-BF7C-40C5-8614-1FD725A2A379";
shapes = (
{
closed = 1;
nodes = (
(407,-13,o),
(461,129,o),
(461,311,cs),
(461,518,o),
(391,667,o),
(246,778,c),
(116,730,l),
(246,640,o),
(311,530,o),
(323,451,c),
(335,430,l),
(315,522,o),
(276,573,o),
(208,573,cs),
(90,573,o),
(35,420,o),
(35,273,cs),
(35,114,o),
(99,-13,o),
(249,-13,cs)
);
},
{
closed = 1;
nodes = (
(186,95,o),
(178,200,o),
(178,275,cs),
(178,378,o),
(195,465,o),
(253,465,cs),
(283,465,o),
(301,441,o),
(310,417,c),
(317,381,o),
(318,344,o),
(318,306,cs),
(318,192,o),
(309,95,o),
(249,95,cs)
);
},
{
closed = 1;
nodes = (
(412,693,l),
(387,758,l),
(89,644,l),
(114,578,l)
);
}
);
userData = {
com.hugojourdan.ColorFlow = {
"0" = 0;
"1" = 0;
"10" = 0;
"11" = 0;
"2" = 0;
"3" = 0;
"4" = 0;
"5" = 0;
"6" = 0;
"7" = 0;
"8" = 0;
"9" = 0;
};
};
width = 491;
}
);
metricLeft = d;
metricRight = o;
unicode = 240;
},
{
glyphname = dhook;
kernLeft = KO_e;
layers = (
{
anchors = (
{
name = bottom;
pos = (251,0);
},
{
name = top;
pos = (251,564);
}
);
background = {
shapes = (
{
closed = 1;
nodes = (
(456,8,l),
(456,609,ls),
(456,634,o),
(467,646,o),
(484,646,cs),
(493,646,o),
(499,645,o),
(506,643,c),
(517,747,l),
(497,754,o),
(477,760,o),
(449,760,cs),
(358,760,o),
(316,710,o),
(316,621,cs),
(316,138,l),
(328,137,l),
(328,-8,l)
);
},
{
closed = 1;
nodes = (
(293,-13,o),
(339,54,o),
(339,145,c),
(316,235,l),
(316,149,o),
(300,91,o),
(249,91,cs),
(199,91,o),
(179,167,o),
(179,279,cs),
(179,390,o),
(199,466,o),
(252,466,cs),
(300,466,o),
(316,404,o),
(316,320,c),
(339,408,l),
(339,488,o),
(305,570,o),
(210,570,cs),
(88,570,o),
(36,442,o),
(36,278,cs),
(36,98,o),
(88,-13,o),
(203,-13,cs)
);
}
);
};
layerId = "849A9C4C-BF7C-40C5-8614-1FD725A2A379";
shapes = (
{
closed = 1;
nodes = (
(292,-13,o),
(338,54,o),
(338,145,c),
(315,235,l),
(315,149,o),
(299,95,o),
(248,95,cs),
(198,95,o),
(178,167,o),
(178,279,cs),
(178,390,o),
(198,465,o),
(251,465,cs),
(299,465,o),
(315,404,o),
(315,320,c),
(338,408,l),
(338,488,o),
(304,573,o),
(209,573,cs),
(87,573,o),
(35,442,o),
(35,278,cs),
(35,98,o),
(87,-13,o),
(202,-13,cs)
);
},
{
closed = 1;
nodes = (
(455,8,l),
(455,609,ls),
(455,634,o),
(466,646,o),
(483,646,cs),
(492,646,o),
(498,645,o),
(505,643,c),
(516,747,l),
(496,754,o),
(476,760,o),
(448,760,cs),
(357,760,o),
(315,710,o),
(315,621,cs),
(315,138,l),
(327,137,l),
(327,-8,l)
);
}
);
userData = {
com.hugojourdan.ColorFlow = {
"0" = 0;
"1" = 0;
"10" = 0;
"11" = 0;
"2" = 0;
"3" = 0;
"4" = 0;
"5" = 0;
"6" = 0;
"7" = 0;
"8" = 0;
"9" = 0;
};
};
width = 501;
}
);
unicode = 599;
},
{
glyphname = dtail;
kernLeft = KO_e;
layers = (
{
anchors = (
{
name = bottom;
pos = (290,0);
},
{
name = center;
pos = (384,644);
},
{
name = top;
pos = (215,524);
},
{
name = topright;
pos = (523,750);
}
);
background = {
shapes = (
{
closed = 1;
nodes = (
(478,-173,o),
(498,-167,o),
(518,-160,c),
(507,-56,l),
(500,-58,o),
(494,-59,o),
(485,-59,cs),
(468,-59,o),
(456,-47,o),
(456,-22,cs),
(456,760,l),
(316,743,l),
(316,-8,ls),
(316,-117,o),
(367,-173,o),
(450,-173,cs)
);
},
{
closed = 1;
nodes = (
(293,-13,o),
(339,54,o),
(339,145,c),
(316,235,l),
(316,149,o),
(300,91,o),
(249,91,cs),
(199,91,o),
(179,167,o),
(179,279,cs),
(179,390,o),
(199,466,o),
(252,466,cs),
(300,466,o),
(316,404,o),
(316,320,c),
(339,408,l),
(339,488,o),
(305,570,o),
(210,570,cs),
(88,570,o),
(36,442,o),
(36,278,cs),
(36,98,o),
(88,-13,o),
(203,-13,cs)
);
}
);
};
layerId = "849A9C4C-BF7C-40C5-8614-1FD725A2A379";
shapes = (
{
closed = 1;
nodes = (
(476,-173,o),
(496,-167,o),
(516,-160,c),
(505,-56,l),
(498,-58,o),
(492,-59,o),
(483,-59,cs),
(466,-59,o),
(455,-47,o),
(455,-22,cs),
(455,760,l),
(315,743,l),
(315,-34,ls),
(315,-123,o),
(357,-173,o),
(448,-173,cs)
);
},
{
closed = 1;
nodes = (
(292,-13,o),
(338,54,o),
(338,145,c),
(315,235,l),
(315,149,o),
(299,95,o),
(248,95,cs),
(198,95,o),
(178,167,o),
(178,279,cs),
(178,390,o),
(198,465,o),
(251,465,cs),
(299,465,o),
(315,404,o),
(315,320,c),
(338,408,l),
(338,488,o),
(304,573,o),
(209,573,cs),
(87,573,o),
(35,442,o),
(35,278,cs),
(35,98,o),
(87,-13,o),
(202,-13,cs)
);
}
);
userData = {
com.hugojourdan.ColorFlow = {
"0" = 0;
"1" = 0;
"10" = 0;
"11" = 0;
"2" = 0;
"3" = 0;
"4" = 0;
"5" = 0;
"6" = 0;
"7" = 0;
"8" = 0;
"9" = 0;
};
};
width = 501;
}
);
unicode = 598;
},
{
glyphname = e;
kernLeft = KO_e;
kernRight = KO_e;
layers = (
{
anchors = (
{
name = bottom;
pos = (243,0);
},
{
name = center;
pos = (241,287);
},
{
name = ogonek;
pos = (395,5);
},
{
name = top;
pos = (245,563);
}
);
background = {
shapes = (
{
closed = 1;
nodes = (
(350,-13,o),
(421,50,o),
(440,154,c),
(312,174,l),
(306,132,o),
(293,91,o),
(249,91,cs),
(198,91,o),
(172,147,o),
(172,280,cs),
(172,376,o),
(182,471,o),
(250,471,cs),
(305,471,o),
(316,392,o),
(316,322,cs),
(316,290,l),
(339,340,l),
(133,340,l),
(133,240,l),
(441,240,l),
(445,269,o),
(446,299,o),
(446,319,cs),
(446,473,o),
(386,573,o),
(251,573,cs),
(116,573,o),
(32,458,o),
(32,277,cs),
(32,113,o),
(104,-13,o),
(248,-13,cs)
);
}
);
};
layerId = "849A9C4C-BF7C-40C5-8614-1FD725A2A379";
shapes = (
{
closed = 1;
nodes = (
(172,328,l),
(175,395,o),
(190,466,o),
(243,466,cs),
(293,466,o),
(305,397,o),
(305,342,cs),
(305,328,l),
(108,328,l),
(108,239,l),
(431,239,l),
(433,273,o),
(434,304,o),
(434,336,cs),
(434,469,o),
(376,570,o),
(240,570,cs),
(108,570,o),
(30,448,o),
(30,276,cs),
(30,113,o),
(90,-13,o),
(241,-13,cs),
(340,-13,o),
(411,50,o),
(430,154,c),
(306,180,l),
(300,136,o),
(288,93,o),
(243,93,cs),
(185,93,o),
(174,169,o),
(172,239,c)
);
}
);
userData = {
com.hugojourdan.ColorFlow = {
"0" = 0;
"1" = 0;
"10" = 0;
"11" = 0;
"2" = 0;
"3" = 0;
"4" = 0;
"5" = 0;
"6" = 0;
"7" = 0;
"8" = 0;
"9" = 0;
};
};
width = 464;
}
);
metricLeft = o;
metricRight = o;
unicode = 101;
userData = {
KernOnName = e;
};
},
{
glyphname = eogonek;
kernLeft = KO_e;
kernRight = KO_e;
layers = (
{
background = {
shapes = (
{
closed = 1;
nodes = (
(219,-15,o),
(178,-55,o),
(178,-106,cs),
(178,-171,o),
(224,-210,o),
(289,-210,cs),
(346,-210,o),
(381,-181,o),
(411,-137,c),
(373,-103,l),
(363,-115,o),
(349,-128,o),
(325,-128,cs),
(293,-128,o),
(275,-103,o),
(275,-71,cs),
(275,-36,o),
(291,-11,o),
(320,4,cs),
(389,38,o),
(414,97,o),
(423,152,c),
(305,177,l),
(297,132,o),
(280,90,o),
(240,90,cs),
(185,90,o),
(167,162,o),
(165,248,c),
(425,248,l),
(427,284,o),
(428,307,o),
(428,336,cs),
(428,469,o),
(370,570,o),
(234,570,cs),
(102,570,o),
(24,448,o),
(24,276,cs),
(24,23,o),
(159,-13,o),
(251,-11,c),
(251,-5,l)
);
},
{
closed = 1;
nodes = (
(170,412,o),
(195,464,o),
(236,464,cs),
(280,464,o),
(301,416,o),
(301,352,cs),
(301,330,l),
(167,330,l)
);
}
);
};
guides = (
{
angle = -78;
pos = (376,-91);
}
);
layerId = "849A9C4C-BF7C-40C5-8614-1FD725A2A379";
shapes = (
{
ref = e;
},
{
pos = (286,50);
ref = ogonekcomb;
}
);
userData = {
com.hugojourdan.ColorFlow = {
"0" = 0;
"1" = 0;
"10" = 0;
"11" = 0;
"2" = 0;
"3" = 0;
"4" = 0;
"5" = 0;
"6" = 0;
"7" = 0;
"8" = 0;
"9" = 0;
};
};
width = 464;
}
);
unicode = 281;
},
{
color = 4;
glyphname = eopen;
layers = (
{
anchors = (
{
name = bottom;
pos = (235,0);
},
{
name = top;
pos = (236,564);
}
);
background = {
shapes = (
{
closed = 1;
nodes = (
(355,-13,o),
(437,57,o),
(441,155,c),
(328,179,l),
(325,127,o),
(296,90,o),
(243,90,cs),
(196,90,o),
(172,119,o),
(172,158,cs),
(172,210,o),
(214,241,o),
(301,241,c),
(301,327,l),
(220,327,o),
(182,353,o),
(182,401,cs),
(182,439,o),
(206,467,o),
(247,467,cs),
(294,467,o),
(319,431,o),
(323,380,c),
(436,402,l),
(427,504,o),
(354,570,o),
(239,570,cs),
(128,570,o),
(42,519,o),
(42,420,cs),
(42,349,o),
(86,281,o),
(203,276,c),
(200,297,l),
(87,288,o),
(32,228,o),
(32,149,cs),
(32,56,o),
(109,-13,o),
(235,-13,cs)
);
}
);
};
layerId = "849A9C4C-BF7C-40C5-8614-1FD725A2A379";
shapes = (
{
closed = 1;
nodes = (
(355,-13,o),
(437,57,o),
(441,155,c),
(322,180,l),
(319,128,o),
(290,95,o),
(243,95,cs),
(199,95,o),
(175,124,o),
(175,160,cs),
(175,210,o),
(214,239,o),
(301,239,c),
(301,329,l),
(220,329,o),
(182,353,o),
(182,396,cs),
(182,435,o),
(206,462,o),
(244,462,cs),
(288,462,o),
(313,429,o),
(317,378,c),
(436,402,l),
(427,504,o),
(354,570,o),
(239,570,cs),
(128,570,o),
(42,509,o),
(42,411,cs),
(42,361,o),
(70,308,o),
(136,286,c),
(68,263,o),
(32,209,o),
(32,145,cs),
(32,56,o),
(107,-13,o),
(235,-13,cs)
);
}
);
userData = {
com.hugojourdan.ColorFlow = {
"0" = 0;
"1" = 0;
"10" = 0;
"11" = 0;
"2" = 0;
"3" = 0;
"4" = 0;
"5" = 0;
"6" = 0;
"7" = 0;
"8" = 0;
"9" = 0;
};
};
width = 469;
}
);
metricRight = c;
unicode = 603;
},
{
glyphname = esh;
layers = (
{
anchors = (
{
name = bottom;
pos = (137,0);
},
{
name = top;
pos = (137,564);
}
);
background = {
shapes = (
{
closed = 1;
nodes = (
(160,-185,o),
(207,-113,o),
(207,-10,cs),
(207,607,ls),
(207,641,o),
(224,656,o),
(254,656,cs),
(269,656,o),
(282,654,o),
(301,649,c),
(308,747,l),
(283,758,o),
(251,765,o),
(218,765,cs),
(114,765,o),
(67,693,o),
(67,590,cs),
(67,-27,ls),
(67,-61,o),
(50,-76,o),
(20,-76,cs),
(5,-76,o),
(-8,-74,o),
(-27,-69,c),
(-34,-167,l),
(-9,-178,o),
(23,-185,o),
(56,-185,cs)
);
}
);
};
layerId = "849A9C4C-BF7C-40C5-8614-1FD725A2A379";
shapes = (
{
closed = 1;
nodes = (
(158,-178,o),
(207,-114,o),
(207,-13,cs),
(207,590,ls),
(207,631,o),
(222,651,o),
(256,651,cs),
(273,651,o),
(284,649,o),
(301,644,c),
(308,743,l),
(282,754,o),
(249,760,o),
(221,760,cs),
(116,760,o),
(67,696,o),
(67,595,cs),
(67,-8,ls),
(67,-49,o),
(52,-69,o),
(18,-69,cs),
(1,-69,o),
(-10,-67,o),
(-27,-62,c),
(-34,-161,l),
(-8,-172,o),
(25,-178,o),
(53,-178,cs)
);
}
);
userData = {
com.hugojourdan.ColorFlow = {
"0" = 0;
"1" = 0;
"10" = 0;
"11" = 0;
"2" = 0;
"3" = 0;
"4" = 0;
"5" = 0;
"6" = 0;
"7" = 0;
"8" = 0;
"9" = 0;
};
};
width = 274;
}
);
unicode = 643;
},
{
glyphname = eturned;
kernLeft = KO_schwa;
kernRight = KO_o;
layers = (
{
anchors = (
{
name = bottom;
pos = (226,0);
},
{
name = top;
pos = (225,563);
}
);
background = {
shapes = (
{
closed = 1;
nodes = (
(358,-7,o),
(436,115,o),
(436,287,cs),
(436,450,o),
(376,576,o),
(222,576,cs),
(120,576,o),
(49,513,o),
(30,409,c),
(150,384,l),
(156,431,o),
(172,473,o),
(220,473,cs),
(288,473,o),
(295,378,o),
(295,318,cs),
(295,284,l),
(317,318,l),
(29,318,l),
(27,284,o),
(26,259,o),
(26,227,cs),
(26,94,o),
(84,-7,o),
(223,-7,cs)
);
},
{
closed = 1;
nodes = (
(167,94,o),
(155,163,o),
(155,221,cs),
(155,273,l),
(133,239,l),
(317,239,l),
(295,273,l),
(295,196,o),
(286,94,o),
(220,94,cs)
);
}
);
};
layerId = "849A9C4C-BF7C-40C5-8614-1FD725A2A379";
shapes = (
{
closed = 1;
nodes = (
(356,-7,o),
(434,115,o),
(434,287,cs),
(434,450,o),
(374,576,o),
(223,576,cs),
(124,576,o),
(53,513,o),
(34,409,c),
(158,383,l),
(164,427,o),
(176,470,o),
(221,470,cs),
(290,470,o),
(293,362,o),
(293,284,c),
(315,324,l),
(33,324,l),
(31,290,o),
(30,259,o),
(30,227,cs),
(30,94,o),
(88,-7,o),
(224,-7,cs)
);
},
{
closed = 1;
nodes = (
(171,97,o),
(159,166,o),
(159,221,cs),
(159,273,l),
(137,235,l),
(315,235,l),
(293,273,l),
(293,199,o),
(284,97,o),
(221,97,cs)
);
}
);
userData = {
com.hugojourdan.ColorFlow = {
"0" = 0;
"1" = 0;
"10" = 0;
"11" = 0;
"2" = 0;
"3" = 0;
"4" = 0;
"5" = 0;
"6" = 0;
"7" = 0;
"8" = 0;
"9" = 0;
};
};
width = 464;
}
);
metricLeft = "=|e";
metricRight = "=|e";
unicode = 477;
},
{
color = 4;
glyphname = ezh;
layers = (
{
anchors = (
{
name = bottom;
pos = (237,-115);
},
{
name = top;
pos = (237,563);
}
);
background = {
shapes = (
{
closed = 1;
nodes = (
(361,-181,o),
(443,-81,o),
(443,45,cs),
(443,155,o),
(378,261,o),
(243,271,c),
(255,209,l),
(430,451,l),
(430,563,l),
(48,563,l),
(33,441,l),
(339,441,l),
(306,496,l),
(149,279,l),
(149,184,l),
(241,184,o),
(306,135,o),
(306,48,cs),
(306,-12,o),
(285,-63,o),
(223,-63,cs),
(169,-63,o),
(143,-15,o),
(143,90,c),
(12,65,l),
(12,-100,o),
(102,-181,o),
(220,-181,cs)
);
}
);
};
layerId = "849A9C4C-BF7C-40C5-8614-1FD725A2A379";
shapes = (
{
closed = 1;
nodes = (
(361,-168,o),
(443,-73,o),
(443,53,cs),
(443,156,o),
(378,261,o),
(243,271,c),
(255,209,l),
(430,452,l),
(430,564,l),
(48,564,l),
(35,459,l),
(341,459,l),
(306,497,l),
(149,279,l),
(149,184,l),
(263,184,o),
(300,124,o),
(300,50,cs),
(300,-15,o),
(279,-60,o),
(223,-60,cs),
(169,-60,o),
(140,-18,o),
(140,90,c),
(12,65,l),
(12,-93,o),
(102,-168,o),
(220,-168,cs)
);
}
);
userData = {
com.hugojourdan.ColorFlow = {
"0" = 0;
"1" = 0;
"10" = 0;
"11" = 0;
"2" = 0;
"3" = 0;
"4" = 0;
"5" = 0;
"6" = 0;
"7" = 0;
"8" = 0;
"9" = 0;
};
};
width = 475;
}
);
unicode = 658;
},
{
color = 4;
glyphname = ezhreversed;
layers = (
{
anchors = (
{
name = bottom;
pos = (238,-123);
},
{
name = top;
pos = (248,564);
}
);
background = {
shapes = (
{
closed = 1;
nodes = (
(373,-175,o),
(463,-100,o),
(463,65,c),
(336,79,l),
(336,-25,o),
(306,-72,o),
(255,-72,cs),
(196,-72,o),
(175,-22,o),
(175,43,cs),
(175,135,o),
(234,184,o),
(326,184,c),
(326,279,l),
(169,496,l),
(134,458,l),
(428,458,l),
(441,563,l),
(45,563,l),
(45,451,l),
(220,209,l),
(232,271,l),
(97,261,o),
(32,155,o),
(32,45,cs),
(32,-81,o),
(114,-175,o),
(255,-175,cs)
);
}
);
};
layerId = "849A9C4C-BF7C-40C5-8614-1FD725A2A379";
shapes = (
{
closed = 1;
nodes = (
(373,-168,o),
(463,-93,o),
(463,65,c),
(335,90,l),
(335,-18,o),
(306,-60,o),
(252,-60,cs),
(196,-60,o),
(175,-15,o),
(175,50,cs),
(175,124,o),
(212,184,o),
(326,184,c),
(326,279,l),
(169,497,l),
(134,459,l),
(427,459,l),
(440,564,l),
(45,564,l),
(45,452,l),
(220,209,l),
(232,271,l),
(97,261,o),
(32,156,o),
(32,53,cs),
(32,-73,o),
(114,-168,o),
(255,-168,cs)
);
}
);
userData = {
com.hugojourdan.ColorFlow = {
"0" = 0;
"1" = 0;
"10" = 0;
"11" = 0;
"2" = 0;
"3" = 0;
"4" = 0;
"5" = 0;
"6" = 0;
"7" = 0;
"8" = 0;
"9" = 0;
};
};
width = 475;
}
);
metricLeft = "=|ezh";
metricRight = "=|ezh";
unicode = 441;
},
{
color = 0;
glyphname = f;
kernLeft = KO_f;
kernRight = KO_f;
layers = (
{
anchors = (
{
name = bottom;
pos = (165,0);
},
{
name = top;
pos = (215,750);
}
);
background = {
shapes = (
{
closed = 1;
nodes = (
(220,0,l),
(220,562,ls),
(220,621,o),
(233,651,o),
(274,651,cs),
(292,651,o),
(307,649,o),
(326,644,c),
(333,742,l),
(298,753,o),
(264,760,o),
(221,760,cs),
(127,760,o),
(80,688,o),
(80,585,cs),
(80,0,l)
);
},
{
closed = 1;
nodes = (
(313,458,l),
(326,563,l),
(15,563,l),
(15,458,l)
);
}
);
};
layerId = "849A9C4C-BF7C-40C5-8614-1FD725A2A379";
shapes = (
{
closed = 1;
nodes = (
(220,0,l),
(220,586,ls),
(220,627,o),
(237,651,o),
(277,651,cs),
(294,651,o),
(309,649,o),
(326,644,c),
(333,743,l),
(307,754,o),
(274,760,o),
(240,760,cs),
(129,760,o),
(80,688,o),
(80,585,cs),
(80,0,l)
);
},
{
closed = 1;
nodes = (
(313,459,l),
(326,564,l),
(15,564,l),
(15,459,l)
);
}
);
userData = {
com.hugojourdan.ColorFlow = {
"0" = 0;
"1" = 0;
"10" = 0;
"11" = 0;
"2" = 0;
"3" = 0;
"4" = 0;
"5" = 0;
"6" = 0;
"7" = 0;
"8" = 0;
"9" = 0;
};
};
width = 339;
}
);
unicode = 102;
userData = {
KernOnName = f;
};
},
{
glyphname = g;
kernLeft = KO_g;
kernRight = KO_g;
layers = (
{
anchors = (
{
name = bottom;
pos = (236,0);
},
{
name = top;
pos = (232,563);
}
);
background = {
shapes = (
{
closed = 1;
nodes = (
(375,-182,o),
(478,-128,o),
(478,-8,cs),
(478,82,o),
(426,133,o),
(330,140,cs),
(218,149,ls),
(183,152,o),
(164,168,o),
(164,194,cs),
(164,216,o),
(187,233,o),
(218,234,c),
(170,261,l),
(113,250,o),
(45,213,o),
(45,140,cs),
(45,72,o),
(89,34,o),
(168,28,cs),
(276,20,ls),
(320,17,o),
(352,4,o),
(352,-28,cs),
(352,-66,o),
(309,-81,o),
(242,-81,cs),
(183,-81,o),
(135,-61,o),
(135,-15,cs),
(135,24,o),
(161,51,o),
(199,52,c),
(144,62,l),
(74,57,o),
(18,17,o),
(18,-51,cs),
(18,-141,o),
(95,-182,o),
(232,-182,cs)
);
},
{
closed = 1;
nodes = (
(349,215,o),
(447,275,o),
(447,389,cs),
(447,501,o),
(349,570,o),
(241,570,cs),
(135,570,o),
(35,501,o),
(35,389,cs),
(35,275,o),
(135,215,o),
(241,215,cs)
);
},
{
closed = 1;
nodes = (
(201,297,o),
(179,340,o),
(179,390,cs),
(179,439,o),
(201,489,o),
(241,489,cs),
(283,489,o),
(303,439,o),
(303,389,cs),
(303,340,o),
(282,297,o),
(241,297,cs)
);
},
{
closed = 1;
nodes = (
(413,531,o),
(453,555,o),
(495,566,c),
(458,680,l),
(392,660,o),
(348,581,o),
(347,500,c),
(388,500,l)
);
}
);
};
layerId = "849A9C4C-BF7C-40C5-8614-1FD725A2A379";
shapes = (
{
closed = 1;
nodes = (
(393,-168,o),
(483,-102,o),
(483,-1,cs),
(483,92,o),
(421,143,o),
(315,153,cs),
(215,162,ls),
(180,165,o),
(164,179,o),
(164,197,cs),
(164,216,o),
(184,232,o),
(218,234,c),
(170,261,l),
(94,244,o),
(49,198,o),
(49,145,cs),
(49,84,o),
(94,50,o),
(168,43,cs),
(271,33,ls),
(329,27,o),
(349,11,o),
(349,-19,cs),
(349,-53,o),
(311,-68,o),
(246,-68,cs),
(186,-68,o),
(143,-48,o),
(143,-2,cs),
(143,34,o),
(169,61,o),
(207,63,c),
(144,73,l),
(66,67,o),
(18,24,o),
(18,-36,cs),
(18,-117,o),
(105,-168,o),
(236,-168,cs)
);
},
{
closed = 1;
nodes = (
(363,215,o),
(448,286,o),
(448,388,cs),
(448,492,o),
(360,570,o),
(243,570,cs),
(125,570,o),
(36,492,o),
(36,388,cs),
(36,287,o),
(122,215,o),
(243,215,cs)
);
},
{
closed = 1;
nodes = (
(204,299,o),
(179,336,o),
(179,393,cs),
(179,449,o),
(203,486,o),
(242,486,cs),
(281,486,o),
(305,449,o),
(305,392,cs),
(305,336,o),
(281,299,o),
(242,299,cs)
);
},
{
closed = 1;
nodes = (
(413,531,o),
(453,555,o),
(495,566,c),
(458,680,l),
(392,660,o),
(348,581,o),
(347,500,c),
(388,500,l)
);
}
);
userData = {
com.hugojourdan.ColorFlow = {
"0" = 0;
"1" = 0;
"10" = 0;
"11" = 0;
"2" = 0;
"3" = 0;
"4" = 0;
"5" = 0;
"6" = 0;
"7" = 0;
"8" = 0;
"9" = 0;
};
};
width = 503;
}
);
unicode = 103;
userData = {
KernOnName = g;
};
},
{
color = 0;
glyphname = "gamma-latin";
layers = (
{
anchors = (
{
name = bottom;
pos = (225,0);
},
{
name = top;
pos = (225,564);
}
);
background = {
shapes = (
{
pos = (-16,0);
ref = v;
}
);
};
guides = (
{
angle = 31.6075;
pos = (70,464);
showMeasurement = 1;
}
);
layerId = "849A9C4C-BF7C-40C5-8614-1FD725A2A379";
shapes = (
{
closed = 1;
nodes = (
(355,-185,o),
(424,-101,o),
(424,-8,cs),
(424,61,o),
(396,120,o),
(353,194,cs),
(138,569,l),
(6,553,l),
(254,150,ls),
(291,90,o),
(300,38,o),
(300,4,cs),
(300,-43,o),
(277,-75,o),
(230,-75,c),
(230,-185,l)
);
},
{
closed = 1;
nodes = (
(230,-75,l),
(183,-75,o),
(160,-43,o),
(160,4,cs),
(160,38,o),
(169,73,o),
(204,140,cs),
(427,564,l),
(305,564,l),
(105,199,ls),
(55,107,o),
(36,51,o),
(36,-8,cs),
(36,-101,o),
(105,-185,o),
(230,-185,c)
);
}
);
userData = {
com.hugojourdan.ColorFlow = {
"0" = 0;
"1" = 0;
"10" = 0;
"11" = 0;
"2" = 0;
"3" = 0;
"4" = 0;
"5" = 0;
"6" = 0;
"7" = 0;
"8" = 0;
"9" = 0;
};
};
width = 449;
}
);
unicode = 611;
},
{
glyphname = gcommaaccent;
kernLeft = KO_g;
kernRight = KO_g;
layers = (
{
background = {
shapes = (
{
closed = 1;
nodes = (
(362,-175,o),
(514,-138,o),
(514,-10,cs),
(514,35,o),
(499,71,o),
(469,97,cs),
(440,123,o),
(399,133,o),
(349,137,cs),
(216,147,l),
(196,150,o),
(181,164,o),
(181,183,cs),
(181,200,o),
(183,211,o),
(188,216,cs),
(194,221,o),
(204,225,o),
(217,229,c),
(231,229,o),
(250,227,o),
(276,227,c),
(308,223,o),
(336,227,o),
(360,237,cs),
(384,249,o),
(405,263,o),
(421,280,cs),
(454,315,o),
(470,359,o),
(470,400,cs),
(470,417,o),
(465,438,o),
(459,455,cs),
(456,464,o),
(453,474,o),
(449,484,c),
(451,485,o),
(454,486,o),
(458,488,cs),
(463,490,o),
(469,492,o),
(476,492,cs),
(484,492,o),
(500,488,o),
(513,482,cs),
(538,473,l),
(538,591,l),
(532,592,ls),
(529,593,o),
(526,593,o),
(522,593,cs),
(471,593,o),
(421,546,o),
(401,528,c),
(374,546,o),
(331,570,o),
(259,570,cs),
(159,570,o),
(52,510,o),
(52,398,cs),
(52,347,o),
(75,311,o),
(97,286,c),
(110,272,o),
(125,260,o),
(142,250,c),
(122,240,o),
(104,229,o),
(89,215,cs),
(63,193,o),
(36,162,o),
(36,125,cs),
(36,98,o),
(57,79,o),
(78,67,cs),
(90,60,o),
(104,55,o),
(120,50,c),
(102,43,o),
(85,34,o),
(71,23,cs),
(46,5,o),
(21,-22,o),
(21,-60,cs),
(21,-127,o),
(104,-175,o),
(257,-175,cs)
);
},
{
closed = 1;
nodes = (
(183,-71,o),
(149,-50,o),
(149,-18,cs),
(149,16,o),
(172,32,o),
(194,39,c),
(276,39,ls),
(305,39,o),
(377,35,o),
(377,-8,cs),
(377,-47,o),
(341,-71,o),
(274,-71,cs)
);
},
{
closed = 1;
nodes = (
(203,307,o),
(193,360,o),
(193,403,cs),
(193,440,o),
(213,485,o),
(258,485,cs),
(292,485,o),
(321,458,o),
(321,400,cs),
(321,340,o),
(297,307,o),
(259,307,cs)
);
},
{
closed = 1;
nodes = (
(367,642,l),
(367,797,l),
(272,797,l),
(273,806,o),
(276,813,o),
(281,820,cs),
(291,832,o),
(308,844,o),
(343,844,c),
(343,938,l),
(316,936,o),
(293,930,o),
(272,920,cs),
(237,902,o),
(202,868,o),
(202,797,cs),
(202,636,l)
);
}
);
};
layerId = "849A9C4C-BF7C-40C5-8614-1FD725A2A379";
shapes = (
{
ref = g;
},
{
pos = (233,0);
ref = commaturnedabovecomb;
}
);
userData = {
com.hugojourdan.ColorFlow = {
"0" = 0;
"1" = 0;
"10" = 0;
"11" = 0;
"2" = 0;
"3" = 0;
"4" = 0;
"5" = 0;
"6" = 0;
"7" = 0;
"8" = 0;
"9" = 0;
};
};
width = 503;
}
);
unicode = 291;
},
{
glyphname = ghook;
kernLeft = KO_g;
layers = (
{
anchors = (
{
name = bottom;
pos = (236,0);
},
{
name = top;
pos = (232,563);
}
);
background = {
shapes = (
{
closed = 1;
nodes = (
(403,-182,o),
(506,-128,o),
(506,-8,cs),
(506,82,o),
(454,133,o),
(358,139,cs),
(216,148,ls),
(181,150,o),
(162,168,o),
(162,194,cs),
(162,216,o),
(185,233,o),
(216,234,c),
(168,261,l),
(111,250,o),
(43,213,o),
(43,140,cs),
(43,72,o),
(87,31,o),
(166,27,cs),
(304,20,ls),
(348,18,o),
(380,4,o),
(380,-28,cs),
(380,-66,o),
(337,-81,o),
(260,-81,cs),
(181,-81,o),
(133,-61,o),
(133,-15,cs),
(133,24,o),
(159,50,o),
(197,52,c),
(142,62,l),
(72,57,o),
(16,17,o),
(16,-51,cs),
(16,-141,o),
(93,-182,o),
(250,-182,cs)
);
},
{
closed = 1;
nodes = (
(362,215,o),
(460,275,o),
(460,389,cs),
(460,422,o),
(456,454,o),
(449,484,cs),
(442,512,o),
(439,538,o),
(439,563,cs),
(439,597,o),
(449,621,o),
(478,621,cs),
(490,621,o),
(504,616,o),
(518,602,c),
(555,703,l),
(536,723,o),
(509,739,o),
(470,739,cs),
(392,739,o),
(334,674,o),
(334,598,cs),
(334,556,o),
(341,535,o),
(358,514,c),
(375,537,l),
(340,559,o),
(298,570,o),
(254,570,cs),
(148,570,o),
(48,501,o),
(48,389,cs),
(48,275,o),
(148,215,o),
(254,215,cs)
);
},
{
closed = 1;
nodes = (
(214,297,o),
(192,335,o),
(192,390,cs),
(192,454,o),
(214,489,o),
(254,489,cs),
(296,489,o),
(316,454,o),
(316,389,cs),
(316,335,o),
(295,297,o),
(254,297,cs)
);
}
);
};
layerId = "849A9C4C-BF7C-40C5-8614-1FD725A2A379";
shapes = (
{
closed = 1;
nodes = (
(363,215,o),
(448,286,o),
(448,389,cs),
(448,422,o),
(444,454,o),
(437,484,cs),
(430,512,o),
(427,538,o),
(427,563,cs),
(427,597,o),
(437,621,o),
(466,621,cs),
(478,621,o),
(492,616,o),
(506,602,c),
(543,703,l),
(524,723,o),
(497,739,o),
(458,739,cs),
(370,739,o),
(322,664,o),
(322,588,cs),
(322,546,o),
(329,535,o),
(346,514,c),
(357,541,l),
(325,560,o),
(286,570,o),
(243,570,cs),
(125,570,o),
(36,492,o),
(36,388,cs),
(36,287,o),
(122,215,o),
(243,215,cs)
);
},
{
closed = 1;
nodes = (
(393,-168,o),
(483,-102,o),
(483,-1,cs),
(483,92,o),
(421,143,o),
(315,153,cs),
(215,162,ls),
(180,165,o),
(164,179,o),
(164,197,cs),
(164,216,o),
(184,232,o),
(218,234,c),
(170,261,l),
(94,244,o),
(49,198,o),
(49,145,cs),
(49,84,o),
(94,50,o),
(168,43,cs),
(271,33,ls),
(329,27,o),
(349,11,o),
(349,-19,cs),
(349,-53,o),
(311,-68,o),
(246,-68,cs),
(186,-68,o),
(143,-48,o),
(143,-2,cs),
(143,34,o),
(169,61,o),
(207,63,c),
(144,73,l),
(66,67,o),
(18,24,o),
(18,-36,cs),
(18,-117,o),
(105,-168,o),
(236,-168,cs)
);
},
{
closed = 1;
nodes = (
(204,299,o),
(179,336,o),
(179,393,cs),
(179,449,o),
(203,486,o),
(242,486,cs),
(281,486,o),
(305,449,o),
(305,392,cs),
(305,336,o),
(281,299,o),
(242,299,cs)
);
}
);
userData = {
com.hugojourdan.ColorFlow = {
"0" = 0;
"1" = 0;
"10" = 0;
"11" = 0;
"2" = 0;
"3" = 0;
"4" = 0;
"5" = 0;
"6" = 0;
"7" = 0;
"8" = 0;
"9" = 0;
};
};
width = 503;
}
);
unicode = 608;
},
{
color = 0;
glyphname = glottalstop;
layers = (
{
background = {
shapes = (
{
closed = 1;
nodes = (
(284,16,l),
(273,36,o),
(258,73,o),
(258,126,cs),
(258,210,o),
(284,247,o),
(345,318,cs),
(392,373,o),
(433,461,o),
(433,549,cs),
(433,687,o),
(351,764,o),
(215,764,cs),
(92,764,o),
(6,685,o),
(6,553,c),
(136,528,l),
(136,621,o),
(164,661,o),
(217,661,cs),
(270,661,o),
(290,621,o),
(290,566,cs),
(290,504,o),
(264,444,o),
(203,372,cs),
(142,300,o),
(118,223,o),
(118,138,cs),
(118,73,o),
(138,26,o),
(161,-10,c)
);
}
);
};
layerId = "849A9C4C-BF7C-40C5-8614-1FD725A2A379";
shapes = (
{
closed = 1;
nodes = (
(275,14,l),
(259,43,o),
(250,84,o),
(250,126,cs),
(250,203,o),
(266,240,o),
(334,319,cs),
(399,395,o),
(433,478,o),
(433,559,cs),
(433,682,o),
(349,764,o),
(223,764,cs),
(91,764,o),
(6,681,o),
(6,553,c),
(121,531,l),
(121,614,o),
(158,661,o),
(222,661,cs),
(273,661,o),
(303,626,o),
(303,566,cs),
(303,512,o),
(274,456,o),
(203,372,cs),
(146,305,o),
(118,228,o),
(118,138,cs),
(118,84,o),
(132,35,o),
(161,-10,c)
);
}
);
userData = {
com.hugojourdan.ColorFlow = {
"0" = 0;
"1" = 0;
"10" = 0;
"11" = 0;
"2" = 0;
"3" = 0;
"4" = 0;
"5" = 0;
"6" = 0;
"7" = 0;
"8" = 0;
"9" = 0;
};
};
width = 453;
}
);
unicode = 660;
},
{
glyphname = glottalstopreversed;
layers = (
{
background = {
shapes = (
{
closed = 1;
nodes = (
(308,26,o),
(328,73,o),
(328,138,cs),
(328,223,o),
(304,300,o),
(243,372,cs),
(182,444,o),
(156,504,o),
(156,566,cs),
(156,621,o),
(176,661,o),
(229,661,cs),
(282,661,o),
(310,621,o),
(310,528,c),
(440,553,l),
(440,685,o),
(354,764,o),
(231,764,cs),
(95,764,o),
(13,687,o),
(13,549,cs),
(13,461,o),
(54,373,o),
(101,318,cs),
(162,247,o),
(188,210,o),
(188,126,cs),
(188,73,o),
(173,36,o),
(162,16,c),
(285,-10,l)
);
}
);
};
layerId = "849A9C4C-BF7C-40C5-8614-1FD725A2A379";
shapes = (
{
pos = (453,0);
ref = glottalstop;
scale = (-1,1);
}
);
userData = {
com.hugojourdan.ColorFlow = {
"0" = 0;
"1" = 0;
"10" = 0;
"11" = 0;
"2" = 0;
"3" = 0;
"4" = 0;
"5" = 0;
"6" = 0;
"7" = 0;
"8" = 0;
"9" = 0;
};
};
width = 453;
}
);
unicode = 661;
},
{
glyphname = glottalstopsmall;
layers = (
{
background = {
shapes = (
{
closed = 1;
nodes = (
(284,14,l),
(274,28,o),
(268,52,o),
(268,75,cs),
(268,125,o),
(300,162,o),
(343,206,cs),
(404,268,o),
(423,325,o),
(423,391,cs),
(423,500,o),
(336,573,o),
(221,573,cs),
(97,573,o),
(16,502,o),
(16,382,c),
(135,357,l),
(140,424,o),
(155,471,o),
(219,471,cs),
(260,471,o),
(287,443,o),
(287,381,cs),
(287,328,o),
(256,288,o),
(202,234,cs),
(159,191,o),
(136,146,o),
(136,79,cs),
(136,42,o),
(146,11,o),
(161,-12,c)
);
}
);
};
layerId = "849A9C4C-BF7C-40C5-8614-1FD725A2A379";
shapes = (
{
closed = 1;
nodes = (
(284,14,l),
(274,28,o),
(268,52,o),
(268,75,cs),
(268,125,o),
(290,152,o),
(338,201,cs),
(399,263,o),
(423,325,o),
(423,391,cs),
(423,500,o),
(339,573,o),
(224,573,cs),
(100,573,o),
(16,502,o),
(16,382,c),
(131,358,l),
(136,425,o),
(162,471,o),
(219,471,cs),
(268,471,o),
(293,443,o),
(293,391,cs),
(293,328,o),
(256,288,o),
(202,234,cs),
(159,191,o),
(136,146,o),
(136,79,cs),
(136,42,o),
(146,11,o),
(161,-12,c)
);
}
);
userData = {
com.hugojourdan.ColorFlow = {
"0" = 0;
"1" = 0;
"10" = 0;
"11" = 0;
"2" = 0;
"3" = 0;
"4" = 0;
"5" = 0;
"6" = 0;
"7" = 0;
"8" = 0;
"9" = 0;
};
};
width = 447;
}
);
unicode = 578;
},
{
glyphname = gmacron;
layers = (
{
layerId = "849A9C4C-BF7C-40C5-8614-1FD725A2A379";
shapes = (
{
closed = 1;
nodes = (
(339,620,l),
(339,714,l),
(99,714,l),
(99,620,l)
);
},
{
ref = g;
}
);
userData = {
com.hugojourdan.ColorFlow = {
"0" = 0;
"1" = 0;
"10" = 0;
"11" = 0;
"2" = 0;
"3" = 0;
"4" = 0;
"5" = 0;
"6" = 0;
"7" = 0;
"8" = 0;
"9" = 0;
};
};
width = 477;
}
);
unicode = 7713;
},
{
color = 0;
glyphname = gstroke;
layers = (
{
anchors = (
{
name = bottom;
pos = (236,0);
},
{
name = top;
pos = (232,563);
}
);
guides = (
{
angle = 263.8534;
pos = (590,5);
}
);
layerId = "849A9C4C-BF7C-40C5-8614-1FD725A2A379";
shapes = (
{
closed = 1;
nodes = (
(393,-168,o),
(483,-102,o),
(483,-1,cs),
(483,92,o),
(421,143,o),
(315,153,cs),
(215,162,ls),
(180,165,o),
(164,179,o),
(164,197,cs),
(164,216,o),
(184,232,o),
(218,234,c),
(170,261,l),
(94,244,o),
(49,198,o),
(49,145,cs),
(49,84,o),
(94,50,o),
(168,43,cs),
(271,33,ls),
(329,27,o),
(349,11,o),
(349,-19,cs),
(349,-53,o),
(311,-68,o),
(246,-68,cs),
(186,-68,o),
(143,-48,o),
(143,-2,cs),
(143,34,o),
(169,61,o),
(207,63,c),
(144,73,l),
(66,67,o),
(18,24,o),
(18,-36,cs),
(18,-117,o),
(105,-168,o),
(236,-168,cs)
);
},
{
closed = 1;
nodes = (
(363,215,o),
(448,286,o),
(448,388,cs),
(448,492,o),
(360,570,o),
(243,570,cs),
(125,570,o),
(36,492,o),
(36,388,cs),
(36,287,o),
(122,215,o),
(243,215,cs)
);
},
{
closed = 1;
nodes = (
(204,299,o),
(179,336,o),
(179,393,cs),
(179,449,o),
(203,486,o),
(242,486,cs),
(281,486,o),
(305,449,o),
(305,392,cs),
(305,336,o),
(281,299,o),
(242,299,cs)
);
},
{
closed = 1;
nodes = (
(413,531,o),
(453,555,o),
(495,566,c),
(458,680,l),
(392,660,o),
(348,581,o),
(347,500,c),
(388,500,l)
);
},
{
closed = 1;
nodes = (
(542,-44,l),
(549,0,l),
(-40,0,l),
(-40,-44,l)
);
}
);
userData = {
com.hugojourdan.ColorFlow = {
"0" = 0;
"1" = 0;
"10" = 0;
"11" = 0;
"2" = 0;
"3" = 0;
"4" = 0;
"5" = 0;
"6" = 0;
"7" = 0;
"8" = 0;
"9" = 0;
};
};
width = 503;
}
);
unicode = 485;
},
{
glyphname = h;
kernLeft = KO_l;
kernRight = KO_n;
layers = (
{
anchors = (
{
name = bottom;
pos = (260,0);
},
{
name = center;
pos = (157,654);
},
{
name = top;
pos = (119,750);
}
);
background = {
shapes = (
{
closed = 1;
nodes = (
(190,0,l),
(190,390,l),
(190,390,l),
(190,750,l),
(50,750,l),
(50,0,l)
);
},
{
closed = 1;
nodes = (
(464,0,l),
(464,404,ls),
(464,515,o),
(418,573,o),
(330,573,cs),
(241,573,o),
(183,513,o),
(167,404,c),
(190,289,l),
(190,393,o),
(220,455,o),
(271,455,cs),
(304,455,o),
(324,431,o),
(324,370,cs),
(324,0,l)
);
}
);
};
layerId = "849A9C4C-BF7C-40C5-8614-1FD725A2A379";
shapes = (
{
closed = 1;
nodes = (
(190,760,l),
(50,743,l),
(50,0,l),
(190,0,l)
);
},
{
closed = 1;
nodes = (
(190,287,l),
(190,382,o),
(222,453,o),
(269,453,cs),
(308,453,o),
(324,428,o),
(324,348,cs),
(324,0,l),
(464,0,l),
(464,404,ls),
(464,521,o),
(413,573,o),
(334,573,cs),
(257,573,o),
(196,526,o),
(180,418,c)
);
}
);
userData = {
com.hugojourdan.ColorFlow = {
"0" = 0;
"1" = 0;
"10" = 0;
"11" = 0;
"2" = 0;
"3" = 0;
"4" = 0;
"5" = 0;
"6" = 0;
"7" = 0;
"8" = 0;
"9" = 0;
};
};
width = 509;
}
);
metricLeft = n;
metricRight = n;
unicode = 104;
},
{
glyphname = hbar;
kernRight = KO_n;
layers = (
{
background = {
shapes = (
{
closed = 1;
nodes = (
(302,603,l),
(312,693,l),
(-16,693,l),
(-16,603,l)
);
}
);
};
guides = (
{
angle = 83;
pos = (312,687);
}
);
layerId = "849A9C4C-BF7C-40C5-8614-1FD725A2A379";
shapes = (
{
ref = h;
},
{
pos = (157,361);
ref = strokeshortcomb;
}
);
userData = {
com.hugojourdan.ColorFlow = {
"0" = 0;
"1" = 0;
"10" = 0;
"11" = 0;
"2" = 0;
"3" = 0;
"4" = 0;
"5" = 0;
"6" = 0;
"7" = 0;
"8" = 0;
"9" = 0;
};
};
width = 509;
}
);
unicode = 295;
},
{
glyphname = heng;
layers = (
{
background = {
shapes = (
{
closed = 1;
nodes = (
(424,-173,o),
(475,-117,o),
(475,-8,cs),
(475,404,ls),
(475,521,o),
(424,573,o),
(345,573,cs),
(268,573,o),
(207,526,o),
(191,418,c),
(201,287,l),
(201,382,o),
(233,454,o),
(280,454,cs),
(329,454,o),
(335,408,o),
(335,348,cs),
(335,-22,ls),
(335,-47,o),
(323,-59,o),
(306,-59,cs),
(297,-59,o),
(291,-58,o),
(284,-56,c),
(273,-160,l),
(293,-167,o),
(313,-173,o),
(341,-173,cs)
);
},
{
closed = 1;
nodes = (
(201,0,l),
(201,760,l),
(61,743,l),
(61,0,l)
);
}
);
};
layerId = "849A9C4C-BF7C-40C5-8614-1FD725A2A379";
shapes = (
{
closed = 1;
nodes = (
(408,-168,o),
(464,-93,o),
(464,5,cs),
(464,404,ls),
(464,521,o),
(413,573,o),
(334,573,cs),
(257,573,o),
(196,526,o),
(180,418,c),
(190,287,l),
(190,382,o),
(222,453,o),
(269,453,cs),
(308,453,o),
(324,428,o),
(324,348,cs),
(324,13,ls),
(324,-35,o),
(313,-52,o),
(272,-52,cs),
(258,-52,o),
(248,-50,o),
(237,-46,c),
(224,-154,l),
(255,-164,o),
(283,-168,o),
(313,-168,cs)
);
},
{
closed = 1;
nodes = (
(190,0,l),
(190,760,l),
(50,743,l),
(50,0,l)
);
}
);
userData = {
com.hugojourdan.ColorFlow = {
"0" = 0;
"1" = 0;
"10" = 0;
"11" = 0;
"2" = 0;
"3" = 0;
"4" = 0;
"5" = 0;
"6" = 0;
"7" = 0;
"8" = 0;
"9" = 0;
};
};
width = 509;
}
);
unicode = 42791;
},
{
glyphname = hhook;
kernLeft = KO_l;
kernRight = KO_n;
layers = (
{
anchors = (
{
name = bottom;
pos = (255,0);
},
{
name = top;
pos = (255,564);
}
);
background = {
shapes = (
{
closed = 1;
nodes = (
(201,0,l),
(201,583,ls),
(201,624,o),
(218,644,o),
(253,644,cs),
(267,644,o),
(277,642,o),
(288,638,c),
(301,748,l),
(278,757,o),
(257,760,o),
(234,760,cs),
(127,760,o),
(61,685,o),
(61,587,cs),
(61,0,l)
);
},
{
closed = 1;
nodes = (
(475,0,l),
(475,404,ls),
(475,521,o),
(424,573,o),
(345,573,cs),
(268,573,o),
(207,526,o),
(191,418,c),
(201,287,l),
(201,382,o),
(233,454,o),
(280,454,cs),
(329,454,o),
(335,408,o),
(335,348,cs),
(335,0,l)
);
}
);
};
layerId = "849A9C4C-BF7C-40C5-8614-1FD725A2A379";
shapes = (
{
closed = 1;
nodes = (
(190,0,l),
(190,586,ls),
(190,632,o),
(207,651,o),
(237,651,cs),
(254,651,o),
(269,649,o),
(286,644,c),
(298,743,l),
(275,754,o),
(244,760,o),
(210,760,cs),
(109,760,o),
(50,698,o),
(50,585,cs),
(50,0,l)
);
},
{
closed = 1;
nodes = (
(464,0,l),
(464,404,ls),
(464,521,o),
(413,573,o),
(334,573,cs),
(257,573,o),
(196,526,o),
(180,418,c),
(190,287,l),
(190,382,o),
(222,453,o),
(269,453,cs),
(308,453,o),
(324,428,o),
(324,348,cs),
(324,0,l)
);
}
);
userData = {
com.hugojourdan.ColorFlow = {
"0" = 0;
"1" = 0;
"10" = 0;
"11" = 0;
"2" = 0;
"3" = 0;
"4" = 0;
"5" = 0;
"6" = 0;
"7" = 0;
"8" = 0;
"9" = 0;
};
};
width = 509;
}
);
unicode = 614;
},
{
glyphname = hturned;
kernLeft = KO_u;
kernRight = KO_u;
layers = (
{
anchors = (
{
name = bottom;
pos = (249,0);
},
{
name = top;
pos = (249,563);
}
);
background = {
shapes = (
{
closed = 1;
nodes = (
(459,-156,l),
(459,563,l),
(319,563,l),
(319,-173,l)
);
},
{
closed = 1;
nodes = (
(252,-10,o),
(313,37,o),
(329,145,c),
(319,276,l),
(319,181,o),
(287,109,o),
(240,109,cs),
(191,109,o),
(185,155,o),
(185,215,cs),
(185,563,l),
(45,563,l),
(45,159,ls),
(45,42,o),
(96,-10,o),
(175,-10,cs)
);
}
);
};
layerId = "849A9C4C-BF7C-40C5-8614-1FD725A2A379";
shapes = (
{
closed = 1;
nodes = (
(252,-9,o),
(313,38,o),
(329,146,c),
(319,277,l),
(319,182,o),
(287,111,o),
(240,111,cs),
(201,111,o),
(185,136,o),
(185,216,cs),
(185,564,l),
(45,564,l),
(45,160,ls),
(45,43,o),
(96,-9,o),
(175,-9,cs)
);
},
{
closed = 1;
nodes = (
(459,-168,l),
(459,564,l),
(319,564,l),
(319,-185,l)
);
}
);
userData = {
com.hugojourdan.ColorFlow = {
"0" = 0;
"1" = 0;
"10" = 0;
"11" = 0;
"2" = 0;
"3" = 0;
"4" = 0;
"5" = 0;
"6" = 0;
"7" = 0;
"8" = 0;
"9" = 0;
};
};
width = 509;
}
);
unicode = 613;
},
{
glyphname = i;
kernLeft = KO_i;
kernRight = KO_i;
layers = (
{
anchors = (
{
name = bottom;
pos = (122,0);
}
);
background = {
shapes = (
{
closed = 1;
nodes = (
(194,632,l),
(194,760,l),
(50,760,l),
(50,632,l)
);
},
{
pos = (-9,0);
ref = idotless;
}
);
};
layerId = "849A9C4C-BF7C-40C5-8614-1FD725A2A379";
shapes = (
{
closed = 1;
nodes = (
(192,0,l),
(192,567,l),
(52,550,l),
(52,0,l)
);
},
{
closed = 1;
nodes = (
(194,632,l),
(194,760,l),
(50,760,l),
(50,632,l)
);
}
);
userData = {
com.hugojourdan.ColorFlow = {
"0" = 0;
"1" = 0;
"10" = 0;
"11" = 0;
"2" = 0;
"3" = 0;
"4" = 0;
"5" = 0;
"6" = 0;
"7" = 0;
"8" = 0;
"9" = 0;
};
};
width = 244;
}
);
metricRight = "=|";
unicode = 105;
userData = {
KernOnName = i;
};
},
{
glyphname = idotless;
kernLeft = KO_n;
kernRight = KO_i;
layers = (
{
anchors = (
{
name = bottom;
pos = (122,0);
},
{
name = ogonek;
pos = (216,5);
},
{
name = top;
pos = (122,561);
}
);
layerId = "849A9C4C-BF7C-40C5-8614-1FD725A2A379";
shapes = (
{
closed = 1;
nodes = (
(192,0,l),
(192,567,l),
(52,550,l),
(52,0,l)
);
}
);
userData = {
com.hugojourdan.ColorFlow = {
"0" = 0;
"1" = 0;
"10" = 0;
"11" = 0;
"2" = 0;
"3" = 0;
"4" = 0;
"5" = 0;
"6" = 0;
"7" = 0;
"8" = 0;
"9" = 0;
};
};
width = 244;
}
);
unicode = 305;
userData = {
com.fontlab.hintData = {
vhints = (
{
position = 124;
width = 288;
}
);
};
};
},
{
glyphname = idieresisacute;
layers = (
{
background = {
shapes = (
{
closed = 1;
nodes = (
(275,864,l),
(211,988,l),
(21,848,l),
(53,783,l)
);
}
);
};
layerId = "849A9C4C-BF7C-40C5-8614-1FD725A2A379";
shapes = (
{
closed = 1;
nodes = (
(265,866,l),
(207,979,l),
(20,848,l),
(53,783,l)
);
},
{
alignment = -1;
pos = (13,0);
ref = idotless;
},
{
pos = (135,-2);
ref = dieresiscomb.narrow;
}
);
userData = {
com.hugojourdan.ColorFlow = {
"0" = 0;
"1" = 0;
"10" = 0;
"11" = 0;
"2" = 0;
"3" = 0;
"4" = 0;
"5" = 0;
"6" = 0;
"7" = 0;
"8" = 0;
"9" = 0;
};
};
width = 270;
}
);
unicode = 7727;
},
{
glyphname = "iota-latin";
layers = (
{
anchors = (
{
name = bottom;
pos = (127,0);
},
{
name = top;
pos = (127,564);
}
);
background = {
shapes = (
{
closed = 1;
nodes = (
(214,-11,o),
(234,-5,o),
(254,2,c),
(243,106,l),
(236,104,o),
(230,103,o),
(221,103,cs),
(204,103,o),
(192,115,o),
(192,140,cs),
(192,567,l),
(52,550,l),
(52,154,ls),
(52,45,o),
(103,-11,o),
(186,-11,cs)
);
}
);
};
layerId = "849A9C4C-BF7C-40C5-8614-1FD725A2A379";
shapes = (
{
closed = 1;
nodes = (
(214,-11,o),
(234,-5,o),
(254,2,c),
(243,106,l),
(236,104,o),
(230,103,o),
(221,103,cs),
(204,103,o),
(192,115,o),
(192,140,cs),
(192,567,l),
(52,550,l),
(52,144,ls),
(52,35,o),
(103,-11,o),
(186,-11,cs)
);
}
);
userData = {
com.hugojourdan.ColorFlow = {
"0" = 0;
"1" = 0;
"10" = 0;
"11" = 0;
"2" = 0;
"3" = 0;
"4" = 0;
"5" = 0;
"6" = 0;
"7" = 0;
"8" = 0;
"9" = 0;
};
};
width = 254;
}
);
unicode = 617;
},
{
color = 0;
glyphname = istroke;
layers = (
{
background = {
shapes = (
{
closed = 1;
nodes = (
(261,251,l),
(271,341,l),
(10,341,l),
(10,251,l)
);
}
);
};
layerId = "849A9C4C-BF7C-40C5-8614-1FD725A2A379";
shapes = (
{
pos = (18,0);
ref = i;
},
{
closed = 1;
nodes = (
(262,264,l),
(269,329,l),
(10,329,l),
(10,264,l)
);
}
);
userData = {
com.hugojourdan.ColorFlow = {
"0" = 0;
"1" = 0;
"10" = 0;
"11" = 0;
"2" = 0;
"3" = 0;
"4" = 0;
"5" = 0;
"6" = 0;
"7" = 0;
"8" = 0;
"9" = 0;
};
};
width = 279;
}
);
unicode = 616;
},
{
glyphname = j;
kernLeft = KO_j;
kernRight = KO_i;
layers = (
{
background = {
shapes = (
{
closed = 1;
nodes = (
(149,-182,o),
(212,-131,o),
(212,-12,cs),
(212,564,l),
(72,564,l),
(72,-23,ls),
(72,-60,o),
(53,-72,o),
(25,-72,cs),
(8,-72,o),
(-4,-68,o),
(-17,-62,c),
(-32,-162,l),
(-8,-174,o),
(18,-182,o),
(55,-182,cs)
);
},
{
closed = 1;
nodes = (
(214,644,l),
(214,771,l),
(70,771,l),
(70,644,l)
);
}
);
};
layerId = "849A9C4C-BF7C-40C5-8614-1FD725A2A379";
shapes = (
{
closed = 1;
nodes = (
(154,-168,o),
(210,-93,o),
(210,5,cs),
(210,567,l),
(70,550,l),
(70,10,ls),
(70,-36,o),
(52,-52,o),
(18,-52,cs),
(4,-52,o),
(-6,-50,o),
(-17,-46,c),
(-30,-154,l),
(1,-164,o),
(21,-168,o),
(59,-168,cs)
);
},
{
closed = 1;
nodes = (
(212,632,l),
(212,760,l),
(68,760,l),
(68,632,l)
);
}
);
userData = {
com.hugojourdan.ColorFlow = {
"0" = 0;
"1" = 0;
"10" = 0;
"11" = 0;
"2" = 0;
"3" = 0;
"4" = 0;
"5" = 0;
"6" = 0;
"7" = 0;
"8" = 0;
"9" = 0;
};
};
width = 262;
}
);
metricRight = i;
unicode = 106;
userData = {
KernOnName = j;
};
},
{
glyphname = jdotless;
layers = (
{
anchors = (
{
name = bottom;
pos = (131,-250);
},
{
name = top;
pos = (131,564);
}
);
background = {
shapes = (
{
closed = 1;
nodes = (
(172,-168,o),
(228,-93,o),
(228,5,cs),
(228,566,l),
(88,553,l),
(88,34,ls),
(88,-29,o),
(77,-56,o),
(34,-56,cs),
(22,-56,o),
(12,-54,o),
(1,-50,c),
(-12,-154,l),
(19,-164,o),
(47,-168,o),
(81,-168,cs)
);
}
);
};
layerId = "849A9C4C-BF7C-40C5-8614-1FD725A2A379";
shapes = (
{
closed = 1;
nodes = (
(154,-168,o),
(210,-93,o),
(210,5,cs),
(210,567,l),
(70,550,l),
(70,10,ls),
(70,-36,o),
(52,-52,o),
(18,-52,cs),
(4,-52,o),
(-6,-50,o),
(-17,-46,c),
(-30,-154,l),
(1,-164,o),
(21,-168,o),
(59,-168,cs)
);
}
);
userData = {
com.hugojourdan.ColorFlow = {
"0" = 0;
"1" = 0;
"10" = 0;
"11" = 0;
"2" = 0;
"3" = 0;
"4" = 0;
"5" = 0;
"6" = 0;
"7" = 0;
"8" = 0;
"9" = 0;
};
};
width = 262;
}
);
metricRight = idotless;
unicode = 567;
},
{
color = 0;
glyphname = jcrossedtail;
layers = (
{
background = {
shapes = (
{
closed = 1;
nodes = (
(270,-168,o),
(326,-93,o),
(326,5,cs),
(326,567,l),
(186,550,l),
(186,4,ls),
(186,-39,o),
(172,-57,o),
(150,-57,cs),
(126,-57,o),
(112,-30,o),
(112,25,cs),
(112,88,o),
(154,139,o),
(213,139,c),
(213,255,l),
(75,255,o),
(-10,151,o),
(-10,25,cs),
(-10,-93,o),
(39,-168,o),
(157,-168,cs)
);
},
{
closed = 1;
nodes = (
(386,236,l),
(352,251,o),
(324,255,o),
(284,255,c),
(315,138,l),
(337,138,o),
(352,134,o),
(371,124,c)
);
}
);
};
layerId = "849A9C4C-BF7C-40C5-8614-1FD725A2A379";
shapes = (
{
closed = 1;
nodes = (
(270,-168,o),
(326,-93,o),
(326,5,cs),
(326,567,l),
(186,550,l),
(186,4,ls),
(186,-39,o),
(172,-57,o),
(150,-57,cs),
(106,-57,o),
(92,-17,o),
(92,38,cs),
(92,109,o),
(154,147,o),
(213,147,c),
(213,255,l),
(75,255,o),
(-30,164,o),
(-30,25,cs),
(-30,-93,o),
(46,-168,o),
(157,-168,cs)
);
},
{
closed = 1;
nodes = (
(386,236,l),
(352,251,o),
(324,255,o),
(284,255,c),
(315,146,l),
(337,146,o),
(352,142,o),
(371,132,c)
);
},
{
closed = 1;
nodes = (
(328,632,l),
(328,760,l),
(184,760,l),
(184,632,l)
);
}
);
userData = {
com.hugojourdan.ColorFlow = {
"0" = 0;
"1" = 0;
"10" = 0;
"11" = 0;
"2" = 0;
"3" = 0;
"4" = 0;
"5" = 0;
"6" = 0;
"7" = 0;
"8" = 0;
"9" = 0;
};
};
width = 386;
}
);
unicode = 669;
},
{
color = 0;
glyphname = jdotlessstroke;
layers = (
{
layerId = "849A9C4C-BF7C-40C5-8614-1FD725A2A379";
shapes = (
{
pos = (7,0);
ref = jdotless;
},
{
closed = 1;
nodes = (
(273,264,l),
(280,329,l),
(18,329,l),
(18,264,l)
);
}
);
userData = {
com.hugojourdan.ColorFlow = {
"0" = 0;
"1" = 0;
"10" = 0;
"11" = 0;
"2" = 0;
"3" = 0;
"4" = 0;
"5" = 0;
"6" = 0;
"7" = 0;
"8" = 0;
"9" = 0;
};
};
width = 290;
}
);
unicode = 607;
},
{
color = 0;
glyphname = jstroke;
layers = (
{
background = {
shapes = (
{
ref = jdotless;
},
{
pos = (138,0);
ref = dotaccentcomb;
},
{
closed = 1;
nodes = (
(273,264,l),
(280,329,l),
(18,329,l),
(18,264,l)
);
}
);
};
layerId = "849A9C4C-BF7C-40C5-8614-1FD725A2A379";
shapes = (
{
pos = (7,0);
ref = j;
},
{
closed = 1;
nodes = (
(273,264,l),
(280,329,l),
(18,329,l),
(18,264,l)
);
}
);
userData = {
com.hugojourdan.ColorFlow = {
"0" = 0;
"1" = 0;
"10" = 0;
"11" = 0;
"2" = 0;
"3" = 0;
"4" = 0;
"5" = 0;
"6" = 0;
"7" = 0;
"8" = 0;
"9" = 0;
};
};
width = 290;
}
);
unicode = 585;
},
{
glyphname = k;
kernLeft = KO_l;
kernRight = KO_k;
layers = (
{
anchors = (
{
name = bottom;
pos = (258,0);
},
{
name = top;
pos = (120,750);
}
);
background = {
shapes = (
{
closed = 1;
nodes = (
(279,283,l),
(309,306,l),
(474,564,l),
(343,564,l),
(163,275,l),
(176,117,l)
);
},
{
closed = 1;
nodes = (
(190,0,l),
(190,752,l),
(50,752,l),
(50,0,l)
);
},
{
closed = 1;
nodes = (
(485,0,l),
(317,373,l),
(221,265,l),
(335,0,l)
);
}
);
};
layerId = "849A9C4C-BF7C-40C5-8614-1FD725A2A379";
shapes = (
{
closed = 1;
nodes = (
(288,314,l),
(301,306,l),
(463,563,l),
(322,563,l),
(174,325,l),
(185,158,l)
);
},
{
closed = 1;
nodes = (
(190,0,l),
(190,760,l),
(50,743,l),
(50,0,l)
);
},
{
closed = 1;
nodes = (
(474,25,l),
(317,373,l),
(226,265,l),
(350,-16,l)
);
}
);
userData = {
com.hugojourdan.ColorFlow = {
"0" = 0;
"1" = 0;
"10" = 0;
"11" = 0;
"2" = 0;
"3" = 0;
"4" = 0;
"5" = 0;
"6" = 0;
"7" = 0;
"8" = 0;
"9" = 0;
};
};
width = 482;
}
);
metricLeft = n;
unicode = 107;
userData = {
KernOnName = k;
};
},
{
glyphname = kgreenlandic;
kernLeft = KO_n;
kernRight = KO_k;
layers = (
{
anchors = (
{
name = bottom;
pos = (241,0);
},
{
name = top;
pos = (241,564);
}
);
background = {
shapes = (
{
closed = 1;
nodes = (
(201,0,l),
(201,131,l),
(266,241,l),
(300,221,l),
(472,536,l),
(359,581,l),
(201,292,l),
(201,563,l),
(61,563,l),
(61,0,l)
);
},
{
closed = 1;
nodes = (
(493,29,l),
(339,356,l),
(232,281,l),
(367,-16,l)
);
}
);
};
layerId = "849A9C4C-BF7C-40C5-8614-1FD725A2A379";
shapes = (
{
closed = 1;
nodes = (
(288,314,l),
(301,306,l),
(463,563,l),
(322,563,l),
(174,325,l),
(185,158,l)
);
},
{
closed = 1;
nodes = (
(190,0,l),
(190,564,l),
(50,547,l),
(50,0,l)
);
},
{
closed = 1;
nodes = (
(474,25,l),
(317,373,l),
(226,265,l),
(350,-16,l)
);
}
);
userData = {
com.hugojourdan.ColorFlow = {
"0" = 0;
"1" = 0;
"10" = 0;
"11" = 0;
"2" = 0;
"3" = 0;
"4" = 0;
"5" = 0;
"6" = 0;
"7" = 0;
"8" = 0;
"9" = 0;
};
};
width = 482;
}
);
unicode = 312;
},
{
glyphname = khook;
kernLeft = KO_l;
kernRight = KO_k;
layers = (
{
anchors = (
{
name = bottom;
pos = (241,0);
},
{
name = top;
pos = (241,564);
}
);
background = {
shapes = (
{
closed = 1;
nodes = (
(201,0,l),
(201,583,ls),
(201,624,o),
(218,644,o),
(253,644,cs),
(267,644,o),
(277,642,o),
(288,638,c),
(301,748,l),
(278,757,o),
(257,760,o),
(234,760,cs),
(127,760,o),
(61,685,o),
(61,587,cs),
(61,0,l)
);
},
{
closed = 1;
nodes = (
(485,25,l),
(328,373,l),
(237,265,l),
(361,-16,l)
);
},
{
closed = 1;
nodes = (
(299,314,l),
(312,306,l),
(474,563,l),
(333,563,l),
(185,325,l),
(196,158,l)
);
}
);
};
layerId = "849A9C4C-BF7C-40C5-8614-1FD725A2A379";
shapes = (
{
closed = 1;
nodes = (
(190,0,l),
(190,586,ls),
(190,632,o),
(207,651,o),
(237,651,cs),
(254,651,o),
(269,649,o),
(286,644,c),
(298,743,l),
(275,754,o),
(244,760,o),
(210,760,cs),
(109,760,o),
(50,698,o),
(50,585,cs),
(50,0,l)
);
},
{
closed = 1;
nodes = (
(474,25,l),
(317,373,l),
(226,265,l),
(350,-16,l)
);
},
{
closed = 1;
nodes = (
(288,314,l),
(301,306,l),
(463,563,l),
(322,563,l),
(174,325,l),
(185,158,l)
);
}
);
userData = {
com.hugojourdan.ColorFlow = {
"0" = 0;
"1" = 0;
"10" = 0;
"11" = 0;
"2" = 0;
"3" = 0;
"4" = 0;
"5" = 0;
"6" = 0;
"7" = 0;
"8" = 0;
"9" = 0;
};
};
width = 482;
}
);
unicode = 409;
},
{
glyphname = kstroke;
layers = (
{
background = {
shapes = (
{
closed = 1;
nodes = (
(301,593,l),
(311,683,l),
(-17,683,l),
(-17,593,l)
);
}
);
};
layerId = "849A9C4C-BF7C-40C5-8614-1FD725A2A379";
shapes = (
{
ref = k;
},
{
pos = (157,361);
ref = strokeshortcomb;
}
);
userData = {
com.hugojourdan.ColorFlow = {
"0" = 0;
"1" = 0;
"10" = 0;
"11" = 0;
"2" = 0;
"3" = 0;
"4" = 0;
"5" = 0;
"6" = 0;
"7" = 0;
"8" = 0;
"9" = 0;
};
};
width = 482;
}
);
unicode = 42817;
},
{
glyphname = l;
kernLeft = KO_l;
kernRight = KO_i;
layers = (
{
anchors = (
{
name = bottom;
pos = (119,0);
},
{
name = center;
pos = (130,374);
},
{
name = top;
pos = (119,750);
},
{
name = topright;
pos = (226,750);
}
);
background = {
shapes = (
{
closed = 1;
nodes = (
(190,0,l),
(190,750,l),
(50,750,l),
(50,0,l)
);
}
);
};
layerId = "849A9C4C-BF7C-40C5-8614-1FD725A2A379";
shapes = (
{
closed = 1;
nodes = (
(190,0,l),
(190,760,l),
(50,742,l),
(50,0,l)
);
}
);
userData = {
com.hugojourdan.ColorFlow = {
"0" = 0;
"1" = 0;
"10" = 0;
"11" = 0;
"2" = 0;
"3" = 0;
"4" = 0;
"5" = 0;
"6" = 0;
"7" = 0;
"8" = 0;
"9" = 0;
};
};
width = 240;
}
);
metricLeft = h;
metricRight = "=|";
unicode = 108;
userData = {
KernOnName = l;
};
},
{
color = 4;
glyphname = lambdastroke;
layers = (
{
anchors = (
{
name = bottom;
pos = (248,0);
},
{
name = top;
pos = (248,1050);
}
);
layerId = "849A9C4C-BF7C-40C5-8614-1FD725A2A379";
shapes = (
{
closed = 1;
nodes = (
(453,-10,o),
(479,0,o),
(507,19,c),
(470,120,l),
(456,108,o),
(444,102,o),
(431,102,cs),
(406,102,o),
(396,112,o),
(390,135,cs),
(283,575,ls),
(256,688,o),
(200,759,o),
(80,759,cs),
(45,759,o),
(26,756,o),
(0,746,c),
(24,633,l),
(39,640,o),
(52,642,o),
(72,642,cs),
(117,642,o),
(151,604,o),
(151,556,c),
(4,10,l),
(145,-9,l),
(204,304,ls),
(211,339,o),
(217,369,o),
(219,395,c),
(221,369,o),
(227,338,o),
(234,305,cs),
(271,124,ls),
(291,28,o),
(334,-10,o),
(423,-10,cs)
);
},
{
closed = 1;
nodes = (
(368,628,l),
(343,693,l),
(45,579,l),
(70,513,l)
);
}
);
userData = {
com.hugojourdan.ColorFlow = {
"0" = 0;
"1" = 0;
"10" = 0;
"11" = 0;
"2" = 0;
"3" = 0;
"4" = 0;
"5" = 0;
"6" = 0;
"7" = 0;
"8" = 0;
"9" = 0;
};
};
width = 495;
}
);
unicode = 411;
},
{
glyphname = lbar;
layers = (
{
background = {
shapes = (
{
closed = 1;
nodes = (
(268,332,l),
(278,422,l),
(17,422,l),
(17,332,l)
);
}
);
};
layerId = "849A9C4C-BF7C-40C5-8614-1FD725A2A379";
shapes = (
{
alignment = -1;
pos = (11,0);
ref = l;
},
{
pos = (141,81);
ref = strokeshortcomb;
scale = (0.8,1);
}
);
userData = {
com.hugojourdan.ColorFlow = {
"0" = 0;
"1" = 0;
"10" = 0;
"11" = 0;
"2" = 0;
"3" = 0;
"4" = 0;
"5" = 0;
"6" = 0;
"7" = 0;
"8" = 0;
"9" = 0;
};
};
width = 266;
}
);
unicode = 410;
},
{
color = 0;
glyphname = lbelt;
layers = (
{
layerId = "849A9C4C-BF7C-40C5-8614-1FD725A2A379";
shapes = (
{
closed = 1;
nodes = (
(339,263,l),
(349,353,l),
(136,353,ls),
(100,353,o),
(89,371,o),
(89,393,cs),
(89,414,o),
(100,433,o),
(136,433,cs),
(203,433,l),
(203,523,l),
(132,523,ls),
(61,523,o),
(0,472,o),
(0,392,cs),
(0,315,o),
(61,263,o),
(132,263,cs)
);
},
{
pos = (88,0);
ref = l;
}
);
userData = {
com.hugojourdan.ColorFlow = {
"0" = 0;
"1" = 0;
"10" = 0;
"11" = 0;
"2" = 0;
"3" = 0;
"4" = 0;
"5" = 0;
"6" = 0;
"7" = 0;
"8" = 0;
"9" = 0;
};
};
width = 335;
}
);
unicode = 620;
},
{
glyphname = ldoublebar;
layers = (
{
background = {
shapes = (
{
closed = 1;
nodes = (
(263,412,l),
(273,502,l),
(12,502,l),
(12,412,l)
);
},
{
closed = 1;
nodes = (
(263,252,l),
(273,342,l),
(12,342,l),
(12,252,l)
);
}
);
};
layerId = "849A9C4C-BF7C-40C5-8614-1FD725A2A379";
shapes = (
{
alignment = -1;
pos = (8,0);
ref = l;
},
{
alignment = -1;
pos = (141,1);
ref = strokeshortcomb;
scale = (0.8,1);
},
{
alignment = -1;
pos = (141,161);
ref = strokeshortcomb;
scale = (0.8,1);
}
);
userData = {
com.hugojourdan.ColorFlow = {
"0" = 0;
"1" = 0;
"10" = 0;
"11" = 0;
"2" = 0;
"3" = 0;
"4" = 0;
"5" = 0;
"6" = 0;
"7" = 0;
"8" = 0;
"9" = 0;
};
};
width = 266;
}
);
unicode = 11361;
},
{
color = 0;
glyphname = lslash;
kernLeft = KO_lslash;
layers = (
{
layerId = "849A9C4C-BF7C-40C5-8614-1FD725A2A379";
shapes = (
{
closed = 1;
nodes = (
(308,439,l),
(289,552,l),
(0,333,l),
(19,220,l)
);
},
{
pos = (23,0);
ref = l;
}
);
userData = {
com.hugojourdan.ColorFlow = {
"0" = 0;
"1" = 0;
"10" = 0;
"11" = 0;
"2" = 0;
"3" = 0;
"4" = 0;
"5" = 0;
"6" = 0;
"7" = 0;
"8" = 0;
"9" = 0;
};
};
width = 312;
}
);
unicode = 322;
},
{
glyphname = m;
kernLeft = KO_n;
kernRight = KO_n;
layers = (
{
anchors = (
{
name = bottom;
pos = (370,0);
},
{
name = top;
pos = (374,563);
}
);
background = {
shapes = (
{
closed = 1;
nodes = (
(694,0,l),
(694,410,ls),
(694,503,o),
(669,570,o),
(575,570,cs),
(497,570,o),
(449,513,o),
(429,431,c),
(442,334,l),
(442,393,o),
(469,447,o),
(505,447,cs),
(543,447,o),
(554,414,o),
(554,367,cs),
(554,0,l)
);
},
{
closed = 1;
nodes = (
(190,0,l),
(190,390,l),
(184,432,l),
(184,564,l),
(50,547,l),
(50,0,l)
);
},
{
closed = 1;
nodes = (
(442,0,l),
(442,421,l),
(442,495,o),
(405,570,o),
(325,570,cs),
(252,570,o),
(204,517,o),
(184,437,c),
(190,323,l),
(190,374,o),
(219,447,o),
(258,447,cs),
(289,447,o),
(302,418,o),
(302,366,cs),
(302,0,l)
);
}
);
};
layerId = "849A9C4C-BF7C-40C5-8614-1FD725A2A379";
shapes = (
{
closed = 1;
nodes = (
(190,0,l),
(190,390,l),
(184,390,l),
(184,564,l),
(50,547,l),
(50,0,l)
);
},
{
closed = 1;
nodes = (
(442,0,l),
(442,394,ls),
(442,521,o),
(401,573,o),
(325,573,cs),
(257,573,o),
(196,526,o),
(180,418,c),
(190,287,l),
(190,392,o),
(219,449,o),
(259,449,cs),
(288,449,o),
(302,424,o),
(302,354,cs),
(302,0,l)
);
},
{
closed = 1;
nodes = (
(694,0,l),
(694,394,ls),
(694,521,o),
(653,573,o),
(577,573,cs),
(509,573,o),
(448,526,o),
(432,418,c),
(442,287,l),
(442,392,o),
(471,449,o),
(511,449,cs),
(540,449,o),
(554,424,o),
(554,354,cs),
(554,0,l)
);
}
);
userData = {
com.hugojourdan.ColorFlow = {
"0" = 0;
"1" = 0;
"10" = 0;
"11" = 0;
"2" = 0;
"3" = 0;
"4" = 0;
"5" = 0;
"6" = 0;
"7" = 0;
"8" = 0;
"9" = 0;
};
};
width = 739;
}
);
metricLeft = n;
metricRight = n;
unicode = 109;
},
{
glyphname = mturned;
kernLeft = KO_u;
kernRight = KO_u;
layers = (
{
anchors = (
{
name = bottom;
pos = (365,1);
},
{
name = top;
pos = (369,564);
}
);
layerId = "849A9C4C-BF7C-40C5-8614-1FD725A2A379";
shapes = (
{
closed = 1;
nodes = (
(482,-9,o),
(543,38,o),
(559,146,c),
(549,277,l),
(549,172,o),
(520,115,o),
(480,115,cs),
(451,115,o),
(437,140,o),
(437,210,cs),
(437,564,l),
(297,564,l),
(297,170,ls),
(297,43,o),
(338,-9,o),
(414,-9,cs)
);
},
{
closed = 1;
nodes = (
(230,-9,o),
(291,38,o),
(307,146,c),
(297,277,l),
(297,172,o),
(268,115,o),
(228,115,cs),
(199,115,o),
(185,140,o),
(185,210,cs),
(185,564,l),
(45,564,l),
(45,170,ls),
(45,43,o),
(86,-9,o),
(162,-9,cs)
);
},
{
closed = 1;
nodes = (
(689,17,l),
(689,564,l),
(549,564,l),
(549,174,l),
(555,174,l),
(555,0,l)
);
}
);
userData = {
com.hugojourdan.ColorFlow = {
"0" = 0;
"1" = 0;
"10" = 0;
"11" = 0;
"2" = 0;
"3" = 0;
"4" = 0;
"5" = 0;
"6" = 0;
"7" = 0;
"8" = 0;
"9" = 0;
};
};
width = 739;
}
);
unicode = 623;
},
{
glyphname = n;
kernLeft = KO_n;
kernRight = KO_n;
layers = (
{
anchors = (
{
name = bottom;
pos = (269,0);
},
{
name = top;
pos = (269,563);
}
);
background = {
shapes = (
{
closed = 1;
nodes = (
(190,0,l),
(190,390,l),
(182,390,l),
(182,564,l),
(50,564,l),
(50,0,l)
);
},
{
closed = 1;
nodes = (
(464,0,l),
(464,404,ls),
(464,515,o),
(418,573,o),
(330,573,cs),
(241,573,o),
(183,513,o),
(167,404,c),
(190,289,l),
(190,393,o),
(220,455,o),
(271,455,cs),
(304,455,o),
(324,431,o),
(324,370,cs),
(324,0,l)
);
}
);
};
layerId = "849A9C4C-BF7C-40C5-8614-1FD725A2A379";
shapes = (
{
closed = 1;
nodes = (
(184,390,l),
(184,564,l),
(50,547,l),
(50,0,l),
(190,0,l),
(190,390,l)
);
},
{
closed = 1;
nodes = (
(190,287,l),
(190,382,o),
(222,453,o),
(269,453,cs),
(308,453,o),
(324,428,o),
(324,348,cs),
(324,0,l),
(464,0,l),
(464,404,ls),
(464,521,o),
(413,573,o),
(334,573,cs),
(257,573,o),
(196,526,o),
(180,418,c)
);
}
);
userData = {
com.hugojourdan.ColorFlow = {
"0" = 0;
"1" = 0;
"10" = 0;
"11" = 0;
"2" = 0;
"3" = 0;
"4" = 0;
"5" = 0;
"6" = 0;
"7" = 0;
"8" = 0;
"9" = 0;
};
};
width = 509;
}
);
unicode = 110;
userData = {
KernOnName = n;
};
},
{
glyphname = nhookleft;
kernRight = KO_n;
layers = (
{
anchors = (
{
name = bottom;
pos = (274,0);
},
{
name = top;
pos = (274,563);
}
);
background = {
shapes = (
{
closed = 1;
nodes = (
(141,-168,o),
(197,-93,o),
(197,5,cs),
(197,390,l),
(191,390,l),
(191,564,l),
(57,547,l),
(57,33,ls),
(57,-25,o),
(46,-52,o),
(5,-52,cs),
(-9,-52,o),
(-19,-50,o),
(-30,-46,c),
(-43,-154,l),
(-12,-164,o),
(16,-168,o),
(46,-168,cs)
);
},
{
closed = 1;
nodes = (
(471,0,l),
(471,404,ls),
(471,521,o),
(420,573,o),
(341,573,cs),
(264,573,o),
(203,526,o),
(187,418,c),
(197,287,l),
(197,382,o),
(229,454,o),
(276,454,cs),
(325,454,o),
(331,408,o),
(331,348,cs),
(331,0,l)
);
}
);
};
layerId = "849A9C4C-BF7C-40C5-8614-1FD725A2A379";
shapes = (
{
closed = 1;
nodes = (
(139,-168,o),
(195,-103,o),
(195,5,cs),
(195,390,l),
(189,390,l),
(189,564,l),
(55,547,l),
(55,10,ls),
(55,-36,o),
(37,-52,o),
(8,-52,cs),
(-6,-52,o),
(-16,-50,o),
(-27,-46,c),
(-40,-154,l),
(-11,-164,o),
(9,-168,o),
(40,-168,cs)
);
},
{
closed = 1;
nodes = (
(469,0,l),
(469,404,ls),
(469,521,o),
(418,573,o),
(339,573,cs),
(262,573,o),
(201,526,o),
(185,418,c),
(195,287,l),
(195,382,o),
(227,453,o),
(274,453,cs),
(313,453,o),
(329,428,o),
(329,348,cs),
(329,0,l)
);
}
);
userData = {
com.hugojourdan.ColorFlow = {
"0" = 0;
"1" = 0;
"10" = 0;
"11" = 0;
"2" = 0;
"3" = 0;
"4" = 0;
"5" = 0;
"6" = 0;
"7" = 0;
"8" = 0;
"9" = 0;
};
};
width = 514;
}
);
unicode = 626;
},
{
glyphname = nlegrightlong;
layers = (
{
background = {
shapes = (
{
closed = 1;
nodes = (
(475,-175,l),
(475,404,ls),
(475,521,o),
(424,573,o),
(345,573,cs),
(268,573,o),
(207,526,o),
(191,418,c),
(201,287,l),
(201,382,o),
(233,454,o),
(280,454,cs),
(329,454,o),
(335,408,o),
(335,348,cs),
(335,-175,l)
);
},
{
closed = 1;
nodes = (
(201,0,l),
(201,390,l),
(195,390,l),
(195,564,l),
(61,547,l),
(61,0,l)
);
}
);
};
guides = (
{
pos = (107,-158);
}
);
layerId = "849A9C4C-BF7C-40C5-8614-1FD725A2A379";
shapes = (
{
closed = 1;
nodes = (
(184,390,l),
(184,564,l),
(50,547,l),
(50,0,l),
(190,0,l),
(190,390,l)
);
},
{
closed = 1;
nodes = (
(190,287,l),
(190,382,o),
(222,453,o),
(269,453,cs),
(308,453,o),
(324,428,o),
(324,348,cs),
(324,-158,l),
(464,-158,l),
(464,404,ls),
(464,521,o),
(413,573,o),
(334,573,cs),
(257,573,o),
(196,526,o),
(180,418,c)
);
}
);
userData = {
com.hugojourdan.ColorFlow = {
"0" = 0;
"1" = 0;
"10" = 0;
"11" = 0;
"2" = 0;
"3" = 0;
"4" = 0;
"5" = 0;
"6" = 0;
"7" = 0;
"8" = 0;
"9" = 0;
};
};
width = 509;
}
);
unicode = 414;
},
{
glyphname = eng;
kernLeft = KO_n;
kernRight = KO_n;
layers = (
{
anchors = (
{
name = bottom;
pos = (269,0);
},
{
name = top;
pos = (269,563);
}
);
background = {
shapes = (
{
closed = 1;
nodes = (
(195,390,l),
(195,564,l),
(61,547,l),
(61,0,l),
(201,0,l),
(201,390,l)
);
},
{
closed = 1;
nodes = (
(268,573,o),
(207,526,o),
(191,418,c),
(201,299,l),
(201,387,o),
(240,454,o),
(284,454,cs),
(332,454,o),
(342,417,o),
(342,347,cs),
(342,33,ls),
(342,-25,o),
(331,-52,o),
(290,-52,cs),
(276,-52,o),
(266,-50,o),
(255,-46,c),
(242,-154,l),
(273,-164,o),
(301,-168,o),
(331,-168,cs),
(424,-168,o),
(480,-96,o),
(482,0,cs),
(482,404,ls),
(482,521,o),
(431,573,o),
(347,573,cs)
);
}
);
};
layerId = "849A9C4C-BF7C-40C5-8614-1FD725A2A379";
shapes = (
{
closed = 1;
nodes = (
(408,-168,o),
(464,-103,o),
(464,5,cs),
(464,404,ls),
(464,521,o),
(413,573,o),
(334,573,cs),
(257,573,o),
(196,526,o),
(180,418,c),
(190,287,l),
(190,382,o),
(222,453,o),
(269,453,cs),
(308,453,o),
(324,428,o),
(324,348,cs),
(324,10,ls),
(324,-36,o),
(306,-52,o),
(277,-52,cs),
(263,-52,o),
(253,-50,o),
(242,-46,c),
(229,-154,l),
(258,-164,o),
(278,-168,o),
(309,-168,cs)
);
},
{
closed = 1;
nodes = (
(190,0,l),
(190,390,l),
(184,390,l),
(184,564,l),
(50,547,l),
(50,0,l)
);
}
);
userData = {
com.hugojourdan.ColorFlow = {
"0" = 0;
"1" = 0;
"10" = 0;
"11" = 0;
"2" = 0;
"3" = 0;
"4" = 0;
"5" = 0;
"6" = 0;
"7" = 0;
"8" = 0;
"9" = 0;
};
};
width = 509;
}
);
metricLeft = n;
unicode = 331;
},
{
glyphname = o;
kernLeft = KO_e;
kernRight = KO_o;
layers = (
{
anchors = (
{
name = bottom;
pos = (243,0);
},
{
name = center;
pos = (243,282);
},
{
name = ogonek;
pos = (437,10);
},
{
name = top;
pos = (243,564);
},
{
name = topright;
pos = (466,564);
}
);
background = {
shapes = (
{
closed = 1;
nodes = (
(389,-13,o),
(478,94,o),
(478,276,cs),
(478,462,o),
(387,573,o),
(254,573,cs),
(121,573,o),
(32,463,o),
(32,276,cs),
(32,94,o),
(120,-13,o),
(254,-13,cs)
);
},
{
closed = 1;
nodes = (
(197,99,o),
(177,158,o),
(177,275,cs),
(177,397,o),
(198,461,o),
(254,461,cs),
(310,461,o),
(333,393,o),
(333,275,cs),
(333,161,o),
(311,99,o),
(254,99,cs)
);
}
);
};
layerId = "849A9C4C-BF7C-40C5-8614-1FD725A2A379";
shapes = (
{
closed = 1;
nodes = (
(377,-13,o),
(456,94,o),
(456,279,cs),
(456,456,o),
(377,570,o),
(242,570,cs),
(106,570,o),
(30,454,o),
(30,279,cs),
(30,95,o),
(107,-13,o),
(242,-13,cs)
);
},
{
closed = 1;
nodes = (
(183,95,o),
(173,190,o),
(173,279,cs),
(173,355,o),
(182,462,o),
(242,462,cs),
(302,462,o),
(313,354,o),
(313,279,cs),
(313,190,o),
(302,95,o),
(242,95,cs)
);
}
);
userData = {
com.hugojourdan.ColorFlow = {
"0" = 0;
"1" = 0;
"10" = 0;
"11" = 0;
"2" = 0;
"3" = 0;
"4" = 0;
"5" = 0;
"6" = 0;
"7" = 0;
"8" = 0;
"9" = 0;
};
};
width = 486;
}
);
metricRight = "=|";
unicode = 111;
userData = {
KernOnName = o;
};
},
{
glyphname = ohorn;
kernLeft = KO_e;
layers = (
{
anchors = (
{
name = bottom;
pos = (242,0);
},
{
name = top;
pos = (242,563);
}
);
background = {
shapes = (
{
closed = 1;
nodes = (
(377,-13,o),
(456,94,o),
(456,279,cs),
(456,456,o),
(377,570,o),
(242,570,cs),
(106,570,o),
(30,454,o),
(30,279,cs),
(30,95,o),
(107,-13,o),
(242,-13,cs)
);
},
{
closed = 1;
nodes = (
(183,90,o),
(173,183,o),
(173,279,cs),
(173,362,o),
(182,467,o),
(242,467,cs),
(302,467,o),
(313,361,o),
(313,279,cs),
(313,183,o),
(302,90,o),
(242,90,cs)
);
},
{
closed = 1;
nodes = (
(459,477,o),
(534,537,o),
(534,623,cs),
(534,671,o),
(521,705,o),
(508,727,c),
(399,686,l),
(412,664,o),
(426,632,o),
(426,608,cs),
(426,575,o),
(402,558,o),
(365,558,cs),
(344,558,o),
(325,560,o),
(281,567,c),
(262,477,l),
(374,477,ls)
);
}
);
};
guides = (
{
angle = 200.4926;
pos = (449,705);
}
);
layerId = "849A9C4C-BF7C-40C5-8614-1FD725A2A379";
shapes = (
{
closed = 1;
nodes = (
(377,-13,o),
(456,94,o),
(456,279,cs),
(456,377,o),
(432,457,o),
(386,508,c),
(363,477,l),
(452,472,o),
(534,533,o),
(534,623,cs),
(534,671,o),
(521,705,o),
(508,727,c),
(399,686,l),
(412,664,o),
(426,638,o),
(426,614,cs),
(426,581,o),
(406,558,o),
(365,558,cs),
(320,558,o),
(293,570,o),
(242,570,cs),
(106,570,o),
(30,454,o),
(30,279,cs),
(30,95,o),
(107,-13,o),
(242,-13,cs)
);
},
{
closed = 1;
nodes = (
(183,90,o),
(173,183,o),
(173,279,cs),
(173,362,o),
(182,467,o),
(242,467,cs),
(302,467,o),
(313,361,o),
(313,279,cs),
(313,183,o),
(302,90,o),
(242,90,cs)
);
}
);
userData = {
com.hugojourdan.ColorFlow = {
"0" = 0;
"1" = 0;
"10" = 0;
"11" = 0;
"2" = 0;
"3" = 0;
"4" = 0;
"5" = 0;
"6" = 0;
"7" = 0;
"8" = 0;
"9" = 0;
};
};
width = 504;
}
);
metricLeft = o;
unicode = 417;
},
{
glyphname = omacronacute;
kernLeft = KO_e;
layers = (
{
background = {
shapes = (
{
closed = 1;
nodes = (
(358,814,l),
(294,938,l),
(104,798,l),
(136,733,l)
);
}
);
};
layerId = "849A9C4C-BF7C-40C5-8614-1FD725A2A379";
shapes = (
{
ref = o;
},
{
pos = (243,1);
ref = macroncomb_acutecomb;
}
);
userData = {
com.hugojourdan.ColorFlow = {
"0" = 0;
"1" = 0;
"10" = 0;
"11" = 0;
"2" = 0;
"3" = 0;
"4" = 0;
"5" = 0;
"6" = 0;
"7" = 0;
"8" = 0;
"9" = 0;
};
};
width = 486;
}
);
unicode = 7763;
},
{
color = 4;
glyphname = "omega-latin";
layers = (
{
background = {
shapes = (
{
ref = m;
}
);
};
layerId = "849A9C4C-BF7C-40C5-8614-1FD725A2A379";
shapes = (
{
closed = 1;
nodes = (
(279,-14,o),
(323,14,o),
(349,75,c),
(374,14,o),
(418,-14,o),
(488,-14,cs),
(592,-14,o),
(663,75,o),
(663,251,cs),
(663,370,o),
(641,469,o),
(595,563,c),
(454,563,l),
(502,463,o),
(522,368,o),
(522,232,cs),
(522,130,o),
(508,89,o),
(465,89,cs),
(433,89,o),
(419,111,o),
(419,154,cs),
(419,341,l),
(279,341,l),
(279,154,ls),
(279,111,o),
(265,89,o),
(232,89,cs),
(190,89,o),
(176,130,o),
(176,232,cs),
(176,368,o),
(196,463,o),
(244,563,c),
(103,563,l),
(57,469,o),
(35,370,o),
(35,251,cs),
(35,75,o),
(106,-14,o),
(209,-14,cs)
);
}
);
userData = {
com.hugojourdan.ColorFlow = {
"0" = 0;
"1" = 0;
"10" = 0;
"11" = 0;
"2" = 0;
"3" = 0;
"4" = 0;
"5" = 0;
"6" = 0;
"7" = 0;
"8" = 0;
"9" = 0;
};
};
width = 698;
}
);
metricRight = "=|";
unicode = 42935;
},
{
glyphname = oopen;
kernRight = KO_o;
layers = (
{
anchors = (
{
name = bottom;
pos = (231,0);
},
{
name = top;
pos = (231,564);
}
);
background = {
shapes = (
{
closed = 1;
nodes = (
(351,-7,o),
(432,106,o),
(432,285,cs),
(432,462,o),
(362,576,o),
(220,576,cs),
(109,576,o),
(40,487,o),
(28,381,c),
(156,367,l),
(158,409,o),
(172,473,o),
(220,473,cs),
(271,473,o),
(289,400,o),
(289,285,cs),
(289,185,o),
(277,96,o),
(220,96,cs),
(174,96,o),
(162,158,o),
(158,210,c),
(28,184,l),
(37,66,o),
(109,-7,o),
(220,-7,cs)
);
}
);
};
layerId = "849A9C4C-BF7C-40C5-8614-1FD725A2A379";
shapes = (
{
closed = 1;
nodes = (
(351,-13,o),
(432,103,o),
(432,282,cs),
(432,456,o),
(367,570,o),
(225,570,cs),
(114,570,o),
(40,481,o),
(28,375,c),
(156,361,l),
(158,401,o),
(172,462,o),
(220,462,cs),
(271,462,o),
(289,392,o),
(289,282,cs),
(289,184,o),
(277,95,o),
(220,95,cs),
(174,95,o),
(162,157,o),
(158,207,c),
(28,181,l),
(37,63,o),
(109,-13,o),
(220,-13,cs)
);
}
);
userData = {
com.hugojourdan.ColorFlow = {
"0" = 0;
"1" = 0;
"10" = 0;
"11" = 0;
"2" = 0;
"3" = 0;
"4" = 0;
"5" = 0;
"6" = 0;
"7" = 0;
"8" = 0;
"9" = 0;
};
};
width = 462;
}
);
metricLeft = "=|c";
metricRight = o;
unicode = 596;
},
{
color = 0;
glyphname = oslash;
kernLeft = KO_oslash;
layers = (
{
anchors = (
{
name = top;
pos = (247,564);
}
);
background = {
shapes = (
{
ref = o;
}
);
};
layerId = "849A9C4C-BF7C-40C5-8614-1FD725A2A379";
shapes = (
{
closed = 1;
nodes = (
(381,-13,o),
(460,94,o),
(460,279,cs),
(460,456,o),
(381,570,o),
(246,570,cs),
(110,570,o),
(34,454,o),
(34,279,cs),
(34,95,o),
(111,-13,o),
(246,-13,cs)
);
},
{
closed = 1;
nodes = (
(183,90,o),
(163,160,o),
(163,279,cs),
(163,385,o),
(182,467,o),
(242,467,cs),
(302,467,o),
(323,384,o),
(323,279,cs),
(323,160,o),
(302,90,o),
(242,90,cs)
);
},
{
closed = 1;
nodes = (
(382,691,l),
(334,704,l),
(114,-119,l),
(163,-131,l)
);
}
);
userData = {
com.hugojourdan.ColorFlow = {
"0" = 0;
"1" = 0;
"10" = 0;
"11" = 0;
"2" = 0;
"3" = 0;
"4" = 0;
"5" = 0;
"6" = 0;
"7" = 0;
"8" = 0;
"9" = 0;
};
};
width = 494;
}
);
unicode = 248;
},
{
glyphname = otildeacute;
layers = (
{
layerId = "849A9C4C-BF7C-40C5-8614-1FD725A2A379";
shapes = (
{
closed = 1;
nodes = (
(374,864,l),
(310,988,l),
(120,848,l),
(152,783,l)
);
},
{
ref = o;
},
{
pos = (247,0);
ref = tildecomb;
}
);
userData = {
com.hugojourdan.ColorFlow = {
"0" = 0;
"1" = 0;
"10" = 0;
"11" = 0;
"2" = 0;
"3" = 0;
"4" = 0;
"5" = 0;
"6" = 0;
"7" = 0;
"8" = 0;
"9" = 0;
};
};
width = 494;
}
);
unicode = 7757;
},
{
color = 4;
glyphname = ou;
layers = (
{
background = {
shapes = (
{
closed = 1;
nodes = (
(375,-10,o),
(446,72,o),
(446,189,cs),
(446,563,l),
(306,563,l),
(306,196,ls),
(306,126,o),
(290,90,o),
(243,90,cs),
(196,90,o),
(180,126,o),
(180,196,cs),
(180,563,l),
(40,563,l),
(40,189,ls),
(40,72,o),
(111,-10,o),
(243,-10,cs)
);
}
);
};
guides = (
{
pos = (669,750);
}
);
layerId = "849A9C4C-BF7C-40C5-8614-1FD725A2A379";
shapes = (
{
closed = 1;
nodes = (
(377,-13,o),
(456,77,o),
(456,238,cs),
(456,330,o),
(431,400,o),
(384,444,c),
(425,478,o),
(446,530,o),
(446,594,cs),
(446,750,l),
(306,750,l),
(306,601,ls),
(306,531,o),
(290,495,o),
(243,495,cs),
(196,495,o),
(180,531,o),
(180,601,cs),
(180,750,l),
(40,750,l),
(40,594,ls),
(40,531,o),
(61,479,o),
(101,444,c),
(55,400,o),
(30,330,o),
(30,238,cs),
(30,78,o),
(107,-13,o),
(242,-13,cs)
);
},
{
closed = 1;
nodes = (
(191,90,o),
(173,135,o),
(173,238,cs),
(173,343,o),
(192,395,o),
(245,395,cs),
(296,395,o),
(313,342,o),
(313,238,cs),
(313,135,o),
(294,90,o),
(242,90,cs)
);
}
);
userData = {
com.hugojourdan.ColorFlow = {
"0" = 0;
"1" = 0;
"10" = 0;
"11" = 0;
"2" = 0;
"3" = 0;
"4" = 0;
"5" = 0;
"6" = 0;
"7" = 0;
"8" = 0;
"9" = 0;
};
};
width = 486;
}
);
metricLeft = o;
metricRight = o;
unicode = 547;
},
{
glyphname = oe;
kernLeft = KO_e;
kernRight = KO_e;
layers = (
{
anchors = (
{
name = bottom;
pos = (372,0);
},
{
name = top;
pos = (372,564);
}
);
background = {
shapes = (
{
closed = 1;
nodes = (
(301,-13,o),
(346,16,o),
(379,57,c),
(415,9,o),
(457,-13,o),
(526,-13,cs),
(612,-13,o),
(687,39,o),
(710,151,c),
(592,177,l),
(585,139,o),
(570,93,o),
(528,93,cs),
(470,93,o),
(451,167,o),
(451,248,c),
(711,248,l),
(713,279,o),
(714,297,o),
(714,334,cs),
(714,414,o),
(690,570,o),
(522,570,cs),
(459,570,o),
(405,536,o),
(382,491,c),
(356,536,o),
(298,570,o),
(235,570,cs),
(103,570,o),
(30,451,o),
(30,280,cs),
(30,108,o),
(103,-13,o),
(237,-13,cs)
);
},
{
closed = 1;
nodes = (
(178,91,o),
(171,191,o),
(171,279,cs),
(171,359,o),
(178,465,o),
(240,465,cs),
(305,465,o),
(311,347,o),
(311,278,cs),
(311,210,o),
(308,91,o),
(240,91,cs)
);
},
{
closed = 1;
nodes = (
(453,405,o),
(478,464,o),
(521,464,cs),
(568,464,o),
(587,412,o),
(587,330,c),
(453,330,l)
);
}
);
};
layerId = "849A9C4C-BF7C-40C5-8614-1FD725A2A379";
shapes = (
{
closed = 1;
nodes = (
(292,-13,o),
(347,11,o),
(377,66,c),
(406,13,o),
(452,-13,o),
(520,-13,cs),
(619,-13,o),
(690,50,o),
(709,154,c),
(585,180,l),
(579,136,o),
(567,93,o),
(522,93,cs),
(464,93,o),
(453,169,o),
(451,239,c),
(710,239,l),
(712,273,o),
(713,304,o),
(713,336,cs),
(713,469,o),
(655,570,o),
(519,570,cs),
(456,570,o),
(410,543,o),
(379,485,c),
(349,543,o),
(303,570,o),
(237,570,cs),
(101,570,o),
(30,454,o),
(30,279,cs),
(30,95,o),
(102,-13,o),
(228,-13,cs)
);
},
{
closed = 1;
nodes = (
(183,95,o),
(173,190,o),
(173,279,cs),
(173,355,o),
(182,462,o),
(242,462,cs),
(302,462,o),
(313,354,o),
(313,279,cs),
(313,190,o),
(302,95,o),
(242,95,cs)
);
},
{
closed = 1;
nodes = (
(454,395,o),
(469,466,o),
(522,466,cs),
(572,466,o),
(584,397,o),
(584,342,cs),
(584,328,l),
(451,328,l)
);
}
);
userData = {
com.hugojourdan.ColorFlow = {
"0" = 0;
"1" = 0;
"10" = 0;
"11" = 0;
"2" = 0;
"3" = 0;
"4" = 0;
"5" = 0;
"6" = 0;
"7" = 0;
"8" = 0;
"9" = 0;
};
};
width = 743;
}
);
metricLeft = o;
metricRight = e;
unicode = 339;
},
{
glyphname = p;
kernLeft = KO_n;
kernRight = KO_o;
layers = (
{
anchors = (
{
name = bottom;
pos = (247,0);
},
{
name = top;
pos = (241,563);
}
);
background = {
shapes = (
{
closed = 1;
nodes = (
(426,-13,o),
(482,115,o),
(482,279,cs),
(482,459,o),
(426,573,o),
(309,573,cs),
(217,573,o),
(166,493,o),
(166,392,c),
(189,322,l),
(189,395,o),
(211,455,o),
(264,455,cs),
(316,455,o),
(339,377,o),
(339,278,cs),
(339,181,o),
(316,105,o),
(261,105,cs),
(211,105,o),
(189,167,o),
(189,237,c),
(166,169,l),
(166,79,o),
(205,-13,o),
(302,-13,cs)
);
},
{
closed = 1;
nodes = (
(189,-182,l),
(189,457,l),
(181,457,l),
(181,564,l),
(49,564,l),
(49,-182,l)
);
}
);
};
layerId = "849A9C4C-BF7C-40C5-8614-1FD725A2A379";
shapes = (
{
closed = 1;
nodes = (
(190,-157,l),
(190,426,l),
(183,426,l),
(183,568,l),
(50,551,l),
(50,-175,l)
);
},
{
closed = 1;
nodes = (
(418,-13,o),
(470,115,o),
(470,279,cs),
(470,459,o),
(418,573,o),
(303,573,cs),
(213,573,o),
(167,503,o),
(167,412,c),
(190,322,l),
(190,408,o),
(206,465,o),
(254,465,cs),
(307,465,o),
(327,390,o),
(327,278,cs),
(327,167,o),
(307,95,o),
(254,95,cs),
(206,95,o),
(190,153,o),
(190,237,c),
(167,149,l),
(167,69,o),
(201,-13,o),
(296,-13,cs)
);
}
);
userData = {
com.hugojourdan.ColorFlow = {
"0" = 0;
"1" = 0;
"10" = 0;
"11" = 0;
"2" = 0;
"3" = 0;
"4" = 0;
"5" = 0;
"6" = 0;
"7" = 0;
"8" = 0;
"9" = 0;
};
};
width = 505;
}
);
metricLeft = n;
metricRight = b;
unicode = 112;
userData = {
KernOnName = p;
};
},
{
glyphname = phook;
layers = (
{
anchors = (
{
name = bottom;
pos = (253,0);
},
{
name = top;
pos = (253,564);
}
);
background = {
shapes = (
{
closed = 1;
nodes = (
(201,-157,l),
(201,591,ls),
(201,624,o),
(218,644,o),
(253,644,cs),
(267,644,o),
(277,642,o),
(288,638,c),
(301,748,l),
(278,757,o),
(257,760,o),
(234,760,cs),
(127,760,o),
(61,685,o),
(61,587,cs),
(61,-175,l)
);
},
{
closed = 1;
nodes = (
(429,-13,o),
(481,115,o),
(481,279,cs),
(481,459,o),
(429,570,o),
(314,570,cs),
(224,570,o),
(178,503,o),
(178,412,c),
(201,322,l),
(201,408,o),
(217,466,o),
(268,466,cs),
(318,466,o),
(338,390,o),
(338,278,cs),
(338,167,o),
(318,91,o),
(265,91,cs),
(217,91,o),
(201,153,o),
(201,237,c),
(178,149,l),
(178,69,o),
(212,-13,o),
(307,-13,cs)
);
}
);
};
layerId = "849A9C4C-BF7C-40C5-8614-1FD725A2A379";
shapes = (
{
closed = 1;
nodes = (
(190,-158,l),
(190,586,ls),
(190,632,o),
(207,651,o),
(237,651,cs),
(254,651,o),
(269,649,o),
(286,644,c),
(298,743,l),
(275,754,o),
(244,760,o),
(210,760,cs),
(109,760,o),
(50,698,o),
(50,585,cs),
(50,-175,l)
);
},
{
closed = 1;
nodes = (
(418,-13,o),
(470,115,o),
(470,279,cs),
(470,459,o),
(418,573,o),
(303,573,cs),
(213,573,o),
(167,503,o),
(167,412,c),
(190,322,l),
(190,408,o),
(205,465,o),
(256,465,cs),
(306,465,o),
(327,390,o),
(327,278,cs),
(327,167,o),
(307,95,o),
(254,95,cs),
(206,95,o),
(190,153,o),
(190,237,c),
(167,149,l),
(167,69,o),
(201,-13,o),
(296,-13,cs)
);
}
);
userData = {
com.hugojourdan.ColorFlow = {
"0" = 0;
"1" = 0;
"10" = 0;
"11" = 0;
"2" = 0;
"3" = 0;
"4" = 0;
"5" = 0;
"6" = 0;
"7" = 0;
"8" = 0;
"9" = 0;
};
};
width = 505;
}
);
unicode = 421;
},
{
glyphname = thorn;
kernLeft = KO_l;
kernRight = KO_o;
layers = (
{
anchors = (
{
name = bottom;
pos = (253,0);
},
{
name = top;
pos = (253,564);
}
);
background = {
shapes = (
{
closed = 1;
nodes = (
(191,-175,l),
(190,70,l),
(195,55,o),
(201,41,o),
(212,28,cs),
(229,7,o),
(259,-13,o),
(311,-13,cs),
(414,-13,o),
(472,78,o),
(472,281,cs),
(472,495,o),
(410,570,o),
(336,570,cs),
(287,570,o),
(233,538,o),
(190,491,c),
(190,750,l),
(50,732,l),
(50,-175,l)
);
},
{
closed = 1;
nodes = (
(225,87,o),
(190,117,o),
(190,234,cs),
(190,412,l),
(201,418,o),
(213,425,o),
(224,431,cs),
(243,440,o),
(266,450,o),
(283,450,cs),
(329,450,o),
(332,376,o),
(332,281,cs),
(332,177,o),
(327,87,o),
(259,87,cs)
);
}
);
};
guides = (
{
angle = 7;
pos = (50,-175);
},
{
angle = 7;
pos = (50,741);
}
);
layerId = "849A9C4C-BF7C-40C5-8614-1FD725A2A379";
shapes = (
{
closed = 1;
nodes = (
(190,-158,l),
(190,759,l),
(50,741,l),
(50,-175,l)
);
},
{
closed = 1;
nodes = (
(418,-13,o),
(470,115,o),
(470,279,cs),
(470,459,o),
(418,573,o),
(303,573,cs),
(213,573,o),
(167,503,o),
(167,412,c),
(190,322,l),
(190,408,o),
(205,465,o),
(256,465,cs),
(306,465,o),
(327,390,o),
(327,278,cs),
(327,167,o),
(307,95,o),
(254,95,cs),
(206,95,o),
(190,153,o),
(190,237,c),
(167,149,l),
(167,69,o),
(201,-13,o),
(296,-13,cs)
);
}
);
userData = {
com.hugojourdan.ColorFlow = {
"0" = 0;
"1" = 0;
"10" = 0;
"11" = 0;
"2" = 0;
"3" = 0;
"4" = 0;
"5" = 0;
"6" = 0;
"7" = 0;
"8" = 0;
"9" = 0;
};
};
width = 505;
}
);
metricLeft = h;
metricRight = b;
unicode = 254;
},
{
glyphname = pstroke;
layers = (
{
background = {
shapes = (
{
closed = 1;
nodes = (
(531,237,l),
(541,327,l),
(-10,327,l),
(-10,237,l)
);
}
);
};
layerId = "849A9C4C-BF7C-40C5-8614-1FD725A2A379";
shapes = (
{
ref = p;
},
{
closed = 1;
nodes = (
(532,249,l),
(539,314,l),
(-10,314,l),
(-10,249,l)
);
}
);
userData = {
com.hugojourdan.ColorFlow = {
"0" = 0;
"1" = 0;
"10" = 0;
"11" = 0;
"2" = 0;
"3" = 0;
"4" = 0;
"5" = 0;
"6" = 0;
"7" = 0;
"8" = 0;
"9" = 0;
};
};
width = 517;
}
);
unicode = 7549;
},
{
glyphname = q;
kernLeft = KO_e;
kernRight = KO_u;
layers = (
{
anchors = (
{
name = bottom;
pos = (253,0);
},
{
name = top;
pos = (253,564);
}
);
background = {
shapes = (
{
closed = 1;
nodes = (
(299,-13,o),
(350,67,o),
(350,168,c),
(327,238,l),
(327,165,o),
(305,105,o),
(252,105,cs),
(200,105,o),
(177,183,o),
(177,282,cs),
(177,379,o),
(200,455,o),
(255,455,cs),
(305,455,o),
(327,393,o),
(327,323,c),
(350,391,l),
(350,481,o),
(311,573,o),
(214,573,cs),
(90,573,o),
(34,445,o),
(34,281,cs),
(34,101,o),
(90,-13,o),
(207,-13,cs)
);
},
{
closed = 1;
nodes = (
(467,-182,l),
(467,564,l),
(335,564,l),
(335,453,l),
(327,453,l),
(327,-182,l)
);
}
);
};
layerId = "849A9C4C-BF7C-40C5-8614-1FD725A2A379";
shapes = (
{
closed = 1;
nodes = (
(292,-13,o),
(338,54,o),
(338,145,c),
(315,235,l),
(315,149,o),
(299,95,o),
(248,95,cs),
(198,95,o),
(178,167,o),
(178,279,cs),
(178,390,o),
(198,465,o),
(251,465,cs),
(299,465,o),
(315,404,o),
(315,320,c),
(338,408,l),
(338,488,o),
(304,573,o),
(209,573,cs),
(87,573,o),
(35,442,o),
(35,278,cs),
(35,98,o),
(87,-13,o),
(202,-13,cs)
);
},
{
closed = 1;
nodes = (
(455,-158,l),
(455,563,l),
(325,563,l),
(325,423,l),
(315,423,l),
(315,-175,l)
);
}
);
userData = {
com.hugojourdan.ColorFlow = {
"0" = 0;
"1" = 0;
"10" = 0;
"11" = 0;
"2" = 0;
"3" = 0;
"4" = 0;
"5" = 0;
"6" = 0;
"7" = 0;
"8" = 0;
"9" = 0;
};
};
width = 505;
}
);
metricLeft = d;
metricRight = "=|n";
unicode = 113;
},
{
glyphname = qhooktail;
layers = (
{
anchors = (
{
name = bottom;
pos = (253,0);
},
{
name = top;
pos = (253,564);
}
);
background = {
shapes = (
{
closed = 1;
nodes = (
(478,-173,o),
(498,-167,o),
(518,-160,c),
(507,-56,l),
(500,-58,o),
(494,-59,o),
(485,-59,cs),
(468,-59,o),
(456,-47,o),
(456,-22,cs),
(456,563,l),
(326,563,l),
(326,423,l),
(316,423,l),
(316,-8,ls),
(316,-117,o),
(367,-173,o),
(450,-173,cs)
);
},
{
closed = 1;
nodes = (
(293,-13,o),
(339,54,o),
(339,145,c),
(316,235,l),
(316,149,o),
(300,91,o),
(249,91,cs),
(199,91,o),
(179,167,o),
(179,279,cs),
(179,390,o),
(199,466,o),
(252,466,cs),
(300,466,o),
(316,404,o),
(316,320,c),
(339,408,l),
(339,488,o),
(305,570,o),
(210,570,cs),
(88,570,o),
(36,442,o),
(36,278,cs),
(36,98,o),
(88,-13,o),
(203,-13,cs)
);
}
);
};
layerId = "849A9C4C-BF7C-40C5-8614-1FD725A2A379";
shapes = (
{
closed = 1;
nodes = (
(292,-13,o),
(338,54,o),
(338,145,c),
(315,235,l),
(315,149,o),
(299,95,o),
(248,95,cs),
(198,95,o),
(178,167,o),
(178,279,cs),
(178,390,o),
(198,465,o),
(251,465,cs),
(299,465,o),
(315,404,o),
(315,320,c),
(338,408,l),
(338,488,o),
(304,573,o),
(209,573,cs),
(87,573,o),
(35,442,o),
(35,278,cs),
(35,98,o),
(87,-13,o),
(202,-13,cs)
);
},
{
closed = 1;
nodes = (
(476,-173,o),
(496,-167,o),
(516,-160,c),
(505,-56,l),
(498,-58,o),
(492,-59,o),
(483,-59,cs),
(466,-59,o),
(455,-47,o),
(455,-22,cs),
(455,563,l),
(325,563,l),
(325,423,l),
(315,423,l),
(315,-34,ls),
(315,-123,o),
(357,-173,o),
(448,-173,cs)
);
}
);
userData = {
com.hugojourdan.ColorFlow = {
"0" = 0;
"1" = 0;
"10" = 0;
"11" = 0;
"2" = 0;
"3" = 0;
"4" = 0;
"5" = 0;
"6" = 0;
"7" = 0;
"8" = 0;
"9" = 0;
};
};
width = 505;
}
);
unicode = 587;
},
{
glyphname = r;
kernLeft = KO_n;
kernRight = KO_r;
layers = (
{
anchors = (
{
name = bottom;
pos = (125,0);
},
{
name = top;
pos = (206,563);
}
);
background = {
shapes = (
{
closed = 1;
nodes = (
(200,0,l),
(200,401,l),
(192,401,l),
(192,564,l),
(60,564,l),
(60,0,l)
);
},
{
closed = 1;
nodes = (
(200,370,o),
(235,432,o),
(316,432,cs),
(333,432,o),
(348,430,o),
(364,424,c),
(383,557,l),
(371,567,o),
(354,573,o),
(332,573,cs),
(258,573,o),
(199,499,o),
(185,398,c),
(200,274,l)
);
}
);
};
layerId = "849A9C4C-BF7C-40C5-8614-1FD725A2A379";
shapes = (
{
closed = 1;
nodes = (
(184,401,l),
(184,563,l),
(50,547,l),
(50,0,l),
(190,0,l),
(190,401,l)
);
},
{
closed = 1;
nodes = (
(190,370,o),
(235,433,o),
(292,433,cs),
(313,433,o),
(329,428,o),
(343,418,c),
(373,554,l),
(359,568,o),
(342,573,o),
(315,573,cs),
(246,573,o),
(189,496,o),
(180,395,c),
(190,271,l)
);
}
);
userData = {
com.hugojourdan.ColorFlow = {
"0" = 0;
"1" = 0;
"10" = 0;
"11" = 0;
"2" = 0;
"3" = 0;
"4" = 0;
"5" = 0;
"6" = 0;
"7" = 0;
"8" = 0;
"9" = 0;
};
};
width = 383;
}
);
metricLeft = n;
unicode = 114;
userData = {
KernOnName = r;
};
},
{
color = 0;
glyphname = ramshorn;
layers = (
{
anchors = (
{
name = bottom;
pos = (275,0);
},
{
name = top;
pos = (275,564);
}
);
background = {
shapes = (
{
closed = 1;
nodes = (
(405,-15,o),
(474,49,o),
(474,142,cs),
(474,211,o),
(444,268,o),
(398,322,cs),
(188,569,l),
(56,553,l),
(300,278,ls),
(338,235,o),
(350,193,o),
(350,159,cs),
(350,122,o),
(327,95,o),
(280,95,c),
(280,-15,l)
);
},
{
closed = 1;
nodes = (
(280,95,l),
(233,95,o),
(210,122,o),
(210,166,cs),
(210,200,o),
(224,234,o),
(250,268,cs),
(477,564,l),
(355,564,l),
(163,326,ls),
(117,270,o),
(86,201,o),
(86,142,cs),
(86,49,o),
(155,-15,o),
(280,-15,c)
);
}
);
};
layerId = "849A9C4C-BF7C-40C5-8614-1FD725A2A379";
shapes = (
{
closed = 1;
nodes = (
(425,-15,o),
(474,80,o),
(474,152,cs),
(474,206,o),
(449,254,o),
(403,309,cs),
(342,377,l),
(393,439,ls),
(408,458,o),
(424,463,o),
(438,464,cs),
(472,465,o),
(498,426,o),
(512,394,c),
(575,463,l),
(545,552,o),
(472,574,o),
(433,574,cs),
(367,574,o),
(334,530,o),
(303,489,cs),
(280,459,l),
(257,489,ls),
(226,530,o),
(193,574,o),
(127,574,cs),
(88,574,o),
(15,552,o),
(-15,463,c),
(48,394,l),
(62,426,o),
(88,465,o),
(122,464,cs),
(136,463,o),
(152,458,o),
(167,439,cs),
(218,377,l),
(157,309,ls),
(111,254,o),
(86,206,o),
(86,152,cs),
(86,80,o),
(135,-15,o),
(280,-15,cs)
);
},
{
closed = 1;
nodes = (
(210,188,o),
(217,230,o),
(256,274,cs),
(280,301,l),
(304,274,ls),
(343,230,o),
(350,188,o),
(350,161,cs),
(350,125,o),
(327,95,o),
(280,95,cs),
(233,95,o),
(210,125,o),
(210,161,cs)
);
}
);
userData = {
com.hugojourdan.ColorFlow = {
"0" = 0;
"1" = 0;
"10" = 0;
"11" = 0;
"2" = 0;
"3" = 0;
"4" = 0;
"5" = 0;
"6" = 0;
"7" = 0;
"8" = 0;
"9" = 0;
};
};
width = 560;
}
);
unicode = 612;
},
{
glyphname = rfishhook;
layers = (
{
anchors = (
{
name = bottom;
pos = (189,0);
},
{
name = top;
pos = (189,564);
}
);
background = {
shapes = (
{
ref = r;
}
);
};
layerId = "849A9C4C-BF7C-40C5-8614-1FD725A2A379";
shapes = (
{
closed = 1;
nodes = (
(190,0,l),
(190,367,ls),
(190,429,o),
(218,461,o),
(269,461,cs),
(296,461,o),
(319,454,o),
(339,443,c),
(362,547,l),
(321,564,o),
(285,573,o),
(242,573,cs),
(120,573,o),
(50,496,o),
(50,373,cs),
(50,0,l)
);
}
);
userData = {
com.hugojourdan.ColorFlow = {
"0" = 0;
"1" = 0;
"10" = 0;
"11" = 0;
"2" = 0;
"3" = 0;
"4" = 0;
"5" = 0;
"6" = 0;
"7" = 0;
"8" = 0;
"9" = 0;
};
};
width = 377;
}
);
metricLeft = n;
unicode = 638;
},
{
glyphname = rhook;
layers = (
{
background = {
shapes = (
{
closed = 1;
nodes = (
(223,-173,o),
(243,-167,o),
(263,-160,c),
(252,-56,l),
(245,-58,o),
(239,-59,o),
(230,-59,cs),
(213,-59,o),
(201,-47,o),
(201,-22,cs),
(201,401,l),
(195,401,l),
(195,563,l),
(61,547,l),
(61,-8,ls),
(61,-117,o),
(112,-173,o),
(195,-173,cs)
);
},
{
closed = 1;
nodes = (
(201,360,o),
(246,429,o),
(301,429,cs),
(324,429,o),
(336,424,o),
(354,414,c),
(384,551,l),
(365,565,o),
(348,570,o),
(321,570,cs),
(257,570,o),
(200,496,o),
(191,395,c),
(201,271,l)
);
}
);
};
layerId = "849A9C4C-BF7C-40C5-8614-1FD725A2A379";
shapes = (
{
closed = 1;
nodes = (
(211,-173,o),
(231,-167,o),
(251,-160,c),
(240,-56,l),
(233,-58,o),
(227,-59,o),
(218,-59,cs),
(201,-59,o),
(190,-47,o),
(190,-22,cs),
(190,401,l),
(184,401,l),
(184,563,l),
(50,547,l),
(50,-34,ls),
(50,-123,o),
(92,-173,o),
(183,-173,cs)
);
},
{
closed = 1;
nodes = (
(190,370,o),
(235,433,o),
(292,433,cs),
(313,433,o),
(329,428,o),
(343,418,c),
(373,554,l),
(359,568,o),
(342,573,o),
(315,573,cs),
(246,573,o),
(189,496,o),
(180,395,c),
(190,271,l)
);
}
);
userData = {
com.hugojourdan.ColorFlow = {
"0" = 0;
"1" = 0;
"10" = 0;
"11" = 0;
"2" = 0;
"3" = 0;
"4" = 0;
"5" = 0;
"6" = 0;
"7" = 0;
"8" = 0;
"9" = 0;
};
};
width = 383;
}
);
unicode = 637;
},
{
color = 0;
glyphname = rstroke;
layers = (
{
background = {
shapes = (
{
closed = 1;
nodes = (
(298,157,l),
(308,247,l),
(1,247,l),
(1,157,l)
);
}
);
};
layerId = "849A9C4C-BF7C-40C5-8614-1FD725A2A379";
shapes = (
{
closed = 1;
nodes = (
(292,169,l),
(298,234,l),
(0,234,l),
(0,169,l)
);
},
{
pos = (11,0);
ref = r;
}
);
userData = {
com.hugojourdan.ColorFlow = {
"0" = 0;
"1" = 0;
"10" = 0;
"11" = 0;
"2" = 0;
"3" = 0;
"4" = 0;
"5" = 0;
"6" = 0;
"7" = 0;
"8" = 0;
"9" = 0;
};
};
width = 394;
}
);
unicode = 589;
},
